<?xml version="1.0" encoding="UTF-8" standalone="no"?>
<!DOCTYPE svg PUBLIC "-//W3C//DTD SVG 1.1//EN" "http://www.w3.org/Graphics/SVG/1.1/DTD/svg11.dtd">
<svg width="100%" height="100%" viewBox="0 0 90 90" version="1.1" xmlns="http://www.w3.org/2000/svg" xmlns:xlink="http://www.w3.org/1999/xlink" xml:space="preserve" xmlns:serif="http://www.serif.com/" style="fill-rule:evenodd;clip-rule:evenodd;stroke-linecap:round;stroke-linejoin:round;stroke-miterlimit:1.5;">
    <g transform="matrix(0.0677825,0,0,0.0774232,3.87536,-17.0777)">
        <g id="Artboard1">
            <rect x="-57.173" y="52.668" width="1327.68" height="1327.68" style="fill:none;"/>
            <g id="Ghost-Logo-Setup-2" serif:id="Ghost Logo Setup 2" transform="matrix(1.95837,0,0,1.71451,-528.904,-693.025)">
                <g transform="matrix(0.878963,0,0,0.878963,349.995,730.015)">
                    <circle cx="261.541" cy="161.382" r="309.821" style="fill:none;stroke:rgb(224,223,213);stroke-width:18.2px;"/>
                </g>
                <g transform="matrix(0.637724,0,0,0.637724,253.392,409.962)">
                    <path d="M616.343,554C615.474,554.026 614.1,554.121 613.528,554.421C613.082,554.655 612.635,555.382 612.915,555.801C613.221,556.261 614.497,556.833 615.369,557.182C616.264,557.54 617.292,557.784 618.283,557.949C619.357,558.128 620.891,558.102 621.811,558.256C622.497,558.37 623.345,558.588 623.805,558.869C624.181,559.098 624.143,559.849 624.572,559.943C625.621,560.173 628.867,560.071 630.095,560.25C630.752,560.346 631.475,560.684 631.935,561.017C632.35,561.316 632.445,561.939 632.856,562.244C633.546,562.755 635.078,563.356 636.077,564.084C637.304,564.979 638.991,566.59 640.218,567.612C641.28,568.497 642.533,569.178 643.44,570.22C645.996,573.16 652.336,580.446 655.558,585.252C658.448,589.565 660.773,594.839 662.767,599.058C664.54,602.809 666.002,606.701 667.522,610.562C669.133,614.653 671.229,620.507 672.431,623.6C673.153,625.459 674.016,627.282 674.732,629.122C675.441,630.946 676.095,632.792 676.726,634.645C677.953,638.249 680.703,645.265 682.094,650.751C683.833,657.602 686.603,667.268 687.156,675.754C688.077,689.866 687.821,725.248 687.616,735.423C687.602,736.149 686.284,736.169 685.929,736.803C685.571,737.443 685.503,738.426 685.469,739.258C685.367,741.738 685.374,747.541 685.316,751.682C685.239,757.102 685.034,766.434 685.009,771.777C684.99,775.765 685.539,779.771 685.162,783.741C684.728,788.317 682.938,795.527 682.401,799.234C682.078,801.466 682.041,803.73 681.941,805.983C681.762,810.022 681.685,819.124 681.327,823.47C681.089,826.369 680.202,829.375 679.793,832.06C679.413,834.555 679.276,837.084 678.873,839.576C678.464,842.107 677.864,844.692 677.339,847.245C676.777,849.981 675.652,853.228 675.498,855.989C675.353,858.61 676.512,861.188 676.419,863.812C676.317,866.701 675.396,870.638 674.885,873.322C674.463,875.539 673.837,877.975 673.351,879.918C672.927,881.615 672.519,883.319 671.97,884.98C671.025,887.843 668.383,892.871 667.675,897.098C666.678,903.054 666.627,916.553 665.988,920.72C665.859,921.561 664.024,921.269 663.841,922.101C662.997,925.935 661.565,938.718 660.926,943.729C660.568,946.535 660.568,949.455 660.006,952.165C659.451,954.841 658.733,957.524 657.552,959.988C651.876,971.825 628.254,1022.88 625.953,1023.19C623.652,1023.49 623.959,1031.55 623.192,1034.38C622.66,1036.35 622.195,1038.36 621.351,1040.21C619.92,1043.36 616.519,1049.24 614.602,1053.25C612.874,1056.87 611.853,1060.83 609.847,1064.3C607.29,1068.72 602.382,1075.95 599.263,1079.79C596.934,1082.65 593.542,1084.51 591.133,1087.3C587.477,1091.55 582.071,1099.38 577.328,1105.25C572.164,1111.64 565.235,1119.64 560.148,1125.65C555.718,1130.88 550.535,1137.03 546.803,1141.3C543.849,1144.68 541.134,1148.32 537.753,1151.27C533.125,1155.31 523.283,1162.36 519.039,1165.53C516.834,1167.18 514.693,1169.42 512.29,1170.29C509.887,1171.16 506.921,1169.85 504.62,1170.75C502.319,1171.64 499.891,1174.81 498.484,1175.66C497.825,1176.05 496.567,1175.35 496.184,1175.81C495.8,1176.27 496.876,1177.89 496.184,1178.42C494.905,1179.39 489.895,1180.69 488.514,1181.64C487.818,1182.12 488.335,1183.66 487.9,1184.09C487.466,1184.53 486.469,1183.91 485.906,1184.25C485.344,1184.58 485.152,1185.64 484.526,1186.09C483.657,1186.7 481.893,1187.6 480.691,1187.93C479.606,1188.23 478.195,1187.38 477.316,1188.08C474.734,1190.15 467.372,1197.49 465.198,1200.35C464.192,1201.68 465.198,1204.11 464.278,1205.26C463.358,1206.41 460.827,1206.41 459.676,1207.26C458.646,1208.01 458.631,1210.08 457.375,1210.32C454.18,1210.94 443.417,1210.09 440.502,1210.94C439.065,1211.35 440.119,1214.18 439.889,1215.39C439.709,1216.32 439.735,1217.53 439.122,1218.15C438.508,1218.76 436.985,1218.41 436.207,1219.07C435.21,1219.91 434.086,1222.21 433.14,1223.21C432.407,1223.98 431.549,1224.74 430.532,1225.05C428.538,1225.66 423.604,1226.79 421.175,1226.89C419.391,1226.96 417.57,1226.23 415.96,1225.66C414.405,1225.12 412.875,1224.44 411.511,1223.52C409.696,1222.29 406.782,1219.96 405.069,1218.3C403.607,1216.88 402.436,1215.18 401.234,1213.55C400.034,1211.91 398.921,1210.21 397.86,1208.48C396.76,1206.69 395.868,1204.6 394.638,1202.81C393.079,1200.53 390.19,1197.11 388.503,1194.83C387.125,1192.97 385.256,1190.82 384.514,1189.16C383.928,1187.84 384.668,1186.06 384.054,1184.86C383.441,1183.66 381.908,1182.92 380.833,1181.95C377.944,1179.34 370.581,1173.31 366.721,1169.21C363.317,1165.61 359.972,1160.42 357.671,1157.4C356.077,1155.31 353.913,1153.18 352.916,1151.11C352.011,1149.24 352.2,1146.18 351.689,1144.98C351.41,1144.33 350.269,1144.48 349.848,1143.9C348.774,1142.45 346.418,1138.98 345.246,1136.24C343.968,1133.24 343.457,1129.28 342.178,1125.96C340.9,1122.63 338.522,1118.6 337.577,1116.29C337.034,1114.98 336.547,1113.58 336.503,1112.15C336.273,1104.79 335.94,1079.15 336.196,1072.12C336.23,1071.17 337.759,1070.87 338.037,1069.97C338.446,1068.64 338.397,1066.08 338.65,1064.14C338.932,1061.99 338.999,1059.35 339.724,1057.09C340.542,1054.53 342.536,1050.59 343.559,1048.8C344.115,1047.83 345.366,1047.35 345.86,1046.35C346.55,1044.94 346.829,1042.26 347.7,1040.37C348.723,1038.14 350.445,1035.38 351.995,1033C353.759,1030.29 356.067,1026.98 358.284,1024.11C361.557,1019.86 366.958,1012.88 371.63,1007.54C376.308,1002.2 382.52,996.265 386.355,992.047C389.235,988.879 392.67,984.429 394.638,982.23C395.724,981.018 397.706,980.417 398.166,978.856C398.882,976.427 398.703,970.777 398.933,967.658C399.118,965.151 398.984,961.497 399.547,960.142C399.908,959.271 401.893,960.375 402.308,959.528C402.973,958.173 403.099,954.513 403.535,952.012C404.021,949.225 404.778,945.896 405.222,942.808C405.785,938.897 406.475,932.378 406.91,928.543C407.24,925.631 407.83,922.73 407.83,919.8C407.83,912.718 407.6,893.314 406.91,886.054C406.584,882.625 404.609,878.665 403.688,876.236C403.064,874.59 401.964,873.145 401.388,871.481C400.723,869.564 400.544,866.01 399.7,864.732C399.058,863.759 396.823,864.866 396.326,863.812C395.686,862.457 396.147,858.852 395.865,856.602C395.6,854.483 395.009,852.417 394.638,850.313C394.255,848.14 393.744,845.251 393.565,843.564C393.446,842.445 393.871,840.88 393.565,840.189C393.295,839.582 391.962,840.043 391.724,839.422C391.213,838.093 390.829,834.386 390.497,832.213C390.2,830.276 389.777,828.343 389.73,826.384C389.602,821.092 389.73,806.136 389.73,800.461C389.73,797.751 389.474,793.737 389.73,792.331C389.823,791.818 391.246,792.546 391.264,792.024C391.443,786.656 390.957,766.894 390.803,760.119C390.737,757.201 390.701,753.089 390.343,751.376C390.188,750.632 388.92,750.555 388.656,749.842C388.221,748.666 388.169,746.135 387.736,744.32C387.199,742.07 386.048,737.724 385.435,736.343C385.243,735.912 384.19,736.488 384.054,736.036C383.645,734.682 383.441,729.671 382.981,728.214C382.788,727.603 381.412,727.923 381.293,727.293C381.038,725.938 381.677,721.413 381.447,720.084C381.349,719.52 380.226,719.795 379.913,719.317C378.89,717.757 376.128,713.871 375.311,710.727C374.314,706.892 374.672,700.066 373.93,696.308C373.37,693.466 371.681,690.811 370.863,688.178C370.083,685.668 369.124,683.136 369.022,680.509C368.69,671.944 368.664,644.794 368.868,636.792C368.907,635.289 369.964,633.974 370.249,632.497C370.658,630.375 370.888,626.668 371.323,624.061C371.727,621.637 372.166,618.334 372.857,616.851C373.294,615.913 375.16,616.153 375.464,615.164C375.873,613.834 374.838,610.918 375.311,608.875C375.797,606.778 377.259,604.632 378.379,602.586C380.296,599.083 383.747,592.181 386.815,587.86C389.709,583.785 393.258,579.935 396.786,576.663C400.212,573.484 405.989,570.143 407.983,568.226C408.743,567.495 408.118,566.001 408.75,565.158C409.824,563.726 412.58,561.523 414.426,559.636C416.727,557.284 419.846,553.347 422.556,551.046C425.01,548.962 428.308,547.237 430.685,545.831C432.674,544.655 434.75,543.53 436.821,542.61C438.861,541.703 441.269,540.846 443.11,540.309C444.66,539.857 446.408,539.874 447.865,539.388C449.275,538.918 450.45,537.885 451.853,537.394C454.487,536.474 460.162,534.966 463.665,533.866C466.75,532.898 471.053,531.463 472.868,530.798C473.47,530.578 474.311,530.47 474.555,529.878C474.913,529.009 474.837,526.708 475.016,525.583C475.148,524.75 475.132,523.81 475.629,523.129C476.319,522.183 478.445,521.332 479.157,519.908C479.95,518.323 480.129,514.973 480.384,513.619C480.5,513.007 480.331,512.285 480.691,511.778C481.126,511.164 482.232,510.56 482.992,509.937C484.27,508.889 486.724,506.869 488.361,505.489C489.857,504.226 491.283,502.88 492.809,501.654C494.368,500.401 496.516,498.995 497.718,497.973C498.571,497.246 499.696,496.592 500.018,495.518C500.479,493.984 500.163,491.002 500.479,488.769C500.836,486.238 501.706,482.608 502.166,480.333C502.518,478.593 503.16,476.89 503.24,475.117C503.419,471.155 503.01,460.954 503.24,456.557C503.378,453.912 504.348,451.368 504.62,448.734C505.029,444.771 505.464,437.051 505.694,432.781C505.867,429.563 505.902,426.339 506.001,423.117C506.18,417.289 506.64,405.298 506.768,397.808C506.879,391.264 506.844,384.718 506.768,378.174C506.691,371.629 506.231,362.886 506.307,358.54C506.346,356.371 507.017,354.256 507.228,352.097C507.843,345.808 509.259,328.782 510,320.805C510.514,315.279 511.466,309.785 511.676,304.239C512.083,293.501 512.722,265.354 512.443,256.381C512.376,254.228 510.407,251.907 510,250.398C509.733,249.411 510,248.353 510,247.331C510,245.336 509.695,240.581 510,238.434C510.206,236.986 511.067,235.694 511.83,234.446C512.595,233.193 513.951,232.145 514.591,230.918C515.204,229.74 514.974,227.978 515.664,227.083C516.355,226.188 517.866,226.295 518.732,225.549C519.653,224.756 519.93,222.822 521.186,222.328C522.746,221.714 525.785,221.961 528.089,221.868C530.62,221.765 533.867,221.663 536.372,221.714C538.627,221.76 541.741,221.816 543.121,222.174C543.857,222.365 544.307,223.186 544.655,223.862C545.09,224.705 545.473,226.265 545.729,227.236C545.941,228.041 546.08,228.865 546.189,229.691C546.368,231.045 546.754,233.464 546.803,235.366C546.88,238.357 546.88,245.055 546.649,247.637C546.547,248.782 545.497,249.712 545.422,250.859C545.218,254.003 545.627,263.36 545.422,266.505C545.348,267.651 544.262,268.579 544.195,269.726C543.991,273.254 544.349,282.048 544.195,287.673C544.051,292.946 543.582,299.484 543.275,303.472C543.066,306.191 542.407,308.875 542.354,311.602C542.278,315.615 542.84,323.387 542.815,327.554C542.796,330.578 542.248,333.581 542.201,336.605C542.099,343.251 542.176,360.176 542.201,367.436C542.216,371.68 542.124,376.154 542.354,380.168C542.572,383.967 543.224,387.914 543.582,391.519C543.921,394.941 544.23,398.367 544.502,401.796C544.834,405.989 545.218,413.377 545.576,416.675C545.756,418.34 546.515,419.914 546.649,421.584C546.982,425.7 546.982,436.693 547.57,441.371C547.931,444.243 549.558,446.827 550.177,449.654C550.944,453.157 551.532,458.398 552.172,462.386C552.77,466.121 553.169,470.055 554.012,473.583C554.825,476.98 556.467,480.972 557.233,483.554C557.774,485.373 558.205,487.644 558.614,489.076C558.912,490.118 559.406,491.098 559.688,492.144C560.046,493.473 560.455,495.672 560.761,497.052C561.012,498.178 561.145,499.558 561.528,500.427C561.851,501.158 562.594,501.621 563.062,502.268C563.599,503.009 564.034,504.287 564.75,504.875C565.462,505.46 566.49,505.484 567.357,505.796C568.354,506.153 569.601,506.632 570.732,507.023C572.138,507.508 574.413,508.045 575.794,508.71C576.983,509.282 577.967,510.423 579.015,511.011C579.976,511.55 581.221,511.553 582.083,512.238C583.08,513.031 583.991,514.62 584.997,515.766C586.097,517.019 587.631,518.783 588.679,519.754C589.459,520.477 590.782,520.658 591.286,521.595C591.823,522.592 591.878,524.341 591.9,525.736C591.926,527.373 591.568,529.725 591.44,531.412C591.328,532.894 590.571,535.017 591.133,535.86C591.695,536.704 593.665,535.997 594.814,536.474C596.169,537.036 597.726,538.408 599.263,539.235C600.925,540.13 602.931,541.002 604.785,541.843C606.702,542.712 609.003,543.786 610.767,544.45C612.266,545.015 614.04,545.473 615.369,545.831C616.483,546.131 617.849,546.138 618.744,546.598C619.579,547.028 620.337,547.741 620.738,548.592C621.147,549.461 621.121,550.867 621.198,551.813C621.264,552.628 621.607,553.858 621.198,554.267C620.789,554.676 619.553,554.312 618.744,554.267C617.94,554.223 617.148,553.976 616.343,554Z" style="fill:rgb(232,233,235);stroke:rgb(224,223,213);stroke-width:25.09px;"/>
                </g>
            </g>
        </g>
    </g>
</svg>
