<?xml version="1.0" encoding="UTF-8" standalone="no"?>
<!DOCTYPE svg PUBLIC "-//W3C//DTD SVG 1.1//EN" "http://www.w3.org/Graphics/SVG/1.1/DTD/svg11.dtd">
<svg width="100%" height="100%" viewBox="0 0 699 440" version="1.1" xmlns="http://www.w3.org/2000/svg" xmlns:xlink="http://www.w3.org/1999/xlink" xml:space="preserve" xmlns:serif="http://www.serif.com/" style="fill-rule:evenodd;clip-rule:evenodd;stroke-linejoin:round;stroke-miterlimit:2;">
    <g id="Artboard1" transform="matrix(1.04292,0,0,0.801942,-206.171,-121.168)">
        <rect x="197.687" y="151.094" width="669.435" height="547.98" style="fill:none;"/>
        <g transform="matrix(0.958851,0,0,1.24697,-892.017,249.377)">
            <g transform="matrix(284.195,0,0,284.195,1140.11,252.453)">
                <path d="M0.453,0.249C0.46,0.222 0.476,0.185 0.5,0.138C0.519,0.099 0.533,0.069 0.541,0.047C0.544,0.042 0.546,0.037 0.549,0.034C0.551,0.031 0.555,0.026 0.562,0.021C0.569,0.014 0.574,0.005 0.579,-0.006C0.583,-0.016 0.587,-0.028 0.591,-0.042C0.592,-0.047 0.593,-0.05 0.594,-0.051C0.597,-0.06 0.6,-0.069 0.601,-0.076C0.602,-0.083 0.602,-0.093 0.602,-0.106C0.601,-0.115 0.6,-0.122 0.599,-0.127C0.596,-0.147 0.595,-0.162 0.595,-0.172C0.595,-0.18 0.594,-0.186 0.591,-0.189C0.588,-0.192 0.583,-0.196 0.575,-0.201C0.57,-0.204 0.567,-0.206 0.564,-0.208C0.547,-0.221 0.529,-0.228 0.508,-0.228C0.485,-0.228 0.456,-0.22 0.423,-0.203C0.407,-0.195 0.388,-0.186 0.365,-0.174C0.342,-0.164 0.318,-0.152 0.293,-0.14C0.267,-0.127 0.246,-0.117 0.231,-0.111C0.216,-0.103 0.206,-0.099 0.202,-0.098C0.194,-0.094 0.185,-0.091 0.174,-0.09C0.164,-0.088 0.154,-0.087 0.144,-0.087C0.13,-0.087 0.121,-0.088 0.116,-0.09C0.113,-0.093 0.112,-0.097 0.112,-0.104C0.112,-0.107 0.112,-0.114 0.113,-0.123L0.114,-0.13C0.115,-0.133 0.115,-0.135 0.115,-0.136C0.116,-0.148 0.118,-0.157 0.119,-0.164C0.121,-0.171 0.124,-0.178 0.128,-0.186C0.132,-0.194 0.139,-0.204 0.148,-0.218C0.157,-0.231 0.168,-0.247 0.183,-0.267C0.188,-0.273 0.196,-0.282 0.206,-0.294C0.244,-0.338 0.276,-0.373 0.302,-0.399C0.327,-0.425 0.357,-0.449 0.39,-0.47C0.393,-0.472 0.398,-0.477 0.405,-0.485C0.411,-0.492 0.419,-0.502 0.428,-0.514C0.438,-0.527 0.444,-0.535 0.446,-0.537C0.459,-0.548 0.474,-0.561 0.489,-0.574C0.502,-0.585 0.511,-0.592 0.516,-0.595C0.52,-0.598 0.525,-0.601 0.532,-0.602C0.538,-0.603 0.558,-0.615 0.592,-0.638C0.621,-0.656 0.645,-0.671 0.664,-0.684C0.675,-0.691 0.685,-0.695 0.694,-0.695L0.7,-0.695C0.703,-0.694 0.705,-0.694 0.707,-0.694C0.721,-0.693 0.728,-0.686 0.728,-0.673C0.728,-0.663 0.722,-0.652 0.709,-0.639C0.704,-0.634 0.694,-0.627 0.68,-0.617C0.665,-0.607 0.654,-0.6 0.647,-0.596C0.64,-0.593 0.634,-0.589 0.63,-0.585C0.626,-0.58 0.619,-0.571 0.609,-0.558C0.601,-0.547 0.594,-0.537 0.588,-0.529C0.602,-0.514 0.612,-0.507 0.619,-0.507C0.625,-0.507 0.633,-0.51 0.644,-0.516C0.649,-0.519 0.659,-0.527 0.674,-0.538C0.687,-0.549 0.698,-0.557 0.707,-0.563C0.717,-0.57 0.724,-0.575 0.727,-0.578C0.749,-0.594 0.768,-0.609 0.784,-0.622C0.799,-0.634 0.815,-0.65 0.83,-0.669C0.833,-0.672 0.836,-0.678 0.841,-0.687C0.846,-0.695 0.851,-0.704 0.856,-0.714C0.861,-0.724 0.865,-0.734 0.869,-0.743C0.872,-0.751 0.874,-0.758 0.874,-0.763C0.874,-0.77 0.87,-0.778 0.862,-0.787C0.853,-0.795 0.842,-0.799 0.829,-0.8C0.828,-0.8 0.823,-0.8 0.815,-0.801L0.801,-0.801C0.785,-0.801 0.776,-0.799 0.773,-0.795C0.77,-0.792 0.765,-0.791 0.757,-0.791L0.747,-0.791C0.742,-0.792 0.739,-0.792 0.737,-0.792C0.732,-0.792 0.728,-0.791 0.725,-0.79C0.698,-0.775 0.672,-0.76 0.649,-0.748C0.626,-0.735 0.606,-0.723 0.589,-0.714C0.572,-0.704 0.557,-0.695 0.543,-0.686C0.529,-0.677 0.52,-0.671 0.515,-0.668C0.504,-0.661 0.49,-0.65 0.472,-0.636C0.455,-0.622 0.439,-0.609 0.425,-0.598C0.411,-0.586 0.396,-0.573 0.38,-0.559C0.363,-0.545 0.353,-0.536 0.348,-0.532C0.343,-0.527 0.337,-0.52 0.33,-0.513C0.323,-0.506 0.314,-0.497 0.304,-0.486C0.295,-0.476 0.29,-0.47 0.287,-0.467L0.138,-0.311C0.099,-0.269 0.069,-0.225 0.046,-0.179C0.023,-0.132 0.011,-0.093 0.011,-0.06C0.011,-0.04 0.011,-0.027 0.012,-0.022C0.012,-0.017 0.012,-0.013 0.013,-0.012C0.016,-0.006 0.021,0 0.027,0.007C0.033,0.014 0.038,0.018 0.041,0.018C0.043,0.018 0.045,0.017 0.048,0.015C0.053,0.012 0.057,0.011 0.061,0.011C0.066,0.011 0.073,0.013 0.081,0.016L0.083,0.017C0.09,0.018 0.096,0.019 0.1,0.019C0.105,0.019 0.11,0.018 0.115,0.015C0.116,0.014 0.118,0.012 0.12,0.01C0.123,0.006 0.126,0.003 0.129,0.002C0.152,-0.005 0.174,-0.014 0.196,-0.023C0.217,-0.032 0.241,-0.045 0.27,-0.06C0.274,-0.061 0.28,-0.063 0.287,-0.065C0.297,-0.068 0.307,-0.071 0.316,-0.075C0.325,-0.079 0.336,-0.086 0.35,-0.096C0.356,-0.1 0.367,-0.104 0.382,-0.108C0.402,-0.114 0.417,-0.12 0.427,-0.126C0.435,-0.131 0.444,-0.134 0.453,-0.134C0.463,-0.134 0.47,-0.131 0.474,-0.125L0.48,-0.111L0.48,-0.1C0.481,-0.097 0.481,-0.093 0.481,-0.09C0.481,-0.046 0.473,-0.003 0.458,0.038C0.443,0.08 0.419,0.132 0.387,0.195C0.38,0.209 0.374,0.221 0.369,0.231C0.368,0.234 0.367,0.238 0.367,0.242C0.367,0.246 0.368,0.252 0.369,0.261C0.372,0.275 0.373,0.287 0.373,0.296C0.373,0.298 0.373,0.3 0.372,0.302L0.372,0.31C0.376,0.319 0.38,0.323 0.383,0.324C0.388,0.325 0.392,0.326 0.396,0.328C0.401,0.331 0.407,0.332 0.413,0.332C0.42,0.332 0.426,0.331 0.431,0.329C0.435,0.328 0.439,0.325 0.444,0.32C0.448,0.317 0.451,0.313 0.453,0.307C0.454,0.301 0.455,0.294 0.455,0.285C0.455,0.279 0.455,0.271 0.454,0.262C0.453,0.256 0.453,0.252 0.453,0.249Z" style="fill:rgb(224,223,213);fill-rule:nonzero;"/>
            </g>
            <g transform="matrix(284.195,0,0,284.195,1327.68,252.453)">
                <path d="M0.473,-0.833C0.477,-0.843 0.484,-0.858 0.494,-0.877C0.504,-0.897 0.516,-0.92 0.529,-0.946C0.546,-0.981 0.559,-1.006 0.567,-1.021C0.575,-1.036 0.58,-1.048 0.583,-1.056C0.589,-1.046 0.594,-1.036 0.597,-1.026C0.6,-1.016 0.602,-1.006 0.603,-0.995C0.608,-1.009 0.611,-1.021 0.612,-1.032C0.613,-1.043 0.614,-1.063 0.614,-1.093C0.614,-1.109 0.606,-1.117 0.59,-1.117L0.583,-1.117C0.572,-1.117 0.564,-1.115 0.557,-1.111C0.55,-1.106 0.541,-1.095 0.532,-1.078L0.493,-0.999C0.482,-0.978 0.475,-0.963 0.47,-0.954C0.465,-0.945 0.462,-0.939 0.461,-0.936C0.46,-0.933 0.457,-0.928 0.454,-0.921C0.45,-0.914 0.442,-0.901 0.431,-0.881C0.413,-0.844 0.393,-0.806 0.37,-0.767C0.347,-0.727 0.317,-0.676 0.28,-0.613C0.241,-0.549 0.209,-0.495 0.184,-0.45C0.158,-0.405 0.133,-0.357 0.108,-0.308C0.083,-0.259 0.062,-0.209 0.043,-0.159C0.025,-0.108 0.012,-0.06 0.003,-0.013C0.003,-0.012 0.003,-0.011 0.002,-0.01L0.002,-0.008C0.002,-0.006 0.003,-0.003 0.004,-0C0.005,0.003 0.005,0.004 0.005,0.005C0.013,0 0.026,-0.004 0.045,-0.007C0.057,-0.01 0.065,-0.012 0.068,-0.014C0.088,-0.026 0.106,-0.039 0.122,-0.054C0.137,-0.068 0.155,-0.086 0.176,-0.108C0.21,-0.143 0.238,-0.169 0.26,-0.186C0.263,-0.188 0.272,-0.199 0.289,-0.22C0.313,-0.25 0.334,-0.275 0.352,-0.295C0.369,-0.315 0.385,-0.329 0.4,-0.338C0.388,-0.311 0.37,-0.279 0.346,-0.242C0.334,-0.222 0.327,-0.21 0.326,-0.205C0.324,-0.199 0.32,-0.19 0.314,-0.178C0.307,-0.163 0.301,-0.151 0.298,-0.14C0.287,-0.103 0.282,-0.075 0.282,-0.056C0.282,-0.043 0.285,-0.027 0.29,-0.01C0.295,0.003 0.305,0.012 0.318,0.017C0.331,0.022 0.345,0.025 0.36,0.025C0.372,0.025 0.382,0.024 0.391,0.021C0.399,0.019 0.407,0.015 0.415,0.01C0.423,0.005 0.429,-0.001 0.433,-0.01C0.45,-0.018 0.464,-0.028 0.477,-0.041C0.49,-0.053 0.496,-0.062 0.496,-0.068C0.496,-0.071 0.493,-0.072 0.488,-0.072C0.449,-0.059 0.42,-0.053 0.401,-0.053C0.388,-0.053 0.379,-0.056 0.376,-0.062C0.372,-0.068 0.37,-0.077 0.369,-0.09L0.368,-0.098C0.368,-0.108 0.369,-0.118 0.371,-0.128C0.373,-0.138 0.377,-0.151 0.383,-0.167C0.389,-0.182 0.398,-0.203 0.411,-0.228C0.424,-0.253 0.44,-0.283 0.46,-0.319C0.471,-0.339 0.481,-0.36 0.49,-0.383C0.499,-0.406 0.505,-0.426 0.51,-0.443C0.498,-0.434 0.486,-0.43 0.475,-0.43C0.47,-0.43 0.464,-0.431 0.457,-0.433C0.454,-0.433 0.451,-0.434 0.447,-0.435C0.444,-0.436 0.442,-0.436 0.441,-0.436C0.436,-0.436 0.43,-0.433 0.423,-0.426C0.415,-0.421 0.404,-0.412 0.39,-0.399C0.376,-0.386 0.362,-0.374 0.349,-0.361C0.336,-0.348 0.324,-0.337 0.314,-0.326C0.303,-0.315 0.297,-0.308 0.295,-0.305C0.282,-0.285 0.268,-0.267 0.253,-0.251C0.237,-0.235 0.213,-0.212 0.18,-0.183C0.142,-0.148 0.111,-0.119 0.086,-0.096C0.101,-0.143 0.122,-0.193 0.149,-0.245C0.175,-0.297 0.208,-0.355 0.246,-0.418L0.44,-0.755L0.473,-0.833Z" style="fill:rgb(224,223,213);fill-rule:nonzero;"/>
            </g>
            <g transform="matrix(284.195,0,0,284.195,1457.84,252.453)">
                <path d="M0.296,-0.158C0.301,-0.163 0.309,-0.171 0.318,-0.181C0.327,-0.19 0.34,-0.204 0.357,-0.222C0.371,-0.237 0.379,-0.245 0.381,-0.247C0.394,-0.258 0.404,-0.271 0.412,-0.284C0.42,-0.297 0.431,-0.322 0.445,-0.358C0.453,-0.377 0.459,-0.394 0.464,-0.408C0.468,-0.424 0.47,-0.439 0.47,-0.455C0.47,-0.466 0.467,-0.474 0.461,-0.48C0.454,-0.486 0.446,-0.489 0.435,-0.489C0.429,-0.489 0.423,-0.488 0.417,-0.486C0.409,-0.483 0.395,-0.479 0.375,-0.473C0.35,-0.466 0.331,-0.46 0.32,-0.456C0.308,-0.451 0.299,-0.445 0.293,-0.438C0.284,-0.428 0.277,-0.42 0.272,-0.413C0.267,-0.407 0.262,-0.4 0.259,-0.393L0.259,-0.404C0.259,-0.419 0.258,-0.426 0.255,-0.426C0.254,-0.426 0.253,-0.425 0.25,-0.422C0.249,-0.421 0.244,-0.42 0.236,-0.419C0.225,-0.418 0.214,-0.415 0.204,-0.412C0.195,-0.409 0.185,-0.401 0.176,-0.39C0.169,-0.381 0.16,-0.372 0.148,-0.362C0.14,-0.355 0.134,-0.348 0.129,-0.343C0.124,-0.338 0.12,-0.33 0.117,-0.321C0.114,-0.313 0.111,-0.304 0.107,-0.295C0.102,-0.285 0.098,-0.276 0.093,-0.268C0.09,-0.264 0.087,-0.254 0.082,-0.237C0.08,-0.228 0.078,-0.221 0.076,-0.216C0.068,-0.191 0.056,-0.156 0.041,-0.112C0.029,-0.077 0.021,-0.054 0.018,-0.043C0.015,-0.032 0.013,-0.023 0.013,-0.017C0.013,-0.016 0.013,-0.014 0.014,-0.011C0.015,-0.009 0.015,-0.007 0.015,-0.006C0.015,-0.005 0.015,-0.003 0.016,-0.002C0.017,0.003 0.018,0.007 0.02,0.009C0.022,0.011 0.027,0.012 0.034,0.012C0.039,0.011 0.045,0.011 0.051,0.01C0.064,0.009 0.073,0.007 0.079,0.005C0.085,0.004 0.09,0.001 0.095,-0.004C0.099,-0.008 0.102,-0.011 0.106,-0.013C0.109,-0.015 0.113,-0.017 0.12,-0.019C0.126,-0.021 0.133,-0.025 0.141,-0.033C0.15,-0.04 0.158,-0.048 0.167,-0.058C0.174,-0.065 0.184,-0.069 0.198,-0.072C0.211,-0.075 0.22,-0.08 0.225,-0.085C0.236,-0.098 0.249,-0.111 0.262,-0.125C0.275,-0.139 0.287,-0.15 0.296,-0.158ZM0.205,-0.138C0.192,-0.126 0.181,-0.117 0.173,-0.111C0.165,-0.104 0.158,-0.099 0.152,-0.096C0.146,-0.092 0.14,-0.089 0.135,-0.086C0.129,-0.084 0.121,-0.081 0.11,-0.078C0.103,-0.077 0.099,-0.076 0.096,-0.076C0.091,-0.076 0.088,-0.077 0.088,-0.08C0.088,-0.082 0.089,-0.085 0.092,-0.09C0.094,-0.093 0.095,-0.096 0.096,-0.097C0.108,-0.12 0.117,-0.137 0.123,-0.149C0.129,-0.161 0.139,-0.181 0.153,-0.208C0.16,-0.223 0.166,-0.236 0.171,-0.245C0.188,-0.282 0.203,-0.309 0.218,-0.326C0.233,-0.343 0.251,-0.352 0.273,-0.353C0.281,-0.354 0.287,-0.356 0.29,-0.359C0.293,-0.362 0.296,-0.367 0.299,-0.374C0.3,-0.376 0.301,-0.378 0.302,-0.381C0.308,-0.392 0.315,-0.4 0.323,-0.403C0.33,-0.406 0.347,-0.407 0.372,-0.407C0.381,-0.407 0.388,-0.405 0.391,-0.402C0.394,-0.399 0.395,-0.392 0.395,-0.381C0.395,-0.374 0.394,-0.365 0.392,-0.356C0.39,-0.347 0.387,-0.339 0.383,-0.332C0.37,-0.307 0.358,-0.287 0.347,-0.271C0.336,-0.255 0.328,-0.246 0.321,-0.244C0.314,-0.242 0.29,-0.221 0.249,-0.181C0.236,-0.169 0.222,-0.155 0.205,-0.138Z" style="fill:rgb(224,223,213);fill-rule:nonzero;"/>
            </g>
            <g transform="matrix(284.195,0,0,284.195,1569.25,252.453)">
                <path d="M0.266,-0.081C0.266,-0.086 0.265,-0.092 0.263,-0.101C0.262,-0.108 0.261,-0.113 0.261,-0.116C0.261,-0.125 0.26,-0.132 0.259,-0.138C0.257,-0.144 0.253,-0.151 0.248,-0.16C0.242,-0.169 0.238,-0.175 0.236,-0.179C0.234,-0.183 0.233,-0.186 0.232,-0.189C0.231,-0.194 0.228,-0.199 0.224,-0.204C0.213,-0.219 0.207,-0.231 0.204,-0.239C0.201,-0.248 0.2,-0.259 0.2,-0.272C0.201,-0.289 0.202,-0.301 0.204,-0.308C0.206,-0.315 0.209,-0.321 0.213,-0.327C0.216,-0.332 0.219,-0.338 0.22,-0.343C0.223,-0.354 0.229,-0.364 0.238,-0.373C0.247,-0.381 0.26,-0.389 0.278,-0.398C0.283,-0.4 0.29,-0.403 0.297,-0.406C0.308,-0.411 0.316,-0.413 0.321,-0.414C0.33,-0.414 0.336,-0.411 0.341,-0.406C0.345,-0.402 0.347,-0.396 0.347,-0.389C0.347,-0.384 0.346,-0.38 0.344,-0.377C0.341,-0.369 0.335,-0.359 0.327,-0.347C0.318,-0.336 0.308,-0.323 0.297,-0.308C0.288,-0.297 0.283,-0.29 0.282,-0.288C0.285,-0.281 0.289,-0.278 0.292,-0.278C0.293,-0.278 0.296,-0.279 0.3,-0.281C0.303,-0.282 0.305,-0.283 0.306,-0.284C0.315,-0.292 0.325,-0.302 0.336,-0.315C0.347,-0.328 0.358,-0.341 0.369,-0.356C0.38,-0.371 0.39,-0.384 0.399,-0.396C0.407,-0.407 0.413,-0.416 0.416,-0.423C0.421,-0.432 0.423,-0.44 0.423,-0.447C0.423,-0.456 0.42,-0.462 0.414,-0.467C0.405,-0.473 0.393,-0.476 0.378,-0.476C0.354,-0.476 0.328,-0.469 0.299,-0.455C0.288,-0.45 0.276,-0.442 0.262,-0.433C0.248,-0.424 0.234,-0.413 0.221,-0.402C0.207,-0.391 0.195,-0.379 0.184,-0.366C0.172,-0.353 0.164,-0.341 0.159,-0.329C0.159,-0.328 0.157,-0.323 0.152,-0.314C0.145,-0.299 0.14,-0.285 0.137,-0.275C0.133,-0.264 0.131,-0.251 0.131,-0.237C0.131,-0.224 0.134,-0.209 0.139,-0.191C0.144,-0.172 0.153,-0.154 0.164,-0.137C0.171,-0.127 0.177,-0.119 0.18,-0.113C0.183,-0.106 0.185,-0.099 0.188,-0.09C0.189,-0.083 0.19,-0.079 0.191,-0.078C0.194,-0.073 0.195,-0.068 0.195,-0.065C0.195,-0.057 0.187,-0.053 0.17,-0.053C0.161,-0.053 0.151,-0.054 0.138,-0.057C0.125,-0.059 0.113,-0.061 0.102,-0.064C0.09,-0.067 0.078,-0.07 0.066,-0.074C0.054,-0.077 0.045,-0.08 0.039,-0.083C0.036,-0.094 0.032,-0.1 0.026,-0.1L0.023,-0.1C0.022,-0.099 0.021,-0.099 0.021,-0.099C0.011,-0.093 0.004,-0.088 0.001,-0.084C-0.003,-0.08 -0.006,-0.075 -0.009,-0.068C-0.023,-0.065 -0.034,-0.059 -0.041,-0.051C-0.049,-0.044 -0.053,-0.037 -0.053,-0.032C-0.053,-0.027 -0.05,-0.023 -0.045,-0.02C-0.04,-0.017 -0.035,-0.015 -0.03,-0.014C-0.015,-0.009 0.004,-0.003 0.027,0.002C0.05,0.007 0.069,0.01 0.086,0.011C0.101,0.011 0.119,0.009 0.138,0.006C0.157,0.003 0.174,-0.001 0.188,-0.005C0.197,-0.008 0.205,-0.013 0.215,-0.02C0.224,-0.027 0.232,-0.034 0.239,-0.043C0.247,-0.052 0.254,-0.059 0.259,-0.067C0.264,-0.074 0.266,-0.078 0.266,-0.081Z" style="fill:rgb(224,223,213);fill-rule:nonzero;"/>
            </g>
            <g transform="matrix(284.195,0,0,284.195,1660.19,252.453)">
                <path d="M0.175,-0.36C0.14,-0.303 0.112,-0.259 0.093,-0.226C0.073,-0.193 0.059,-0.168 0.05,-0.151C0.041,-0.134 0.035,-0.121 0.033,-0.114C0.03,-0.106 0.028,-0.097 0.027,-0.088C0.026,-0.083 0.026,-0.079 0.025,-0.075C0.024,-0.066 0.023,-0.058 0.023,-0.051C0.023,-0.037 0.026,-0.024 0.033,-0.011C0.037,-0.003 0.042,0.001 0.048,0.001C0.055,0.001 0.065,-0.003 0.078,-0.011C0.09,-0.011 0.104,-0.017 0.119,-0.029C0.134,-0.042 0.142,-0.059 0.142,-0.081L0.142,-0.087C0.141,-0.09 0.141,-0.092 0.141,-0.093C0.136,-0.083 0.131,-0.078 0.124,-0.078C0.117,-0.078 0.114,-0.082 0.114,-0.089C0.12,-0.11 0.127,-0.131 0.135,-0.152C0.143,-0.172 0.153,-0.194 0.165,-0.217C0.176,-0.239 0.191,-0.263 0.207,-0.289C0.225,-0.315 0.245,-0.344 0.268,-0.375C0.355,-0.386 0.414,-0.393 0.448,-0.398C0.481,-0.403 0.5,-0.407 0.506,-0.41C0.512,-0.413 0.52,-0.415 0.53,-0.418C0.54,-0.421 0.548,-0.424 0.554,-0.428C0.559,-0.431 0.564,-0.438 0.569,-0.447C0.574,-0.451 0.578,-0.456 0.583,-0.463C0.588,-0.47 0.59,-0.475 0.59,-0.478C0.59,-0.48 0.589,-0.481 0.586,-0.481C0.583,-0.481 0.577,-0.479 0.568,-0.475C0.563,-0.473 0.558,-0.472 0.553,-0.471C0.547,-0.47 0.538,-0.47 0.525,-0.47C0.515,-0.47 0.494,-0.468 0.463,-0.465C0.413,-0.46 0.371,-0.457 0.338,-0.455C0.333,-0.455 0.327,-0.455 0.32,-0.454C0.317,-0.453 0.315,-0.453 0.314,-0.453C0.313,-0.453 0.313,-0.454 0.312,-0.455C0.312,-0.456 0.316,-0.462 0.324,-0.472C0.329,-0.478 0.333,-0.484 0.338,-0.49C0.36,-0.523 0.38,-0.553 0.397,-0.58C0.414,-0.606 0.435,-0.637 0.458,-0.674C0.488,-0.721 0.506,-0.749 0.513,-0.76C0.524,-0.778 0.529,-0.791 0.529,-0.8C0.529,-0.807 0.526,-0.811 0.519,-0.811C0.512,-0.811 0.506,-0.809 0.5,-0.804C0.491,-0.798 0.484,-0.794 0.479,-0.793C0.474,-0.791 0.468,-0.79 0.463,-0.789C0.458,-0.789 0.455,-0.788 0.453,-0.787C0.449,-0.784 0.441,-0.773 0.43,-0.753C0.419,-0.732 0.411,-0.717 0.404,-0.707C0.374,-0.652 0.348,-0.607 0.325,-0.57C0.302,-0.533 0.275,-0.492 0.242,-0.447C0.232,-0.447 0.217,-0.443 0.197,-0.434C0.183,-0.428 0.174,-0.425 0.169,-0.425L0.168,-0.425C0.159,-0.424 0.152,-0.422 0.146,-0.417C0.14,-0.411 0.132,-0.399 0.121,-0.378C0.117,-0.369 0.115,-0.36 0.115,-0.349C0.115,-0.342 0.116,-0.33 0.118,-0.313C0.127,-0.328 0.137,-0.341 0.15,-0.352C0.162,-0.362 0.171,-0.367 0.176,-0.367C0.177,-0.367 0.178,-0.366 0.178,-0.365C0.178,-0.364 0.177,-0.363 0.175,-0.36Z" style="fill:rgb(224,223,213);fill-rule:nonzero;"/>
            </g>
        </g>
        <g transform="matrix(0.712126,0,0,0.926111,120.066,-182.591)">
            <g transform="matrix(59.4059,0,0,59.4059,310,874)">
                <path d="M0.683,-0.723C0.686,-0.716 0.689,-0.707 0.694,-0.694C0.701,-0.676 0.707,-0.662 0.71,-0.653C0.713,-0.643 0.714,-0.633 0.714,-0.624C0.714,-0.611 0.711,-0.598 0.705,-0.583C0.702,-0.575 0.699,-0.558 0.697,-0.531C0.696,-0.51 0.694,-0.495 0.692,-0.486L0.659,-0.266C0.657,-0.255 0.655,-0.246 0.654,-0.237C0.647,-0.2 0.643,-0.179 0.64,-0.175C0.638,-0.172 0.635,-0.171 0.632,-0.171C0.629,-0.171 0.626,-0.172 0.623,-0.174C0.619,-0.176 0.617,-0.178 0.616,-0.179C0.611,-0.183 0.605,-0.189 0.6,-0.197C0.594,-0.204 0.59,-0.212 0.587,-0.22C0.583,-0.231 0.574,-0.243 0.56,-0.258C0.545,-0.272 0.527,-0.288 0.506,-0.307C0.494,-0.317 0.487,-0.323 0.486,-0.324C0.481,-0.329 0.471,-0.338 0.456,-0.35C0.441,-0.363 0.427,-0.374 0.413,-0.383C0.444,-0.422 0.469,-0.452 0.486,-0.473C0.502,-0.494 0.512,-0.504 0.513,-0.505C0.518,-0.508 0.526,-0.517 0.536,-0.531C0.541,-0.539 0.545,-0.544 0.548,-0.547C0.566,-0.562 0.586,-0.585 0.608,-0.614C0.629,-0.643 0.654,-0.68 0.683,-0.723ZM0.759,-0.437C0.76,-0.442 0.761,-0.458 0.764,-0.485C0.768,-0.524 0.772,-0.553 0.775,-0.574C0.778,-0.595 0.781,-0.608 0.786,-0.614C0.793,-0.621 0.798,-0.628 0.8,-0.633C0.802,-0.639 0.803,-0.647 0.803,-0.656C0.803,-0.661 0.803,-0.668 0.804,-0.679L0.804,-0.706C0.804,-0.724 0.804,-0.74 0.803,-0.755C0.802,-0.77 0.8,-0.781 0.798,-0.788L0.798,-0.79C0.797,-0.796 0.793,-0.801 0.788,-0.804C0.783,-0.808 0.774,-0.814 0.759,-0.821C0.744,-0.828 0.733,-0.831 0.726,-0.832C0.721,-0.832 0.714,-0.828 0.703,-0.82C0.692,-0.811 0.681,-0.801 0.668,-0.789C0.655,-0.776 0.644,-0.764 0.632,-0.752C0.622,-0.74 0.614,-0.73 0.609,-0.723L0.605,-0.718C0.596,-0.706 0.589,-0.697 0.585,-0.691C0.581,-0.684 0.575,-0.674 0.566,-0.659C0.56,-0.649 0.55,-0.635 0.536,-0.616C0.522,-0.597 0.503,-0.574 0.479,-0.546C0.477,-0.544 0.473,-0.538 0.466,-0.529C0.452,-0.51 0.438,-0.491 0.423,-0.473C0.408,-0.455 0.392,-0.437 0.375,-0.42C0.37,-0.424 0.361,-0.431 0.35,-0.44C0.34,-0.449 0.332,-0.455 0.327,-0.459C0.321,-0.463 0.316,-0.465 0.313,-0.466C0.296,-0.471 0.281,-0.473 0.27,-0.473C0.261,-0.473 0.255,-0.472 0.254,-0.469C0.25,-0.464 0.243,-0.458 0.232,-0.451C0.221,-0.444 0.212,-0.439 0.205,-0.438C0.188,-0.433 0.179,-0.425 0.179,-0.416C0.179,-0.413 0.18,-0.409 0.183,-0.406C0.183,-0.395 0.185,-0.387 0.188,-0.38C0.191,-0.373 0.195,-0.37 0.202,-0.37C0.209,-0.37 0.217,-0.371 0.226,-0.372C0.233,-0.373 0.238,-0.374 0.241,-0.374C0.249,-0.374 0.257,-0.371 0.266,-0.366C0.275,-0.361 0.286,-0.35 0.3,-0.335C0.293,-0.326 0.285,-0.315 0.275,-0.302C0.264,-0.289 0.255,-0.277 0.246,-0.267C0.237,-0.257 0.229,-0.247 0.22,-0.237C0.211,-0.227 0.203,-0.219 0.198,-0.214L0.031,-0.049C0.027,-0.045 0.023,-0.038 0.019,-0.029C0.016,-0.022 0.014,-0.016 0.011,-0.013C0.008,-0.01 0.004,-0.008 -0.002,-0.008C-0.011,-0.008 -0.018,-0.005 -0.024,0.001C-0.031,0.007 -0.04,0.018 -0.052,0.035C-0.053,0.037 -0.054,0.038 -0.055,0.039C-0.06,0.046 -0.066,0.057 -0.073,0.074C-0.08,0.091 -0.084,0.1 -0.084,0.102C-0.084,0.102 -0.085,0.103 -0.086,0.105C-0.087,0.108 -0.087,0.11 -0.087,0.111C-0.087,0.112 -0.086,0.113 -0.083,0.113C-0.08,0.113 -0.076,0.112 -0.07,0.111L-0.066,0.111C-0.063,0.111 -0.06,0.112 -0.058,0.114C-0.057,0.117 -0.055,0.118 -0.052,0.118C-0.051,0.118 -0.051,0.118 -0.05,0.118C-0.049,0.117 -0.048,0.117 -0.047,0.117C-0.042,0.113 -0.031,0.107 -0.014,0.099C0.007,0.089 0.019,0.082 0.022,0.077C0.035,0.056 0.05,0.033 0.067,0.01C0.084,-0.013 0.103,-0.036 0.123,-0.059C0.128,-0.065 0.134,-0.073 0.141,-0.082C0.149,-0.091 0.158,-0.1 0.167,-0.11C0.176,-0.12 0.185,-0.129 0.194,-0.138C0.202,-0.147 0.209,-0.154 0.215,-0.159C0.218,-0.163 0.229,-0.174 0.246,-0.192C0.271,-0.217 0.291,-0.237 0.306,-0.254C0.321,-0.27 0.335,-0.286 0.348,-0.302C0.361,-0.296 0.375,-0.286 0.392,-0.272C0.409,-0.258 0.428,-0.241 0.449,-0.22C0.46,-0.21 0.467,-0.204 0.47,-0.201C0.476,-0.196 0.484,-0.187 0.493,-0.173C0.501,-0.161 0.513,-0.143 0.526,-0.121C0.536,-0.106 0.543,-0.095 0.548,-0.089C0.552,-0.082 0.555,-0.079 0.556,-0.078C0.56,-0.077 0.564,-0.073 0.569,-0.068C0.573,-0.063 0.579,-0.054 0.588,-0.041C0.595,-0.029 0.602,-0.02 0.607,-0.015C0.612,-0.009 0.616,-0.006 0.619,-0.006C0.622,-0.006 0.627,-0.008 0.636,-0.013C0.645,-0.018 0.654,-0.023 0.663,-0.029C0.672,-0.036 0.681,-0.042 0.69,-0.049C0.698,-0.056 0.703,-0.061 0.706,-0.066C0.713,-0.076 0.717,-0.092 0.72,-0.115C0.723,-0.138 0.725,-0.167 0.727,-0.202C0.729,-0.227 0.73,-0.241 0.731,-0.246C0.734,-0.256 0.736,-0.269 0.738,-0.283C0.739,-0.299 0.741,-0.319 0.743,-0.346C0.745,-0.374 0.747,-0.397 0.749,-0.414C0.75,-0.417 0.751,-0.421 0.754,-0.425C0.757,-0.43 0.759,-0.434 0.759,-0.437Z" style="fill:rgb(224,223,213);fill-rule:nonzero;"/>
            </g>
            <g transform="matrix(59.4059,0,0,59.4059,357.347,874)">
                <path d="M0.448,-0.315C0.457,-0.33 0.463,-0.342 0.467,-0.35C0.47,-0.36 0.472,-0.368 0.472,-0.375C0.472,-0.383 0.469,-0.394 0.462,-0.407C0.455,-0.419 0.449,-0.425 0.442,-0.425C0.433,-0.425 0.416,-0.413 0.392,-0.39L0.096,-0.116L0.14,-0.188L0.201,-0.287L0.202,-0.289C0.212,-0.303 0.22,-0.315 0.226,-0.324C0.231,-0.333 0.238,-0.345 0.246,-0.361C0.253,-0.376 0.262,-0.395 0.271,-0.418C0.28,-0.441 0.291,-0.469 0.303,-0.503C0.308,-0.515 0.31,-0.523 0.31,-0.528C0.31,-0.534 0.304,-0.54 0.293,-0.546C0.29,-0.547 0.287,-0.548 0.284,-0.548C0.277,-0.548 0.267,-0.543 0.255,-0.534C0.246,-0.527 0.239,-0.522 0.234,-0.521C0.23,-0.52 0.224,-0.516 0.215,-0.509C0.204,-0.501 0.195,-0.496 0.19,-0.494C0.185,-0.493 0.183,-0.488 0.183,-0.479C0.183,-0.469 0.186,-0.455 0.191,-0.437C0.192,-0.432 0.193,-0.425 0.193,-0.415C0.193,-0.396 0.191,-0.381 0.186,-0.372C0.18,-0.358 0.167,-0.334 0.147,-0.299C0.126,-0.264 0.102,-0.226 0.075,-0.185C0.067,-0.173 0.057,-0.157 0.045,-0.136C0.032,-0.115 0.017,-0.09 -0.001,-0.06C-0.016,-0.034 -0.028,-0.014 -0.037,0.001C-0.046,0.016 -0.053,0.026 -0.056,0.03C-0.056,0.03 -0.056,0.031 -0.057,0.032C-0.057,0.033 -0.057,0.033 -0.057,0.033C-0.057,0.037 -0.053,0.04 -0.046,0.042C-0.039,0.045 -0.031,0.046 -0.022,0.046C-0.011,0.046 -0.002,0.044 0.005,0.04C0.011,0.037 0.02,0.029 0.032,0.016C0.043,0.003 0.059,-0.014 0.079,-0.037C0.084,-0.043 0.088,-0.047 0.089,-0.048C0.092,-0.051 0.1,-0.059 0.114,-0.073C0.128,-0.086 0.144,-0.1 0.161,-0.116C0.178,-0.131 0.222,-0.17 0.291,-0.232C0.316,-0.253 0.34,-0.275 0.365,-0.298C0.37,-0.302 0.373,-0.304 0.374,-0.304C0.375,-0.304 0.376,-0.303 0.376,-0.302C0.376,-0.297 0.363,-0.268 0.337,-0.216C0.306,-0.153 0.28,-0.097 0.257,-0.048C0.256,-0.047 0.256,-0.046 0.256,-0.046C0.25,-0.037 0.247,-0.03 0.247,-0.026C0.247,-0.021 0.251,-0.019 0.258,-0.018C0.259,-0.018 0.262,-0.018 0.266,-0.017L0.276,-0.017C0.296,-0.017 0.316,-0.025 0.335,-0.041C0.338,-0.044 0.342,-0.048 0.347,-0.053C0.353,-0.06 0.361,-0.069 0.371,-0.08C0.381,-0.09 0.396,-0.104 0.416,-0.123C0.43,-0.136 0.443,-0.148 0.455,-0.159C0.466,-0.17 0.479,-0.181 0.493,-0.192C0.507,-0.203 0.523,-0.216 0.542,-0.231C0.56,-0.246 0.584,-0.265 0.614,-0.288C0.603,-0.254 0.595,-0.225 0.59,-0.202C0.585,-0.178 0.582,-0.149 0.581,-0.116C0.581,-0.085 0.591,-0.058 0.612,-0.035C0.633,-0.011 0.658,0.001 0.687,0.001C0.687,0.001 0.689,0.001 0.692,-0L0.697,-0C0.703,-0.001 0.71,-0.004 0.719,-0.01C0.732,-0.018 0.745,-0.023 0.756,-0.024C0.763,-0.025 0.77,-0.031 0.779,-0.04C0.788,-0.049 0.792,-0.057 0.792,-0.062C0.792,-0.067 0.789,-0.069 0.783,-0.069C0.779,-0.069 0.773,-0.068 0.765,-0.065C0.748,-0.059 0.735,-0.056 0.724,-0.056C0.71,-0.056 0.7,-0.061 0.693,-0.071C0.686,-0.081 0.681,-0.097 0.678,-0.119C0.676,-0.134 0.675,-0.148 0.675,-0.163C0.675,-0.188 0.678,-0.212 0.684,-0.234C0.689,-0.256 0.697,-0.281 0.707,-0.31L0.711,-0.321C0.712,-0.323 0.714,-0.327 0.718,-0.333C0.725,-0.342 0.728,-0.349 0.728,-0.353C0.728,-0.356 0.727,-0.358 0.725,-0.36C0.714,-0.37 0.7,-0.375 0.685,-0.375C0.678,-0.375 0.672,-0.374 0.669,-0.372C0.626,-0.351 0.581,-0.321 0.534,-0.284C0.486,-0.247 0.427,-0.195 0.356,-0.128C0.385,-0.195 0.415,-0.258 0.448,-0.315Z" style="fill:rgb(224,223,213);fill-rule:nonzero;"/>
            </g>
            <g transform="matrix(59.4059,0,0,59.4059,402.614,874)">
                <path d="M0.302,-0.275C0.286,-0.271 0.272,-0.268 0.26,-0.265C0.248,-0.262 0.238,-0.261 0.231,-0.261C0.224,-0.261 0.22,-0.263 0.22,-0.266C0.22,-0.27 0.227,-0.277 0.24,-0.287C0.243,-0.289 0.245,-0.292 0.246,-0.296C0.247,-0.301 0.249,-0.305 0.252,-0.31C0.255,-0.314 0.26,-0.319 0.267,-0.325C0.282,-0.342 0.299,-0.358 0.318,-0.373C0.337,-0.387 0.35,-0.396 0.359,-0.399C0.366,-0.403 0.372,-0.405 0.378,-0.405C0.389,-0.405 0.395,-0.399 0.395,-0.388C0.395,-0.381 0.393,-0.373 0.388,-0.364C0.377,-0.342 0.363,-0.323 0.346,-0.307C0.33,-0.29 0.315,-0.28 0.302,-0.275ZM0.419,-0.299C0.454,-0.358 0.472,-0.401 0.472,-0.43C0.472,-0.461 0.453,-0.482 0.414,-0.492C0.405,-0.492 0.393,-0.489 0.379,-0.483C0.365,-0.476 0.35,-0.468 0.334,-0.457C0.317,-0.446 0.3,-0.434 0.283,-0.42C0.266,-0.405 0.249,-0.39 0.233,-0.374C0.228,-0.369 0.222,-0.363 0.215,-0.356C0.208,-0.349 0.2,-0.339 0.19,-0.327C0.178,-0.314 0.168,-0.303 0.161,-0.295C0.153,-0.286 0.147,-0.282 0.144,-0.281C0.141,-0.28 0.136,-0.276 0.13,-0.271C0.123,-0.266 0.117,-0.26 0.11,-0.254C0.103,-0.247 0.098,-0.241 0.093,-0.234C0.088,-0.228 0.086,-0.223 0.086,-0.22C0.086,-0.218 0.087,-0.217 0.088,-0.216C0.089,-0.215 0.089,-0.215 0.089,-0.214C0.089,-0.211 0.087,-0.206 0.082,-0.2C0.077,-0.193 0.07,-0.183 0.061,-0.17C0.048,-0.153 0.039,-0.141 0.036,-0.135C0.028,-0.123 0.021,-0.109 0.016,-0.093C0.011,-0.076 0.008,-0.059 0.008,-0.041C0.008,-0.008 0.032,0.008 0.081,0.008C0.092,0.008 0.114,0.002 0.147,-0.009C0.18,-0.02 0.216,-0.034 0.256,-0.051C0.281,-0.061 0.305,-0.073 0.33,-0.086C0.355,-0.1 0.371,-0.111 0.379,-0.12C0.382,-0.123 0.385,-0.127 0.389,-0.13C0.394,-0.134 0.397,-0.139 0.4,-0.144C0.403,-0.149 0.405,-0.159 0.408,-0.172C0.408,-0.174 0.407,-0.175 0.406,-0.175C0.403,-0.175 0.397,-0.171 0.387,-0.163C0.375,-0.154 0.367,-0.148 0.362,-0.146C0.356,-0.144 0.348,-0.141 0.34,-0.136C0.331,-0.131 0.318,-0.125 0.303,-0.116C0.281,-0.104 0.267,-0.097 0.261,-0.094L0.256,-0.092C0.227,-0.081 0.203,-0.074 0.186,-0.069C0.169,-0.064 0.154,-0.061 0.141,-0.061C0.132,-0.061 0.123,-0.063 0.112,-0.068C0.101,-0.072 0.095,-0.08 0.095,-0.092C0.096,-0.107 0.098,-0.119 0.102,-0.127C0.107,-0.134 0.117,-0.147 0.134,-0.166C0.141,-0.175 0.149,-0.184 0.158,-0.194L0.172,-0.194C0.178,-0.193 0.183,-0.193 0.187,-0.193C0.234,-0.193 0.278,-0.201 0.319,-0.218C0.36,-0.234 0.393,-0.261 0.419,-0.299Z" style="fill:rgb(224,223,213);fill-rule:nonzero;"/>
            </g>
            <g transform="matrix(59.4059,0,0,59.4059,426.851,874)">
                <path d="M0.005,-0.002L0.008,-0.002C0.017,-0 0.023,0.001 0.027,0.001C0.035,0.001 0.043,-0.003 0.05,-0.01C0.057,-0.017 0.07,-0.034 0.091,-0.061L0.096,-0.068C0.119,-0.107 0.146,-0.148 0.178,-0.192C0.21,-0.236 0.242,-0.277 0.275,-0.315C0.278,-0.318 0.283,-0.324 0.293,-0.333C0.302,-0.342 0.311,-0.35 0.32,-0.358C0.329,-0.365 0.338,-0.374 0.348,-0.383C0.358,-0.392 0.367,-0.399 0.374,-0.405C0.383,-0.394 0.391,-0.388 0.398,-0.388C0.401,-0.388 0.404,-0.389 0.408,-0.391C0.417,-0.395 0.427,-0.404 0.438,-0.419C0.449,-0.434 0.459,-0.452 0.47,-0.473C0.477,-0.488 0.481,-0.5 0.481,-0.51C0.481,-0.515 0.48,-0.519 0.478,-0.521C0.473,-0.526 0.468,-0.528 0.461,-0.528L0.458,-0.528C0.457,-0.527 0.456,-0.527 0.455,-0.527C0.44,-0.52 0.415,-0.505 0.382,-0.48C0.369,-0.469 0.358,-0.461 0.35,-0.456C0.349,-0.455 0.347,-0.453 0.346,-0.45C0.345,-0.447 0.344,-0.444 0.342,-0.44C0.339,-0.436 0.335,-0.43 0.328,-0.422C0.321,-0.413 0.311,-0.403 0.298,-0.39C0.285,-0.377 0.269,-0.361 0.248,-0.342C0.247,-0.341 0.244,-0.339 0.241,-0.336C0.24,-0.335 0.239,-0.334 0.238,-0.334C0.238,-0.335 0.238,-0.335 0.239,-0.335L0.239,-0.343C0.239,-0.346 0.24,-0.351 0.243,-0.36C0.246,-0.369 0.249,-0.377 0.252,-0.386C0.255,-0.394 0.258,-0.404 0.263,-0.415C0.268,-0.426 0.272,-0.436 0.276,-0.443L0.266,-0.443L0.258,-0.444C0.237,-0.444 0.224,-0.44 0.218,-0.432C0.206,-0.417 0.196,-0.404 0.189,-0.394C0.181,-0.383 0.175,-0.374 0.171,-0.366C0.167,-0.358 0.164,-0.35 0.161,-0.343C0.158,-0.335 0.156,-0.326 0.154,-0.315C0.152,-0.304 0.147,-0.289 0.14,-0.27C0.132,-0.251 0.124,-0.235 0.117,-0.222C0.107,-0.205 0.1,-0.191 0.095,-0.182C0.082,-0.159 0.072,-0.143 0.067,-0.134C0.061,-0.125 0.053,-0.116 0.044,-0.105C0.037,-0.098 0.032,-0.088 0.027,-0.074C0.021,-0.059 0.015,-0.037 0.006,-0.006L0.005,-0.002Z" style="fill:rgb(224,223,213);fill-rule:nonzero;"/>
            </g>
            <g transform="matrix(59.4059,0,0,59.4059,445.861,874)">
                <path d="M0.096,-0.174C0.094,-0.171 0.09,-0.164 0.085,-0.153C0.079,-0.142 0.073,-0.131 0.066,-0.119C0.05,-0.088 0.039,-0.067 0.033,-0.056C0.026,-0.045 0.02,-0.034 0.015,-0.024C0.012,-0.019 0.011,-0.016 0.01,-0.015C0.005,-0.006 0.002,-0.001 0.002,0.001C0.002,0.002 0.003,0.004 0.006,0.006C0.007,0.007 0.009,0.008 0.012,0.008C0.02,0.008 0.031,0.003 0.046,-0.006C0.06,-0.015 0.07,-0.024 0.077,-0.032C0.094,-0.052 0.111,-0.076 0.129,-0.105C0.147,-0.133 0.17,-0.171 0.198,-0.218C0.225,-0.264 0.244,-0.295 0.255,-0.311C0.266,-0.33 0.275,-0.344 0.28,-0.353C0.284,-0.362 0.289,-0.371 0.292,-0.379C0.295,-0.387 0.298,-0.396 0.301,-0.405C0.304,-0.414 0.308,-0.431 0.314,-0.455C0.316,-0.462 0.317,-0.468 0.317,-0.473C0.317,-0.481 0.315,-0.487 0.311,-0.49C0.307,-0.493 0.301,-0.495 0.293,-0.496L0.289,-0.496C0.286,-0.497 0.284,-0.497 0.284,-0.497C0.271,-0.497 0.26,-0.492 0.253,-0.482C0.248,-0.477 0.239,-0.468 0.225,-0.455C0.215,-0.446 0.207,-0.438 0.201,-0.431C0.194,-0.424 0.191,-0.419 0.19,-0.415C0.19,-0.409 0.191,-0.403 0.194,-0.398C0.196,-0.392 0.2,-0.388 0.205,-0.387C0.196,-0.366 0.186,-0.346 0.177,-0.326C0.168,-0.305 0.158,-0.285 0.148,-0.265C0.138,-0.245 0.129,-0.227 0.119,-0.211C0.111,-0.194 0.103,-0.182 0.096,-0.174ZM0.427,-0.751C0.424,-0.754 0.419,-0.755 0.414,-0.755C0.408,-0.755 0.401,-0.753 0.394,-0.75C0.386,-0.747 0.378,-0.742 0.371,-0.737C0.358,-0.729 0.35,-0.721 0.346,-0.712C0.342,-0.703 0.34,-0.691 0.34,-0.675C0.34,-0.656 0.344,-0.638 0.353,-0.623C0.356,-0.618 0.358,-0.616 0.361,-0.616C0.364,-0.616 0.369,-0.62 0.376,-0.627C0.393,-0.639 0.406,-0.651 0.417,-0.663C0.428,-0.675 0.434,-0.689 0.437,-0.706C0.438,-0.713 0.439,-0.72 0.439,-0.725C0.439,-0.738 0.435,-0.746 0.427,-0.751Z" style="fill:rgb(224,223,213);fill-rule:nonzero;"/>
            </g>
            <g transform="matrix(59.4059,0,0,59.4059,460.653,874)">
                <path d="M0.165,-0.343C0.158,-0.332 0.146,-0.314 0.128,-0.287C0.087,-0.225 0.058,-0.177 0.04,-0.141C0.022,-0.107 0.013,-0.072 0.013,-0.039C0.013,-0.037 0.013,-0.034 0.014,-0.031L0.014,-0.023C0.016,-0.009 0.02,0.001 0.025,0.006C0.03,0.011 0.039,0.014 0.05,0.015C0.051,0.015 0.053,0.015 0.055,0.015C0.058,0.016 0.061,0.016 0.063,0.016C0.076,0.016 0.093,0.014 0.112,0.01C0.131,0.006 0.152,-0.001 0.175,-0.01C0.198,-0.019 0.221,-0.032 0.245,-0.049C0.269,-0.065 0.291,-0.085 0.311,-0.108C0.328,-0.127 0.337,-0.14 0.337,-0.146C0.337,-0.148 0.336,-0.149 0.334,-0.149C0.331,-0.149 0.328,-0.148 0.323,-0.146C0.318,-0.143 0.313,-0.14 0.309,-0.137C0.294,-0.124 0.279,-0.113 0.264,-0.105C0.249,-0.096 0.228,-0.086 0.201,-0.074C0.182,-0.064 0.164,-0.059 0.146,-0.059C0.131,-0.059 0.118,-0.063 0.108,-0.07C0.098,-0.078 0.093,-0.089 0.093,-0.104C0.093,-0.111 0.095,-0.12 0.098,-0.129L0.161,-0.24C0.17,-0.255 0.182,-0.274 0.197,-0.295C0.212,-0.316 0.227,-0.336 0.243,-0.357C0.258,-0.377 0.272,-0.394 0.284,-0.406C0.297,-0.42 0.305,-0.426 0.31,-0.426C0.315,-0.426 0.318,-0.425 0.32,-0.424C0.321,-0.423 0.324,-0.418 0.328,-0.411C0.331,-0.406 0.332,-0.399 0.332,-0.39C0.332,-0.38 0.33,-0.362 0.325,-0.336C0.323,-0.321 0.321,-0.31 0.32,-0.302C0.329,-0.302 0.338,-0.306 0.347,-0.315C0.356,-0.323 0.366,-0.335 0.377,-0.35C0.384,-0.359 0.388,-0.365 0.39,-0.368C0.397,-0.377 0.402,-0.388 0.405,-0.403C0.407,-0.417 0.411,-0.438 0.414,-0.466C0.414,-0.467 0.415,-0.475 0.417,-0.489C0.417,-0.496 0.416,-0.502 0.415,-0.505C0.414,-0.508 0.411,-0.512 0.408,-0.515C0.405,-0.518 0.401,-0.52 0.398,-0.52C0.397,-0.52 0.395,-0.52 0.392,-0.519C0.39,-0.518 0.388,-0.518 0.386,-0.517C0.382,-0.516 0.376,-0.515 0.367,-0.512C0.358,-0.509 0.35,-0.506 0.342,-0.503C0.333,-0.5 0.325,-0.497 0.317,-0.494C0.308,-0.491 0.302,-0.488 0.299,-0.486C0.29,-0.481 0.28,-0.473 0.267,-0.461C0.254,-0.449 0.241,-0.435 0.227,-0.42C0.213,-0.405 0.201,-0.39 0.19,-0.377C0.179,-0.363 0.17,-0.352 0.165,-0.343Z" style="fill:rgb(224,223,213);fill-rule:nonzero;"/>
            </g>
            <g transform="matrix(59.4059,0,0,59.4059,480.198,874)">
                <path d="M0.098,-0.101C0.125,-0.147 0.155,-0.191 0.188,-0.233C0.22,-0.275 0.255,-0.313 0.292,-0.348C0.334,-0.389 0.363,-0.409 0.379,-0.409L0.382,-0.409C0.383,-0.408 0.384,-0.408 0.385,-0.408C0.399,-0.401 0.406,-0.392 0.406,-0.381C0.406,-0.376 0.405,-0.371 0.402,-0.364C0.401,-0.361 0.4,-0.357 0.398,-0.352C0.387,-0.317 0.376,-0.289 0.365,-0.266C0.354,-0.243 0.341,-0.226 0.325,-0.213C0.322,-0.211 0.318,-0.208 0.313,-0.204C0.306,-0.199 0.301,-0.193 0.298,-0.188C0.295,-0.181 0.287,-0.177 0.276,-0.176C0.27,-0.175 0.266,-0.174 0.264,-0.171C0.262,-0.168 0.261,-0.164 0.26,-0.159C0.258,-0.152 0.255,-0.148 0.252,-0.146C0.247,-0.144 0.238,-0.139 0.225,-0.13C0.212,-0.121 0.196,-0.109 0.176,-0.095C0.161,-0.084 0.15,-0.076 0.141,-0.07C0.132,-0.065 0.127,-0.061 0.124,-0.06C0.118,-0.057 0.112,-0.055 0.106,-0.055C0.104,-0.055 0.101,-0.055 0.098,-0.056C0.094,-0.057 0.091,-0.057 0.088,-0.057C0.087,-0.058 0.086,-0.058 0.083,-0.058C0.079,-0.059 0.077,-0.06 0.077,-0.062C0.077,-0.065 0.079,-0.069 0.082,-0.076C0.085,-0.082 0.091,-0.09 0.098,-0.101ZM0.356,-0.457C0.339,-0.445 0.321,-0.431 0.302,-0.413C0.283,-0.397 0.264,-0.379 0.245,-0.36C0.226,-0.341 0.21,-0.325 0.197,-0.31C0.183,-0.295 0.172,-0.282 0.165,-0.272L0.021,-0.068C0.012,-0.058 0.007,-0.05 0.005,-0.043C0.003,-0.036 0.002,-0.027 0.001,-0.014L0.001,-0.012C0.001,-0.005 0.003,0.002 0.008,0.008C0.012,0.014 0.018,0.017 0.026,0.017C0.027,0.017 0.028,0.017 0.03,0.017C0.031,0.016 0.033,0.016 0.034,0.016C0.044,0.011 0.055,0.007 0.066,0.003C0.077,-0.001 0.086,-0.003 0.093,-0.003C0.098,-0.003 0.106,-0.006 0.117,-0.012C0.128,-0.018 0.137,-0.025 0.146,-0.032C0.159,-0.044 0.171,-0.055 0.184,-0.064C0.197,-0.073 0.206,-0.077 0.211,-0.078C0.217,-0.078 0.222,-0.081 0.225,-0.086C0.227,-0.089 0.229,-0.09 0.23,-0.091C0.245,-0.108 0.258,-0.122 0.271,-0.133C0.284,-0.143 0.294,-0.148 0.301,-0.148C0.305,-0.148 0.311,-0.15 0.32,-0.153C0.329,-0.156 0.338,-0.161 0.347,-0.166C0.357,-0.171 0.366,-0.177 0.374,-0.184C0.382,-0.19 0.387,-0.196 0.389,-0.202L0.389,-0.195L0.39,-0.191C0.39,-0.183 0.388,-0.175 0.384,-0.167C0.383,-0.166 0.383,-0.166 0.383,-0.166C0.38,-0.161 0.374,-0.144 0.364,-0.117C0.357,-0.098 0.351,-0.082 0.345,-0.067C0.339,-0.051 0.334,-0.041 0.331,-0.036C0.328,-0.03 0.327,-0.025 0.327,-0.02C0.327,-0.011 0.332,-0.006 0.343,-0.003C0.352,-0.001 0.361,-0 0.372,-0C0.383,-0 0.388,-0.001 0.389,-0.004C0.391,-0.009 0.398,-0.013 0.41,-0.017C0.412,-0.018 0.413,-0.018 0.414,-0.018C0.421,-0.021 0.43,-0.028 0.44,-0.038C0.449,-0.047 0.458,-0.054 0.465,-0.059C0.472,-0.073 0.475,-0.084 0.475,-0.091C0.475,-0.096 0.473,-0.099 0.469,-0.099L0.467,-0.098L0.465,-0.098C0.46,-0.097 0.45,-0.092 0.435,-0.083C0.424,-0.076 0.415,-0.072 0.41,-0.069C0.411,-0.086 0.417,-0.103 0.426,-0.121C0.435,-0.138 0.447,-0.159 0.464,-0.184C0.492,-0.225 0.509,-0.257 0.516,-0.278C0.519,-0.287 0.522,-0.305 0.524,-0.331C0.525,-0.354 0.527,-0.369 0.529,-0.378C0.52,-0.374 0.512,-0.372 0.507,-0.372C0.502,-0.372 0.498,-0.374 0.497,-0.377C0.495,-0.38 0.494,-0.384 0.493,-0.389L0.493,-0.392C0.494,-0.401 0.495,-0.41 0.495,-0.419C0.495,-0.454 0.488,-0.476 0.473,-0.485C0.468,-0.49 0.46,-0.492 0.45,-0.492C0.437,-0.492 0.421,-0.489 0.404,-0.482C0.387,-0.474 0.371,-0.466 0.356,-0.457Z" style="fill:rgb(224,223,213);fill-rule:nonzero;"/>
            </g>
            <g transform="matrix(59.4059,0,0,59.4059,510.614,874)">
                <path d="M0.173,-0.182C0.177,-0.189 0.182,-0.202 0.187,-0.223C0.191,-0.238 0.194,-0.247 0.196,-0.251C0.199,-0.258 0.204,-0.266 0.21,-0.274C0.216,-0.282 0.22,-0.29 0.222,-0.297C0.237,-0.336 0.251,-0.371 0.262,-0.403C0.273,-0.436 0.281,-0.462 0.284,-0.483C0.285,-0.486 0.286,-0.49 0.288,-0.496C0.291,-0.504 0.293,-0.51 0.293,-0.515C0.293,-0.52 0.291,-0.525 0.286,-0.529C0.284,-0.531 0.279,-0.532 0.272,-0.532C0.262,-0.532 0.251,-0.531 0.237,-0.528C0.225,-0.525 0.216,-0.521 0.213,-0.518C0.202,-0.509 0.188,-0.498 0.169,-0.487C0.146,-0.472 0.132,-0.459 0.127,-0.448C0.125,-0.444 0.124,-0.441 0.124,-0.438C0.124,-0.435 0.126,-0.434 0.129,-0.434C0.132,-0.434 0.137,-0.436 0.143,-0.439C0.149,-0.442 0.158,-0.446 0.17,-0.452C0.179,-0.457 0.186,-0.461 0.191,-0.463C0.188,-0.444 0.185,-0.426 0.181,-0.411C0.176,-0.396 0.171,-0.379 0.164,-0.362C0.157,-0.339 0.146,-0.312 0.133,-0.28C0.119,-0.248 0.102,-0.209 0.081,-0.164C0.052,-0.099 0.03,-0.049 0.016,-0.016C0.016,-0.015 0.015,-0.013 0.013,-0.01C0.009,-0.003 0.007,0.002 0.007,0.005C0.007,0.009 0.01,0.011 0.015,0.011C0.019,0.011 0.024,0.01 0.031,0.008L0.034,0.008C0.05,0.007 0.063,0.004 0.072,-0C0.081,-0.004 0.091,-0.013 0.1,-0.028C0.11,-0.041 0.121,-0.054 0.132,-0.065C0.143,-0.076 0.163,-0.093 0.19,-0.117C0.206,-0.131 0.221,-0.144 0.235,-0.157C0.268,-0.185 0.298,-0.212 0.325,-0.238C0.352,-0.264 0.378,-0.291 0.404,-0.319C0.43,-0.346 0.445,-0.36 0.448,-0.36C0.448,-0.36 0.448,-0.36 0.449,-0.359C0.451,-0.354 0.452,-0.348 0.452,-0.342C0.452,-0.329 0.445,-0.301 0.431,-0.258C0.418,-0.215 0.407,-0.179 0.399,-0.15L0.399,-0.148C0.392,-0.126 0.388,-0.11 0.388,-0.101C0.388,-0.087 0.394,-0.07 0.406,-0.051C0.413,-0.04 0.421,-0.03 0.43,-0.021C0.439,-0.012 0.449,-0.005 0.459,-0C0.466,0.003 0.474,0.004 0.484,0.004C0.497,0.004 0.51,0.001 0.521,-0.004C0.532,-0.009 0.54,-0.016 0.544,-0.026C0.547,-0.035 0.554,-0.042 0.564,-0.048C0.573,-0.054 0.579,-0.061 0.582,-0.068C0.585,-0.074 0.587,-0.078 0.587,-0.081C0.587,-0.082 0.586,-0.083 0.584,-0.083C0.581,-0.083 0.574,-0.08 0.562,-0.074C0.551,-0.069 0.544,-0.066 0.54,-0.065C0.533,-0.063 0.526,-0.062 0.52,-0.062C0.499,-0.062 0.481,-0.075 0.468,-0.102C0.465,-0.11 0.463,-0.117 0.463,-0.123C0.463,-0.128 0.465,-0.134 0.469,-0.141C0.473,-0.148 0.476,-0.153 0.477,-0.158C0.481,-0.171 0.485,-0.184 0.488,-0.199C0.491,-0.214 0.495,-0.225 0.498,-0.233C0.509,-0.26 0.518,-0.284 0.524,-0.303C0.53,-0.322 0.533,-0.342 0.533,-0.361C0.533,-0.381 0.529,-0.4 0.522,-0.417C0.52,-0.422 0.513,-0.425 0.5,-0.425C0.49,-0.425 0.479,-0.423 0.468,-0.42C0.456,-0.416 0.446,-0.411 0.438,-0.405C0.433,-0.402 0.427,-0.396 0.418,-0.388C0.409,-0.38 0.4,-0.371 0.389,-0.36C0.378,-0.349 0.366,-0.338 0.355,-0.327C0.344,-0.316 0.336,-0.308 0.331,-0.303C0.314,-0.285 0.288,-0.26 0.252,-0.229C0.213,-0.194 0.184,-0.167 0.166,-0.148C0.159,-0.14 0.155,-0.136 0.154,-0.136L0.154,-0.137C0.154,-0.14 0.16,-0.155 0.173,-0.182Z" style="fill:rgb(224,223,213);fill-rule:nonzero;"/>
            </g>
            <g transform="matrix(59.4059,0,0,59.4059,562.059,874)">
                <path d="M0.785,-0.464C0.782,-0.461 0.776,-0.458 0.768,-0.454C0.753,-0.446 0.74,-0.438 0.731,-0.431C0.723,-0.425 0.714,-0.419 0.703,-0.413C0.692,-0.408 0.67,-0.397 0.639,-0.382L0.599,-0.363L0.596,-0.363C0.594,-0.362 0.593,-0.362 0.593,-0.362C0.587,-0.362 0.579,-0.366 0.568,-0.373C0.562,-0.377 0.558,-0.379 0.557,-0.38C0.538,-0.391 0.524,-0.405 0.517,-0.422C0.51,-0.439 0.502,-0.467 0.493,-0.508C0.488,-0.529 0.485,-0.546 0.482,-0.557C0.486,-0.572 0.491,-0.588 0.496,-0.607C0.501,-0.626 0.508,-0.651 0.517,-0.682C0.526,-0.713 0.533,-0.738 0.538,-0.756C0.543,-0.776 0.546,-0.789 0.548,-0.797C0.548,-0.81 0.545,-0.82 0.539,-0.828C0.534,-0.823 0.525,-0.819 0.512,-0.816C0.502,-0.815 0.494,-0.812 0.488,-0.809C0.481,-0.805 0.475,-0.798 0.47,-0.788C0.457,-0.772 0.449,-0.758 0.444,-0.748C0.439,-0.737 0.435,-0.723 0.431,-0.706C0.427,-0.692 0.424,-0.68 0.421,-0.671C0.42,-0.668 0.42,-0.667 0.419,-0.666C0.416,-0.657 0.413,-0.65 0.408,-0.644C0.406,-0.644 0.403,-0.644 0.4,-0.645C0.397,-0.646 0.394,-0.646 0.391,-0.646C0.388,-0.646 0.385,-0.646 0.382,-0.645C0.378,-0.644 0.375,-0.644 0.373,-0.644C0.368,-0.643 0.362,-0.637 0.355,-0.627C0.349,-0.618 0.344,-0.612 0.339,-0.609C0.336,-0.606 0.334,-0.6 0.334,-0.589C0.334,-0.579 0.335,-0.567 0.338,-0.554C0.341,-0.54 0.343,-0.527 0.346,-0.515C0.34,-0.506 0.333,-0.493 0.324,-0.478C0.311,-0.454 0.299,-0.436 0.288,-0.425C0.271,-0.397 0.252,-0.369 0.231,-0.341C0.21,-0.312 0.182,-0.276 0.149,-0.233C0.116,-0.19 0.089,-0.156 0.069,-0.129C0.049,-0.102 0.031,-0.075 0.015,-0.048C0.012,-0.04 0.01,-0.033 0.01,-0.027C0.01,-0.017 0.014,-0.012 0.022,-0.012C0.027,-0.012 0.033,-0.011 0.04,-0.009C0.047,-0.007 0.052,-0.006 0.055,-0.006C0.064,-0.006 0.073,-0.01 0.082,-0.019C0.085,-0.022 0.089,-0.028 0.094,-0.038C0.103,-0.052 0.113,-0.069 0.126,-0.089C0.139,-0.109 0.157,-0.134 0.181,-0.165C0.197,-0.186 0.219,-0.213 0.246,-0.248C0.273,-0.283 0.297,-0.313 0.318,-0.339C0.338,-0.365 0.356,-0.389 0.372,-0.411C0.373,-0.412 0.374,-0.413 0.376,-0.413C0.38,-0.413 0.385,-0.408 0.391,-0.399C0.396,-0.389 0.399,-0.38 0.399,-0.373C0.399,-0.364 0.405,-0.353 0.416,-0.338C0.427,-0.323 0.44,-0.309 0.454,-0.296C0.459,-0.292 0.464,-0.289 0.469,-0.288C0.475,-0.287 0.484,-0.286 0.495,-0.286C0.504,-0.286 0.519,-0.287 0.541,-0.288L0.552,-0.288C0.572,-0.289 0.589,-0.293 0.604,-0.3C0.619,-0.306 0.644,-0.32 0.679,-0.342C0.714,-0.363 0.743,-0.38 0.765,-0.393C0.775,-0.398 0.786,-0.403 0.798,-0.41C0.809,-0.417 0.824,-0.427 0.842,-0.44C0.859,-0.453 0.883,-0.47 0.913,-0.494C0.942,-0.517 0.978,-0.545 1.021,-0.58C1.014,-0.551 1.007,-0.528 1.002,-0.511C0.997,-0.494 0.992,-0.479 0.987,-0.468C0.982,-0.457 0.976,-0.447 0.971,-0.438C0.966,-0.429 0.957,-0.415 0.945,-0.397L0.929,-0.373C0.926,-0.367 0.922,-0.358 0.919,-0.345C0.914,-0.328 0.909,-0.314 0.904,-0.303C0.887,-0.262 0.875,-0.23 0.868,-0.207C0.861,-0.185 0.858,-0.163 0.858,-0.142C0.858,-0.132 0.859,-0.12 0.86,-0.107C0.861,-0.1 0.862,-0.092 0.862,-0.081C0.862,-0.07 0.863,-0.062 0.865,-0.056C0.867,-0.05 0.871,-0.044 0.878,-0.038C0.881,-0.031 0.883,-0.027 0.886,-0.025C0.889,-0.023 0.894,-0.022 0.901,-0.022C0.906,-0.022 0.916,-0.023 0.931,-0.024C0.933,-0.024 0.936,-0.024 0.94,-0.025C0.951,-0.026 0.96,-0.027 0.966,-0.029C0.972,-0.031 0.978,-0.036 0.984,-0.044C0.993,-0.053 0.998,-0.061 0.998,-0.066C0.998,-0.073 0.992,-0.085 0.98,-0.102C0.975,-0.109 0.971,-0.116 0.969,-0.123C0.967,-0.13 0.966,-0.138 0.966,-0.149C0.966,-0.154 0.966,-0.166 0.967,-0.185C0.968,-0.206 0.969,-0.223 0.97,-0.236C0.971,-0.241 0.971,-0.248 0.972,-0.256C0.972,-0.263 0.972,-0.268 0.973,-0.273C0.974,-0.277 0.975,-0.283 0.978,-0.29C0.987,-0.318 0.998,-0.346 1.012,-0.374C1.025,-0.402 1.044,-0.437 1.068,-0.48C1.109,-0.555 1.138,-0.612 1.153,-0.651C1.164,-0.682 1.17,-0.709 1.17,-0.732C1.17,-0.742 1.169,-0.749 1.166,-0.752C1.16,-0.757 1.154,-0.76 1.147,-0.76C1.138,-0.76 1.13,-0.755 1.122,-0.744C1.084,-0.717 1.028,-0.67 0.953,-0.604C0.879,-0.538 0.823,-0.491 0.785,-0.464Z" style="fill:rgb(224,223,213);fill-rule:nonzero;"/>
            </g>
            <g transform="matrix(59.4059,0,0,59.4059,625.683,874)">
                <path d="M0.098,-0.101C0.125,-0.147 0.155,-0.191 0.188,-0.233C0.22,-0.275 0.255,-0.313 0.292,-0.348C0.334,-0.389 0.363,-0.409 0.379,-0.409L0.382,-0.409C0.383,-0.408 0.384,-0.408 0.385,-0.408C0.399,-0.401 0.406,-0.392 0.406,-0.381C0.406,-0.376 0.405,-0.371 0.402,-0.364C0.401,-0.361 0.4,-0.357 0.398,-0.352C0.387,-0.317 0.376,-0.289 0.365,-0.266C0.354,-0.243 0.341,-0.226 0.325,-0.213C0.322,-0.211 0.318,-0.208 0.313,-0.204C0.306,-0.199 0.301,-0.193 0.298,-0.188C0.295,-0.181 0.287,-0.177 0.276,-0.176C0.27,-0.175 0.266,-0.174 0.264,-0.171C0.262,-0.168 0.261,-0.164 0.26,-0.159C0.258,-0.152 0.255,-0.148 0.252,-0.146C0.247,-0.144 0.238,-0.139 0.225,-0.13C0.212,-0.121 0.196,-0.109 0.176,-0.095C0.161,-0.084 0.15,-0.076 0.141,-0.07C0.132,-0.065 0.127,-0.061 0.124,-0.06C0.118,-0.057 0.112,-0.055 0.106,-0.055C0.104,-0.055 0.101,-0.055 0.098,-0.056C0.094,-0.057 0.091,-0.057 0.088,-0.057C0.087,-0.058 0.086,-0.058 0.083,-0.058C0.079,-0.059 0.077,-0.06 0.077,-0.062C0.077,-0.065 0.079,-0.069 0.082,-0.076C0.085,-0.082 0.091,-0.09 0.098,-0.101ZM0.356,-0.457C0.339,-0.445 0.321,-0.431 0.302,-0.413C0.283,-0.397 0.264,-0.379 0.245,-0.36C0.226,-0.341 0.21,-0.325 0.197,-0.31C0.183,-0.295 0.172,-0.282 0.165,-0.272L0.021,-0.068C0.012,-0.058 0.007,-0.05 0.005,-0.043C0.003,-0.036 0.002,-0.027 0.001,-0.014L0.001,-0.012C0.001,-0.005 0.003,0.002 0.008,0.008C0.012,0.014 0.018,0.017 0.026,0.017C0.027,0.017 0.028,0.017 0.03,0.017C0.031,0.016 0.033,0.016 0.034,0.016C0.044,0.011 0.055,0.007 0.066,0.003C0.077,-0.001 0.086,-0.003 0.093,-0.003C0.098,-0.003 0.106,-0.006 0.117,-0.012C0.128,-0.018 0.137,-0.025 0.146,-0.032C0.159,-0.044 0.171,-0.055 0.184,-0.064C0.197,-0.073 0.206,-0.077 0.211,-0.078C0.217,-0.078 0.222,-0.081 0.225,-0.086C0.227,-0.089 0.229,-0.09 0.23,-0.091C0.245,-0.108 0.258,-0.122 0.271,-0.133C0.284,-0.143 0.294,-0.148 0.301,-0.148C0.305,-0.148 0.311,-0.15 0.32,-0.153C0.329,-0.156 0.338,-0.161 0.347,-0.166C0.357,-0.171 0.366,-0.177 0.374,-0.184C0.382,-0.19 0.387,-0.196 0.389,-0.202L0.389,-0.195L0.39,-0.191C0.39,-0.183 0.388,-0.175 0.384,-0.167C0.383,-0.166 0.383,-0.166 0.383,-0.166C0.38,-0.161 0.374,-0.144 0.364,-0.117C0.357,-0.098 0.351,-0.082 0.345,-0.067C0.339,-0.051 0.334,-0.041 0.331,-0.036C0.328,-0.03 0.327,-0.025 0.327,-0.02C0.327,-0.011 0.332,-0.006 0.343,-0.003C0.352,-0.001 0.361,-0 0.372,-0C0.383,-0 0.388,-0.001 0.389,-0.004C0.391,-0.009 0.398,-0.013 0.41,-0.017C0.412,-0.018 0.413,-0.018 0.414,-0.018C0.421,-0.021 0.43,-0.028 0.44,-0.038C0.449,-0.047 0.458,-0.054 0.465,-0.059C0.472,-0.073 0.475,-0.084 0.475,-0.091C0.475,-0.096 0.473,-0.099 0.469,-0.099L0.467,-0.098L0.465,-0.098C0.46,-0.097 0.45,-0.092 0.435,-0.083C0.424,-0.076 0.415,-0.072 0.41,-0.069C0.411,-0.086 0.417,-0.103 0.426,-0.121C0.435,-0.138 0.447,-0.159 0.464,-0.184C0.492,-0.225 0.509,-0.257 0.516,-0.278C0.519,-0.287 0.522,-0.305 0.524,-0.331C0.525,-0.354 0.527,-0.369 0.529,-0.378C0.52,-0.374 0.512,-0.372 0.507,-0.372C0.502,-0.372 0.498,-0.374 0.497,-0.377C0.495,-0.38 0.494,-0.384 0.493,-0.389L0.493,-0.392C0.494,-0.401 0.495,-0.41 0.495,-0.419C0.495,-0.454 0.488,-0.476 0.473,-0.485C0.468,-0.49 0.46,-0.492 0.45,-0.492C0.437,-0.492 0.421,-0.489 0.404,-0.482C0.387,-0.474 0.371,-0.466 0.356,-0.457Z" style="fill:rgb(224,223,213);fill-rule:nonzero;"/>
            </g>
            <g transform="matrix(59.4059,0,0,59.4059,656.099,874)">
                <path d="M0.346,-0.278C0.322,-0.244 0.293,-0.209 0.258,-0.172C0.223,-0.135 0.19,-0.106 0.159,-0.083C0.153,-0.078 0.143,-0.074 0.129,-0.07C0.122,-0.067 0.116,-0.065 0.113,-0.064C0.108,-0.061 0.104,-0.06 0.101,-0.06C0.097,-0.06 0.095,-0.065 0.095,-0.074C0.095,-0.091 0.097,-0.103 0.102,-0.112C0.107,-0.124 0.112,-0.136 0.118,-0.149C0.124,-0.162 0.132,-0.177 0.141,-0.194C0.151,-0.211 0.164,-0.232 0.179,-0.257C0.194,-0.281 0.214,-0.309 0.237,-0.342C0.24,-0.347 0.244,-0.352 0.249,-0.357C0.253,-0.362 0.261,-0.37 0.272,-0.383C0.279,-0.391 0.284,-0.396 0.286,-0.399C0.291,-0.404 0.296,-0.407 0.301,-0.407C0.309,-0.407 0.313,-0.402 0.313,-0.393C0.313,-0.382 0.314,-0.366 0.315,-0.346C0.316,-0.328 0.317,-0.316 0.317,-0.309C0.317,-0.304 0.318,-0.299 0.32,-0.294C0.321,-0.289 0.324,-0.287 0.328,-0.287C0.333,-0.287 0.34,-0.291 0.347,-0.299C0.351,-0.303 0.356,-0.309 0.361,-0.317C0.365,-0.324 0.368,-0.328 0.371,-0.331C0.375,-0.336 0.377,-0.34 0.377,-0.343C0.377,-0.346 0.376,-0.349 0.373,-0.352C0.373,-0.353 0.373,-0.354 0.372,-0.355L0.372,-0.358C0.372,-0.362 0.375,-0.366 0.381,-0.369C0.387,-0.373 0.39,-0.382 0.39,-0.395L0.39,-0.406C0.39,-0.433 0.389,-0.451 0.388,-0.462C0.386,-0.472 0.381,-0.479 0.374,-0.483C0.364,-0.488 0.355,-0.49 0.346,-0.49C0.345,-0.49 0.343,-0.49 0.342,-0.489L0.339,-0.489C0.314,-0.484 0.289,-0.471 0.262,-0.451C0.235,-0.43 0.207,-0.399 0.176,-0.359C0.134,-0.3 0.099,-0.245 0.07,-0.194C0.041,-0.142 0.02,-0.093 0.006,-0.044C0.004,-0.036 0.003,-0.029 0.003,-0.022C0.003,-0.011 0.006,-0.003 0.011,0.003C0.016,0.01 0.025,0.013 0.037,0.013C0.05,0.013 0.065,0.011 0.081,0.008C0.096,0.005 0.112,-0 0.128,-0.008C0.132,-0.009 0.139,-0.013 0.149,-0.02C0.158,-0.027 0.169,-0.034 0.181,-0.043C0.193,-0.052 0.204,-0.06 0.213,-0.068C0.222,-0.075 0.229,-0.081 0.233,-0.085C0.244,-0.095 0.258,-0.108 0.273,-0.124C0.283,-0.134 0.293,-0.143 0.303,-0.153C0.312,-0.162 0.323,-0.172 0.336,-0.183C0.341,-0.188 0.35,-0.199 0.364,-0.217C0.377,-0.234 0.393,-0.255 0.409,-0.278C0.427,-0.301 0.443,-0.324 0.459,-0.347C0.475,-0.371 0.487,-0.391 0.495,-0.406C0.504,-0.421 0.514,-0.44 0.526,-0.464C0.537,-0.488 0.548,-0.512 0.558,-0.536C0.559,-0.539 0.561,-0.542 0.563,-0.547C0.578,-0.583 0.59,-0.611 0.598,-0.63C0.605,-0.649 0.611,-0.664 0.614,-0.675C0.617,-0.684 0.62,-0.697 0.625,-0.715C0.629,-0.733 0.633,-0.754 0.637,-0.778C0.642,-0.801 0.645,-0.823 0.648,-0.843C0.651,-0.862 0.652,-0.878 0.652,-0.89C0.652,-0.891 0.652,-0.894 0.651,-0.898L0.651,-0.903C0.648,-0.916 0.644,-0.928 0.639,-0.939C0.633,-0.95 0.624,-0.958 0.611,-0.964L0.604,-0.967C0.587,-0.974 0.572,-0.98 0.56,-0.984C0.548,-0.988 0.536,-0.99 0.525,-0.99C0.512,-0.99 0.499,-0.988 0.488,-0.984C0.477,-0.979 0.463,-0.972 0.447,-0.963C0.443,-0.961 0.441,-0.96 0.441,-0.96C0.438,-0.959 0.435,-0.956 0.43,-0.951C0.425,-0.946 0.418,-0.939 0.411,-0.931C0.401,-0.92 0.395,-0.913 0.392,-0.911C0.39,-0.909 0.386,-0.903 0.38,-0.894C0.369,-0.877 0.361,-0.866 0.354,-0.859C0.361,-0.858 0.368,-0.857 0.373,-0.857C0.386,-0.857 0.396,-0.86 0.405,-0.867C0.413,-0.874 0.423,-0.886 0.435,-0.904C0.444,-0.916 0.453,-0.925 0.461,-0.93C0.468,-0.935 0.479,-0.938 0.492,-0.939C0.51,-0.939 0.525,-0.937 0.538,-0.933C0.55,-0.929 0.559,-0.92 0.566,-0.906C0.578,-0.877 0.584,-0.847 0.584,-0.816C0.584,-0.79 0.581,-0.763 0.574,-0.736C0.567,-0.709 0.556,-0.675 0.542,-0.634C0.539,-0.627 0.535,-0.615 0.529,-0.6C0.523,-0.584 0.516,-0.566 0.506,-0.545C0.498,-0.524 0.489,-0.503 0.48,-0.485C0.471,-0.466 0.463,-0.45 0.456,-0.437C0.437,-0.402 0.4,-0.349 0.346,-0.278Z" style="fill:rgb(224,223,213);fill-rule:nonzero;"/>
            </g>
            <g transform="matrix(59.4059,0,0,59.4059,679.089,874)">
                <path d="M0.302,-0.275C0.286,-0.271 0.272,-0.268 0.26,-0.265C0.248,-0.262 0.238,-0.261 0.231,-0.261C0.224,-0.261 0.22,-0.263 0.22,-0.266C0.22,-0.27 0.227,-0.277 0.24,-0.287C0.243,-0.289 0.245,-0.292 0.246,-0.296C0.247,-0.301 0.249,-0.305 0.252,-0.31C0.255,-0.314 0.26,-0.319 0.267,-0.325C0.282,-0.342 0.299,-0.358 0.318,-0.373C0.337,-0.387 0.35,-0.396 0.359,-0.399C0.366,-0.403 0.372,-0.405 0.378,-0.405C0.389,-0.405 0.395,-0.399 0.395,-0.388C0.395,-0.381 0.393,-0.373 0.388,-0.364C0.377,-0.342 0.363,-0.323 0.346,-0.307C0.33,-0.29 0.315,-0.28 0.302,-0.275ZM0.419,-0.299C0.454,-0.358 0.472,-0.401 0.472,-0.43C0.472,-0.461 0.453,-0.482 0.414,-0.492C0.405,-0.492 0.393,-0.489 0.379,-0.483C0.365,-0.476 0.35,-0.468 0.334,-0.457C0.317,-0.446 0.3,-0.434 0.283,-0.42C0.266,-0.405 0.249,-0.39 0.233,-0.374C0.228,-0.369 0.222,-0.363 0.215,-0.356C0.208,-0.349 0.2,-0.339 0.19,-0.327C0.178,-0.314 0.168,-0.303 0.161,-0.295C0.153,-0.286 0.147,-0.282 0.144,-0.281C0.141,-0.28 0.136,-0.276 0.13,-0.271C0.123,-0.266 0.117,-0.26 0.11,-0.254C0.103,-0.247 0.098,-0.241 0.093,-0.234C0.088,-0.228 0.086,-0.223 0.086,-0.22C0.086,-0.218 0.087,-0.217 0.088,-0.216C0.089,-0.215 0.089,-0.215 0.089,-0.214C0.089,-0.211 0.087,-0.206 0.082,-0.2C0.077,-0.193 0.07,-0.183 0.061,-0.17C0.048,-0.153 0.039,-0.141 0.036,-0.135C0.028,-0.123 0.021,-0.109 0.016,-0.093C0.011,-0.076 0.008,-0.059 0.008,-0.041C0.008,-0.008 0.032,0.008 0.081,0.008C0.092,0.008 0.114,0.002 0.147,-0.009C0.18,-0.02 0.216,-0.034 0.256,-0.051C0.281,-0.061 0.305,-0.073 0.33,-0.086C0.355,-0.1 0.371,-0.111 0.379,-0.12C0.382,-0.123 0.385,-0.127 0.389,-0.13C0.394,-0.134 0.397,-0.139 0.4,-0.144C0.403,-0.149 0.405,-0.159 0.408,-0.172C0.408,-0.174 0.407,-0.175 0.406,-0.175C0.403,-0.175 0.397,-0.171 0.387,-0.163C0.375,-0.154 0.367,-0.148 0.362,-0.146C0.356,-0.144 0.348,-0.141 0.34,-0.136C0.331,-0.131 0.318,-0.125 0.303,-0.116C0.281,-0.104 0.267,-0.097 0.261,-0.094L0.256,-0.092C0.227,-0.081 0.203,-0.074 0.186,-0.069C0.169,-0.064 0.154,-0.061 0.141,-0.061C0.132,-0.061 0.123,-0.063 0.112,-0.068C0.101,-0.072 0.095,-0.08 0.095,-0.092C0.096,-0.107 0.098,-0.119 0.102,-0.127C0.107,-0.134 0.117,-0.147 0.134,-0.166C0.141,-0.175 0.149,-0.184 0.158,-0.194L0.172,-0.194C0.178,-0.193 0.183,-0.193 0.187,-0.193C0.234,-0.193 0.278,-0.201 0.319,-0.218C0.36,-0.234 0.393,-0.261 0.419,-0.299Z" style="fill:rgb(224,223,213);fill-rule:nonzero;"/>
            </g>
            <g transform="matrix(59.4059,0,0,59.4059,720.733,874)">
                <path d="M0.528,-0.338C0.506,-0.326 0.475,-0.316 0.436,-0.307C0.396,-0.298 0.344,-0.291 0.279,-0.287C0.3,-0.324 0.335,-0.379 0.382,-0.45C0.438,-0.534 0.479,-0.603 0.506,-0.656C0.533,-0.709 0.546,-0.762 0.546,-0.813C0.513,-0.813 0.49,-0.807 0.477,-0.795C0.464,-0.783 0.452,-0.765 0.443,-0.742C0.437,-0.727 0.427,-0.702 0.413,-0.667C0.397,-0.625 0.384,-0.592 0.374,-0.569C0.364,-0.545 0.356,-0.53 0.35,-0.524C0.335,-0.507 0.321,-0.489 0.309,-0.47C0.296,-0.452 0.282,-0.429 0.265,-0.401C0.246,-0.369 0.23,-0.343 0.216,-0.323C0.202,-0.302 0.186,-0.284 0.168,-0.267C0.134,-0.264 0.103,-0.263 0.076,-0.263C0.058,-0.263 0.046,-0.262 0.041,-0.261C0.035,-0.259 0.027,-0.254 0.016,-0.245C0.013,-0.243 0.011,-0.241 0.009,-0.24C-0.007,-0.227 -0.015,-0.215 -0.015,-0.206C-0.015,-0.19 0.008,-0.182 0.054,-0.182C0.071,-0.182 0.082,-0.181 0.089,-0.178C0.096,-0.174 0.103,-0.169 0.11,-0.162L0.114,-0.158C0.092,-0.119 0.076,-0.088 0.067,-0.067C0.058,-0.046 0.053,-0.031 0.053,-0.023C0.053,-0.016 0.056,-0.012 0.063,-0.012C0.067,-0.012 0.075,-0.014 0.088,-0.019L0.09,-0.02C0.114,-0.027 0.13,-0.034 0.137,-0.039C0.144,-0.043 0.152,-0.051 0.16,-0.062C0.167,-0.071 0.172,-0.079 0.177,-0.084C0.183,-0.092 0.189,-0.098 0.196,-0.101C0.203,-0.103 0.21,-0.105 0.217,-0.106C0.225,-0.107 0.229,-0.109 0.229,-0.113C0.229,-0.116 0.226,-0.123 0.221,-0.133C0.22,-0.136 0.217,-0.14 0.213,-0.143C0.208,-0.148 0.206,-0.151 0.206,-0.154C0.206,-0.159 0.211,-0.167 0.222,-0.176C0.227,-0.181 0.231,-0.185 0.235,-0.189C0.24,-0.194 0.256,-0.199 0.282,-0.202C0.324,-0.209 0.373,-0.221 0.428,-0.236C0.454,-0.243 0.47,-0.247 0.475,-0.247C0.478,-0.247 0.479,-0.246 0.479,-0.245C0.452,-0.201 0.422,-0.149 0.389,-0.088C0.373,-0.059 0.362,-0.04 0.356,-0.031C0.349,-0.021 0.343,-0.016 0.338,-0.016C0.334,-0.017 0.329,-0.019 0.322,-0.022C0.306,-0.028 0.296,-0.031 0.292,-0.031C0.288,-0.031 0.286,-0.029 0.286,-0.026C0.286,-0.021 0.292,-0.009 0.303,0.009C0.304,0.02 0.305,0.026 0.307,0.028C0.308,0.03 0.315,0.032 0.328,0.033C0.338,0.034 0.349,0.036 0.36,0.037C0.373,0.037 0.385,0.034 0.398,0.029C0.41,0.024 0.421,0.013 0.431,-0.006C0.453,-0.044 0.471,-0.076 0.485,-0.102C0.498,-0.129 0.512,-0.157 0.527,-0.186C0.54,-0.211 0.55,-0.23 0.557,-0.242C0.564,-0.253 0.571,-0.263 0.579,-0.271C0.587,-0.278 0.597,-0.284 0.609,-0.289C0.62,-0.294 0.638,-0.3 0.663,-0.307C0.668,-0.308 0.674,-0.31 0.681,-0.313C0.687,-0.316 0.694,-0.318 0.702,-0.319C0.71,-0.32 0.723,-0.321 0.741,-0.321C0.754,-0.321 0.763,-0.323 0.768,-0.327C0.773,-0.331 0.776,-0.336 0.776,-0.343C0.776,-0.35 0.774,-0.357 0.771,-0.365C0.767,-0.373 0.763,-0.38 0.759,-0.386C0.758,-0.387 0.758,-0.387 0.758,-0.387C0.757,-0.389 0.755,-0.39 0.753,-0.39C0.751,-0.39 0.746,-0.388 0.739,-0.385C0.726,-0.379 0.713,-0.374 0.7,-0.37C0.686,-0.366 0.668,-0.364 0.646,-0.364C0.645,-0.364 0.641,-0.364 0.634,-0.365L0.621,-0.365C0.636,-0.398 0.655,-0.43 0.678,-0.463C0.7,-0.495 0.73,-0.535 0.767,-0.584C0.816,-0.646 0.853,-0.698 0.879,-0.74C0.906,-0.781 0.923,-0.822 0.932,-0.863C0.918,-0.868 0.904,-0.873 0.891,-0.879C0.885,-0.882 0.881,-0.883 0.88,-0.883C0.878,-0.883 0.875,-0.88 0.87,-0.873L0.869,-0.872C0.867,-0.867 0.861,-0.864 0.85,-0.861C0.841,-0.859 0.833,-0.856 0.828,-0.852C0.822,-0.847 0.818,-0.84 0.815,-0.829C0.812,-0.82 0.809,-0.813 0.808,-0.808C0.801,-0.785 0.794,-0.765 0.787,-0.749C0.78,-0.732 0.767,-0.709 0.75,-0.68C0.733,-0.651 0.706,-0.608 0.67,-0.553C0.634,-0.497 0.587,-0.425 0.528,-0.338Z" style="fill:rgb(224,223,213);fill-rule:nonzero;"/>
            </g>
            <g transform="matrix(59.4059,0,0,59.4059,761.842,874)">
                <path d="M0.296,-0.158C0.301,-0.163 0.309,-0.171 0.318,-0.181C0.327,-0.19 0.34,-0.204 0.357,-0.222C0.371,-0.237 0.379,-0.245 0.381,-0.247C0.394,-0.258 0.404,-0.271 0.412,-0.284C0.42,-0.297 0.431,-0.322 0.445,-0.358C0.453,-0.377 0.459,-0.394 0.464,-0.408C0.468,-0.424 0.47,-0.439 0.47,-0.455C0.47,-0.466 0.467,-0.474 0.461,-0.48C0.454,-0.486 0.446,-0.489 0.435,-0.489C0.429,-0.489 0.423,-0.488 0.417,-0.486C0.409,-0.483 0.395,-0.479 0.375,-0.473C0.35,-0.466 0.331,-0.46 0.32,-0.456C0.308,-0.451 0.299,-0.445 0.293,-0.438C0.284,-0.428 0.277,-0.42 0.272,-0.413C0.267,-0.407 0.262,-0.4 0.259,-0.393L0.259,-0.404C0.259,-0.419 0.258,-0.426 0.255,-0.426C0.254,-0.426 0.253,-0.425 0.25,-0.422C0.249,-0.421 0.244,-0.42 0.236,-0.419C0.225,-0.418 0.214,-0.415 0.204,-0.412C0.195,-0.409 0.185,-0.401 0.176,-0.39C0.169,-0.381 0.16,-0.372 0.148,-0.362C0.14,-0.355 0.134,-0.348 0.129,-0.343C0.124,-0.338 0.12,-0.33 0.117,-0.321C0.114,-0.313 0.111,-0.304 0.107,-0.295C0.102,-0.285 0.098,-0.276 0.093,-0.268C0.09,-0.264 0.087,-0.254 0.082,-0.237C0.08,-0.228 0.078,-0.221 0.076,-0.216C0.068,-0.191 0.056,-0.156 0.041,-0.112C0.029,-0.077 0.021,-0.054 0.018,-0.043C0.015,-0.032 0.013,-0.023 0.013,-0.017C0.013,-0.016 0.013,-0.014 0.014,-0.011C0.015,-0.009 0.015,-0.007 0.015,-0.006C0.015,-0.005 0.015,-0.003 0.016,-0.002C0.017,0.003 0.018,0.007 0.02,0.009C0.022,0.011 0.027,0.012 0.034,0.012C0.039,0.011 0.045,0.011 0.051,0.01C0.064,0.009 0.073,0.007 0.079,0.005C0.085,0.004 0.09,0.001 0.095,-0.004C0.099,-0.008 0.102,-0.011 0.106,-0.013C0.109,-0.015 0.113,-0.017 0.12,-0.019C0.126,-0.021 0.133,-0.025 0.141,-0.033C0.15,-0.04 0.158,-0.048 0.167,-0.058C0.174,-0.065 0.184,-0.069 0.198,-0.072C0.211,-0.075 0.22,-0.08 0.225,-0.085C0.236,-0.098 0.249,-0.111 0.262,-0.125C0.275,-0.139 0.287,-0.15 0.296,-0.158ZM0.205,-0.138C0.192,-0.126 0.181,-0.117 0.173,-0.111C0.165,-0.104 0.158,-0.099 0.152,-0.096C0.146,-0.092 0.14,-0.089 0.135,-0.086C0.129,-0.084 0.121,-0.081 0.11,-0.078C0.103,-0.077 0.099,-0.076 0.096,-0.076C0.091,-0.076 0.088,-0.077 0.088,-0.08C0.088,-0.082 0.089,-0.085 0.092,-0.09C0.094,-0.093 0.095,-0.096 0.096,-0.097C0.108,-0.12 0.117,-0.137 0.123,-0.149C0.129,-0.161 0.139,-0.181 0.153,-0.208C0.16,-0.223 0.166,-0.236 0.171,-0.245C0.188,-0.282 0.203,-0.309 0.218,-0.326C0.233,-0.343 0.251,-0.352 0.273,-0.353C0.281,-0.354 0.287,-0.356 0.29,-0.359C0.293,-0.362 0.296,-0.367 0.299,-0.374C0.3,-0.376 0.301,-0.378 0.302,-0.381C0.308,-0.392 0.315,-0.4 0.323,-0.403C0.33,-0.406 0.347,-0.407 0.372,-0.407C0.381,-0.407 0.388,-0.405 0.391,-0.402C0.394,-0.399 0.395,-0.392 0.395,-0.381C0.395,-0.374 0.394,-0.365 0.392,-0.356C0.39,-0.347 0.387,-0.339 0.383,-0.332C0.37,-0.307 0.358,-0.287 0.347,-0.271C0.336,-0.255 0.328,-0.246 0.321,-0.244C0.314,-0.242 0.29,-0.221 0.249,-0.181C0.236,-0.169 0.222,-0.155 0.205,-0.138Z" style="fill:rgb(224,223,213);fill-rule:nonzero;"/>
            </g>
            <g transform="matrix(59.4059,0,0,59.4059,785.129,874)">
                <path d="M0.175,-0.36C0.14,-0.303 0.112,-0.259 0.093,-0.226C0.073,-0.193 0.059,-0.168 0.05,-0.151C0.041,-0.134 0.035,-0.121 0.033,-0.114C0.03,-0.106 0.028,-0.097 0.027,-0.088C0.026,-0.083 0.026,-0.079 0.025,-0.075C0.024,-0.066 0.023,-0.058 0.023,-0.051C0.023,-0.037 0.026,-0.024 0.033,-0.011C0.037,-0.003 0.042,0.001 0.048,0.001C0.055,0.001 0.065,-0.003 0.078,-0.011C0.09,-0.011 0.104,-0.017 0.119,-0.029C0.134,-0.042 0.142,-0.059 0.142,-0.081L0.142,-0.087C0.141,-0.09 0.141,-0.092 0.141,-0.093C0.136,-0.083 0.131,-0.078 0.124,-0.078C0.117,-0.078 0.114,-0.082 0.114,-0.089C0.12,-0.11 0.127,-0.131 0.135,-0.152C0.143,-0.172 0.153,-0.194 0.165,-0.217C0.176,-0.239 0.191,-0.263 0.207,-0.289C0.225,-0.315 0.245,-0.344 0.268,-0.375C0.355,-0.386 0.414,-0.393 0.448,-0.398C0.481,-0.403 0.5,-0.407 0.506,-0.41C0.512,-0.413 0.52,-0.415 0.53,-0.418C0.54,-0.421 0.548,-0.424 0.554,-0.428C0.559,-0.431 0.564,-0.438 0.569,-0.447C0.574,-0.451 0.578,-0.456 0.583,-0.463C0.588,-0.47 0.59,-0.475 0.59,-0.478C0.59,-0.48 0.589,-0.481 0.586,-0.481C0.583,-0.481 0.577,-0.479 0.568,-0.475C0.563,-0.473 0.558,-0.472 0.553,-0.471C0.547,-0.47 0.538,-0.47 0.525,-0.47C0.515,-0.47 0.494,-0.468 0.463,-0.465C0.413,-0.46 0.371,-0.457 0.338,-0.455C0.333,-0.455 0.327,-0.455 0.32,-0.454C0.317,-0.453 0.315,-0.453 0.314,-0.453C0.313,-0.453 0.313,-0.454 0.312,-0.455C0.312,-0.456 0.316,-0.462 0.324,-0.472C0.329,-0.478 0.333,-0.484 0.338,-0.49C0.36,-0.523 0.38,-0.553 0.397,-0.58C0.414,-0.606 0.435,-0.637 0.458,-0.674C0.488,-0.721 0.506,-0.749 0.513,-0.76C0.524,-0.778 0.529,-0.791 0.529,-0.8C0.529,-0.807 0.526,-0.811 0.519,-0.811C0.512,-0.811 0.506,-0.809 0.5,-0.804C0.491,-0.798 0.484,-0.794 0.479,-0.793C0.474,-0.791 0.468,-0.79 0.463,-0.789C0.458,-0.789 0.455,-0.788 0.453,-0.787C0.449,-0.784 0.441,-0.773 0.43,-0.753C0.419,-0.732 0.411,-0.717 0.404,-0.707C0.374,-0.652 0.348,-0.607 0.325,-0.57C0.302,-0.533 0.275,-0.492 0.242,-0.447C0.232,-0.447 0.217,-0.443 0.197,-0.434C0.183,-0.428 0.174,-0.425 0.169,-0.425L0.168,-0.425C0.159,-0.424 0.152,-0.422 0.146,-0.417C0.14,-0.411 0.132,-0.399 0.121,-0.378C0.117,-0.369 0.115,-0.36 0.115,-0.349C0.115,-0.342 0.116,-0.33 0.118,-0.313C0.127,-0.328 0.137,-0.341 0.15,-0.352C0.162,-0.362 0.171,-0.367 0.176,-0.367C0.177,-0.367 0.178,-0.366 0.178,-0.365C0.178,-0.364 0.177,-0.363 0.175,-0.36Z" style="fill:rgb(224,223,213);fill-rule:nonzero;"/>
            </g>
            <g transform="matrix(59.4059,0,0,59.4059,821.782,874)">
                <path d="M0.167,-0.278C0.182,-0.284 0.189,-0.289 0.189,-0.292C0.189,-0.295 0.186,-0.297 0.18,-0.298C0.174,-0.299 0.167,-0.299 0.159,-0.299C0.142,-0.299 0.125,-0.295 0.107,-0.288C0.088,-0.28 0.071,-0.27 0.056,-0.259C0.04,-0.247 0.027,-0.235 0.018,-0.224C0.008,-0.213 0.003,-0.204 0.003,-0.198C0.003,-0.161 0.008,-0.13 0.017,-0.106C0.025,-0.081 0.045,-0.061 0.074,-0.044C0.104,-0.029 0.144,-0.015 0.194,-0.001C0.243,0.013 0.298,0.021 0.357,0.023C0.374,0.023 0.395,0.022 0.42,0.021C0.444,0.02 0.464,0.019 0.479,0.019C0.504,0.018 0.531,0.017 0.559,0.014C0.586,0.012 0.616,0.008 0.648,0.002C0.679,-0.004 0.711,-0.013 0.743,-0.024C0.774,-0.035 0.803,-0.049 0.83,-0.066C0.853,-0.081 0.87,-0.098 0.881,-0.116C0.892,-0.134 0.897,-0.153 0.897,-0.173C0.897,-0.188 0.894,-0.203 0.889,-0.219C0.877,-0.256 0.858,-0.287 0.831,-0.31C0.804,-0.333 0.768,-0.358 0.725,-0.384C0.715,-0.39 0.707,-0.395 0.7,-0.399C0.679,-0.412 0.656,-0.425 0.63,-0.44C0.604,-0.454 0.577,-0.468 0.55,-0.483C0.522,-0.498 0.479,-0.52 0.42,-0.549C0.411,-0.553 0.405,-0.556 0.403,-0.557C0.386,-0.565 0.377,-0.574 0.377,-0.584C0.377,-0.59 0.379,-0.596 0.384,-0.601C0.389,-0.606 0.394,-0.61 0.4,-0.615L0.401,-0.615C0.482,-0.668 0.547,-0.705 0.596,-0.727C0.645,-0.748 0.685,-0.759 0.715,-0.759C0.735,-0.759 0.755,-0.754 0.774,-0.744C0.791,-0.734 0.799,-0.721 0.799,-0.705C0.799,-0.696 0.795,-0.688 0.787,-0.681C0.779,-0.674 0.767,-0.671 0.752,-0.671L0.744,-0.671C0.742,-0.672 0.741,-0.672 0.74,-0.672C0.735,-0.672 0.733,-0.671 0.733,-0.669C0.733,-0.668 0.734,-0.666 0.736,-0.663C0.74,-0.657 0.743,-0.652 0.744,-0.648C0.751,-0.632 0.755,-0.624 0.756,-0.624C0.757,-0.624 0.757,-0.625 0.757,-0.627C0.757,-0.628 0.757,-0.629 0.756,-0.63L0.756,-0.637C0.756,-0.646 0.758,-0.652 0.761,-0.655C0.765,-0.657 0.772,-0.658 0.782,-0.658C0.793,-0.659 0.803,-0.66 0.811,-0.661C0.819,-0.661 0.827,-0.665 0.834,-0.672C0.841,-0.679 0.849,-0.689 0.859,-0.704C0.868,-0.717 0.875,-0.726 0.879,-0.731C0.886,-0.74 0.891,-0.751 0.897,-0.762C0.902,-0.773 0.904,-0.784 0.904,-0.795C0.904,-0.809 0.899,-0.82 0.888,-0.829C0.881,-0.836 0.871,-0.841 0.858,-0.845C0.845,-0.848 0.826,-0.85 0.801,-0.85C0.776,-0.85 0.756,-0.849 0.743,-0.848C0.73,-0.847 0.717,-0.843 0.704,-0.838C0.667,-0.827 0.622,-0.81 0.571,-0.787C0.52,-0.764 0.47,-0.737 0.422,-0.705L0.417,-0.701C0.4,-0.69 0.385,-0.679 0.372,-0.668C0.358,-0.657 0.344,-0.646 0.332,-0.632C0.319,-0.62 0.308,-0.606 0.299,-0.591C0.29,-0.576 0.286,-0.561 0.285,-0.546C0.286,-0.523 0.292,-0.504 0.303,-0.49C0.314,-0.476 0.332,-0.464 0.355,-0.455C0.366,-0.449 0.392,-0.437 0.431,-0.42C0.476,-0.4 0.515,-0.382 0.548,-0.367C0.557,-0.363 0.57,-0.356 0.588,-0.345C0.606,-0.335 0.626,-0.323 0.648,-0.309C0.669,-0.295 0.691,-0.28 0.712,-0.264C0.733,-0.248 0.751,-0.232 0.767,-0.217C0.77,-0.214 0.774,-0.209 0.779,-0.204C0.787,-0.197 0.793,-0.19 0.796,-0.184C0.799,-0.178 0.8,-0.169 0.8,-0.158C0.8,-0.143 0.796,-0.13 0.789,-0.118C0.782,-0.108 0.767,-0.098 0.744,-0.089C0.71,-0.079 0.671,-0.071 0.627,-0.064C0.583,-0.057 0.543,-0.054 0.507,-0.054L0.396,-0.057C0.361,-0.057 0.328,-0.06 0.299,-0.066C0.269,-0.072 0.236,-0.081 0.2,-0.093C0.16,-0.106 0.131,-0.119 0.113,-0.134C0.095,-0.148 0.086,-0.168 0.086,-0.195C0.086,-0.21 0.094,-0.225 0.111,-0.241C0.127,-0.256 0.146,-0.269 0.167,-0.278Z" style="fill:rgb(224,223,213);fill-rule:nonzero;"/>
            </g>
            <g transform="matrix(59.4059,0,0,59.4059,877.564,874)">
                <path d="M0.098,-0.101C0.125,-0.147 0.155,-0.191 0.188,-0.233C0.22,-0.275 0.255,-0.313 0.292,-0.348C0.334,-0.389 0.363,-0.409 0.379,-0.409L0.382,-0.409C0.383,-0.408 0.384,-0.408 0.385,-0.408C0.399,-0.401 0.406,-0.392 0.406,-0.381C0.406,-0.376 0.405,-0.371 0.402,-0.364C0.401,-0.361 0.4,-0.357 0.398,-0.352C0.387,-0.317 0.376,-0.289 0.365,-0.266C0.354,-0.243 0.341,-0.226 0.325,-0.213C0.322,-0.211 0.318,-0.208 0.313,-0.204C0.306,-0.199 0.301,-0.193 0.298,-0.188C0.295,-0.181 0.287,-0.177 0.276,-0.176C0.27,-0.175 0.266,-0.174 0.264,-0.171C0.262,-0.168 0.261,-0.164 0.26,-0.159C0.258,-0.152 0.255,-0.148 0.252,-0.146C0.247,-0.144 0.238,-0.139 0.225,-0.13C0.212,-0.121 0.196,-0.109 0.176,-0.095C0.161,-0.084 0.15,-0.076 0.141,-0.07C0.132,-0.065 0.127,-0.061 0.124,-0.06C0.118,-0.057 0.112,-0.055 0.106,-0.055C0.104,-0.055 0.101,-0.055 0.098,-0.056C0.094,-0.057 0.091,-0.057 0.088,-0.057C0.087,-0.058 0.086,-0.058 0.083,-0.058C0.079,-0.059 0.077,-0.06 0.077,-0.062C0.077,-0.065 0.079,-0.069 0.082,-0.076C0.085,-0.082 0.091,-0.09 0.098,-0.101ZM0.356,-0.457C0.339,-0.445 0.321,-0.431 0.302,-0.413C0.283,-0.397 0.264,-0.379 0.245,-0.36C0.226,-0.341 0.21,-0.325 0.197,-0.31C0.183,-0.295 0.172,-0.282 0.165,-0.272L0.021,-0.068C0.012,-0.058 0.007,-0.05 0.005,-0.043C0.003,-0.036 0.002,-0.027 0.001,-0.014L0.001,-0.012C0.001,-0.005 0.003,0.002 0.008,0.008C0.012,0.014 0.018,0.017 0.026,0.017C0.027,0.017 0.028,0.017 0.03,0.017C0.031,0.016 0.033,0.016 0.034,0.016C0.044,0.011 0.055,0.007 0.066,0.003C0.077,-0.001 0.086,-0.003 0.093,-0.003C0.098,-0.003 0.106,-0.006 0.117,-0.012C0.128,-0.018 0.137,-0.025 0.146,-0.032C0.159,-0.044 0.171,-0.055 0.184,-0.064C0.197,-0.073 0.206,-0.077 0.211,-0.078C0.217,-0.078 0.222,-0.081 0.225,-0.086C0.227,-0.089 0.229,-0.09 0.23,-0.091C0.245,-0.108 0.258,-0.122 0.271,-0.133C0.284,-0.143 0.294,-0.148 0.301,-0.148C0.305,-0.148 0.311,-0.15 0.32,-0.153C0.329,-0.156 0.338,-0.161 0.347,-0.166C0.357,-0.171 0.366,-0.177 0.374,-0.184C0.382,-0.19 0.387,-0.196 0.389,-0.202L0.389,-0.195L0.39,-0.191C0.39,-0.183 0.388,-0.175 0.384,-0.167C0.383,-0.166 0.383,-0.166 0.383,-0.166C0.38,-0.161 0.374,-0.144 0.364,-0.117C0.357,-0.098 0.351,-0.082 0.345,-0.067C0.339,-0.051 0.334,-0.041 0.331,-0.036C0.328,-0.03 0.327,-0.025 0.327,-0.02C0.327,-0.011 0.332,-0.006 0.343,-0.003C0.352,-0.001 0.361,-0 0.372,-0C0.383,-0 0.388,-0.001 0.389,-0.004C0.391,-0.009 0.398,-0.013 0.41,-0.017C0.412,-0.018 0.413,-0.018 0.414,-0.018C0.421,-0.021 0.43,-0.028 0.44,-0.038C0.449,-0.047 0.458,-0.054 0.465,-0.059C0.472,-0.073 0.475,-0.084 0.475,-0.091C0.475,-0.096 0.473,-0.099 0.469,-0.099L0.467,-0.098L0.465,-0.098C0.46,-0.097 0.45,-0.092 0.435,-0.083C0.424,-0.076 0.415,-0.072 0.41,-0.069C0.411,-0.086 0.417,-0.103 0.426,-0.121C0.435,-0.138 0.447,-0.159 0.464,-0.184C0.492,-0.225 0.509,-0.257 0.516,-0.278C0.519,-0.287 0.522,-0.305 0.524,-0.331C0.525,-0.354 0.527,-0.369 0.529,-0.378C0.52,-0.374 0.512,-0.372 0.507,-0.372C0.502,-0.372 0.498,-0.374 0.497,-0.377C0.495,-0.38 0.494,-0.384 0.493,-0.389L0.493,-0.392C0.494,-0.401 0.495,-0.41 0.495,-0.419C0.495,-0.454 0.488,-0.476 0.473,-0.485C0.468,-0.49 0.46,-0.492 0.45,-0.492C0.437,-0.492 0.421,-0.489 0.404,-0.482C0.387,-0.474 0.371,-0.466 0.356,-0.457Z" style="fill:rgb(224,223,213);fill-rule:nonzero;"/>
            </g>
            <g transform="matrix(59.4059,0,0,59.4059,907.98,874)">
                <path d="M0.317,-0.45C0.317,-0.451 0.317,-0.452 0.318,-0.453L0.318,-0.457C0.318,-0.46 0.317,-0.465 0.316,-0.473C0.315,-0.482 0.314,-0.489 0.313,-0.496C0.311,-0.505 0.307,-0.512 0.302,-0.516C0.296,-0.519 0.288,-0.521 0.278,-0.521L0.274,-0.521C0.268,-0.52 0.263,-0.519 0.259,-0.518C0.254,-0.517 0.251,-0.514 0.249,-0.51C0.238,-0.494 0.224,-0.469 0.205,-0.434C0.187,-0.399 0.171,-0.366 0.157,-0.333C0.153,-0.324 0.149,-0.315 0.145,-0.306C0.13,-0.273 0.115,-0.244 0.102,-0.217C0.089,-0.19 0.07,-0.155 0.047,-0.113C0.041,-0.102 0.032,-0.085 0.019,-0.064C0.006,-0.041 -0.001,-0.026 -0.001,-0.021C-0.001,-0.016 0.002,-0.011 0.007,-0.006C0.018,0.005 0.029,0.011 0.042,0.011C0.052,0.011 0.062,0.007 0.071,-0L0.113,-0.027C0.142,-0.046 0.161,-0.059 0.172,-0.066C0.183,-0.073 0.193,-0.078 0.202,-0.083C0.209,-0.086 0.218,-0.096 0.227,-0.113C0.234,-0.126 0.24,-0.133 0.244,-0.133C0.247,-0.133 0.253,-0.135 0.262,-0.14C0.27,-0.145 0.279,-0.151 0.29,-0.159C0.3,-0.166 0.309,-0.174 0.317,-0.181C0.325,-0.188 0.331,-0.195 0.335,-0.201C0.338,-0.206 0.343,-0.209 0.352,-0.212C0.359,-0.213 0.363,-0.215 0.365,-0.218C0.371,-0.225 0.38,-0.234 0.391,-0.243C0.402,-0.252 0.414,-0.262 0.427,-0.271C0.424,-0.262 0.421,-0.251 0.417,-0.239C0.413,-0.228 0.409,-0.217 0.404,-0.208C0.401,-0.202 0.397,-0.194 0.394,-0.184C0.391,-0.175 0.389,-0.168 0.386,-0.162L0.383,-0.155C0.372,-0.133 0.365,-0.117 0.361,-0.108C0.357,-0.099 0.352,-0.087 0.346,-0.074C0.341,-0.06 0.336,-0.047 0.333,-0.035C0.33,-0.022 0.328,-0.012 0.328,-0.005C0.329,-0.002 0.333,-0 0.339,-0C0.346,-0 0.356,-0.002 0.367,-0.005C0.378,-0.008 0.387,-0.012 0.394,-0.016C0.401,-0.019 0.408,-0.024 0.416,-0.03C0.423,-0.036 0.432,-0.046 0.443,-0.059C0.432,-0.065 0.427,-0.072 0.427,-0.08C0.427,-0.087 0.432,-0.104 0.443,-0.133C0.448,-0.146 0.453,-0.157 0.456,-0.167C0.459,-0.176 0.465,-0.186 0.475,-0.198C0.486,-0.212 0.498,-0.229 0.509,-0.249C0.521,-0.268 0.536,-0.298 0.554,-0.337C0.561,-0.353 0.57,-0.371 0.581,-0.392C0.59,-0.411 0.595,-0.422 0.595,-0.425C0.595,-0.429 0.592,-0.431 0.585,-0.432C0.582,-0.433 0.577,-0.434 0.57,-0.435C0.557,-0.437 0.549,-0.438 0.544,-0.438C0.538,-0.438 0.533,-0.436 0.529,-0.433C0.498,-0.408 0.453,-0.37 0.392,-0.319C0.337,-0.272 0.297,-0.239 0.272,-0.219C0.259,-0.208 0.248,-0.199 0.238,-0.191C0.23,-0.183 0.218,-0.173 0.205,-0.16L0.18,-0.135C0.169,-0.122 0.159,-0.112 0.15,-0.107C0.141,-0.102 0.125,-0.096 0.101,-0.089C0.106,-0.109 0.113,-0.129 0.124,-0.149C0.135,-0.168 0.149,-0.192 0.166,-0.221C0.166,-0.221 0.169,-0.226 0.175,-0.235L0.233,-0.327C0.236,-0.332 0.24,-0.335 0.244,-0.338C0.249,-0.341 0.252,-0.345 0.255,-0.35C0.256,-0.352 0.26,-0.357 0.266,-0.365C0.279,-0.384 0.29,-0.4 0.299,-0.413C0.307,-0.427 0.313,-0.439 0.317,-0.45Z" style="fill:rgb(224,223,213);fill-rule:nonzero;"/>
            </g>
            <g transform="matrix(59.4059,0,0,59.4059,939.109,874)">
                <path d="M0.165,-0.343C0.158,-0.332 0.146,-0.314 0.128,-0.287C0.087,-0.225 0.058,-0.177 0.04,-0.141C0.022,-0.107 0.013,-0.072 0.013,-0.039C0.013,-0.037 0.013,-0.034 0.014,-0.031L0.014,-0.023C0.016,-0.009 0.02,0.001 0.025,0.006C0.03,0.011 0.039,0.014 0.05,0.015C0.051,0.015 0.053,0.015 0.055,0.015C0.058,0.016 0.061,0.016 0.063,0.016C0.076,0.016 0.093,0.014 0.112,0.01C0.131,0.006 0.152,-0.001 0.175,-0.01C0.198,-0.019 0.221,-0.032 0.245,-0.049C0.269,-0.065 0.291,-0.085 0.311,-0.108C0.328,-0.127 0.337,-0.14 0.337,-0.146C0.337,-0.148 0.336,-0.149 0.334,-0.149C0.331,-0.149 0.328,-0.148 0.323,-0.146C0.318,-0.143 0.313,-0.14 0.309,-0.137C0.294,-0.124 0.279,-0.113 0.264,-0.105C0.249,-0.096 0.228,-0.086 0.201,-0.074C0.182,-0.064 0.164,-0.059 0.146,-0.059C0.131,-0.059 0.118,-0.063 0.108,-0.07C0.098,-0.078 0.093,-0.089 0.093,-0.104C0.093,-0.111 0.095,-0.12 0.098,-0.129L0.161,-0.24C0.17,-0.255 0.182,-0.274 0.197,-0.295C0.212,-0.316 0.227,-0.336 0.243,-0.357C0.258,-0.377 0.272,-0.394 0.284,-0.406C0.297,-0.42 0.305,-0.426 0.31,-0.426C0.315,-0.426 0.318,-0.425 0.32,-0.424C0.321,-0.423 0.324,-0.418 0.328,-0.411C0.331,-0.406 0.332,-0.399 0.332,-0.39C0.332,-0.38 0.33,-0.362 0.325,-0.336C0.323,-0.321 0.321,-0.31 0.32,-0.302C0.329,-0.302 0.338,-0.306 0.347,-0.315C0.356,-0.323 0.366,-0.335 0.377,-0.35C0.384,-0.359 0.388,-0.365 0.39,-0.368C0.397,-0.377 0.402,-0.388 0.405,-0.403C0.407,-0.417 0.411,-0.438 0.414,-0.466C0.414,-0.467 0.415,-0.475 0.417,-0.489C0.417,-0.496 0.416,-0.502 0.415,-0.505C0.414,-0.508 0.411,-0.512 0.408,-0.515C0.405,-0.518 0.401,-0.52 0.398,-0.52C0.397,-0.52 0.395,-0.52 0.392,-0.519C0.39,-0.518 0.388,-0.518 0.386,-0.517C0.382,-0.516 0.376,-0.515 0.367,-0.512C0.358,-0.509 0.35,-0.506 0.342,-0.503C0.333,-0.5 0.325,-0.497 0.317,-0.494C0.308,-0.491 0.302,-0.488 0.299,-0.486C0.29,-0.481 0.28,-0.473 0.267,-0.461C0.254,-0.449 0.241,-0.435 0.227,-0.42C0.213,-0.405 0.201,-0.39 0.19,-0.377C0.179,-0.363 0.17,-0.352 0.165,-0.343Z" style="fill:rgb(224,223,213);fill-rule:nonzero;"/>
            </g>
            <g transform="matrix(59.4059,0,0,59.4059,958.653,874)">
                <path d="M0.302,-0.275C0.286,-0.271 0.272,-0.268 0.26,-0.265C0.248,-0.262 0.238,-0.261 0.231,-0.261C0.224,-0.261 0.22,-0.263 0.22,-0.266C0.22,-0.27 0.227,-0.277 0.24,-0.287C0.243,-0.289 0.245,-0.292 0.246,-0.296C0.247,-0.301 0.249,-0.305 0.252,-0.31C0.255,-0.314 0.26,-0.319 0.267,-0.325C0.282,-0.342 0.299,-0.358 0.318,-0.373C0.337,-0.387 0.35,-0.396 0.359,-0.399C0.366,-0.403 0.372,-0.405 0.378,-0.405C0.389,-0.405 0.395,-0.399 0.395,-0.388C0.395,-0.381 0.393,-0.373 0.388,-0.364C0.377,-0.342 0.363,-0.323 0.346,-0.307C0.33,-0.29 0.315,-0.28 0.302,-0.275ZM0.419,-0.299C0.454,-0.358 0.472,-0.401 0.472,-0.43C0.472,-0.461 0.453,-0.482 0.414,-0.492C0.405,-0.492 0.393,-0.489 0.379,-0.483C0.365,-0.476 0.35,-0.468 0.334,-0.457C0.317,-0.446 0.3,-0.434 0.283,-0.42C0.266,-0.405 0.249,-0.39 0.233,-0.374C0.228,-0.369 0.222,-0.363 0.215,-0.356C0.208,-0.349 0.2,-0.339 0.19,-0.327C0.178,-0.314 0.168,-0.303 0.161,-0.295C0.153,-0.286 0.147,-0.282 0.144,-0.281C0.141,-0.28 0.136,-0.276 0.13,-0.271C0.123,-0.266 0.117,-0.26 0.11,-0.254C0.103,-0.247 0.098,-0.241 0.093,-0.234C0.088,-0.228 0.086,-0.223 0.086,-0.22C0.086,-0.218 0.087,-0.217 0.088,-0.216C0.089,-0.215 0.089,-0.215 0.089,-0.214C0.089,-0.211 0.087,-0.206 0.082,-0.2C0.077,-0.193 0.07,-0.183 0.061,-0.17C0.048,-0.153 0.039,-0.141 0.036,-0.135C0.028,-0.123 0.021,-0.109 0.016,-0.093C0.011,-0.076 0.008,-0.059 0.008,-0.041C0.008,-0.008 0.032,0.008 0.081,0.008C0.092,0.008 0.114,0.002 0.147,-0.009C0.18,-0.02 0.216,-0.034 0.256,-0.051C0.281,-0.061 0.305,-0.073 0.33,-0.086C0.355,-0.1 0.371,-0.111 0.379,-0.12C0.382,-0.123 0.385,-0.127 0.389,-0.13C0.394,-0.134 0.397,-0.139 0.4,-0.144C0.403,-0.149 0.405,-0.159 0.408,-0.172C0.408,-0.174 0.407,-0.175 0.406,-0.175C0.403,-0.175 0.397,-0.171 0.387,-0.163C0.375,-0.154 0.367,-0.148 0.362,-0.146C0.356,-0.144 0.348,-0.141 0.34,-0.136C0.331,-0.131 0.318,-0.125 0.303,-0.116C0.281,-0.104 0.267,-0.097 0.261,-0.094L0.256,-0.092C0.227,-0.081 0.203,-0.074 0.186,-0.069C0.169,-0.064 0.154,-0.061 0.141,-0.061C0.132,-0.061 0.123,-0.063 0.112,-0.068C0.101,-0.072 0.095,-0.08 0.095,-0.092C0.096,-0.107 0.098,-0.119 0.102,-0.127C0.107,-0.134 0.117,-0.147 0.134,-0.166C0.141,-0.175 0.149,-0.184 0.158,-0.194L0.172,-0.194C0.178,-0.193 0.183,-0.193 0.187,-0.193C0.234,-0.193 0.278,-0.201 0.319,-0.218C0.36,-0.234 0.393,-0.261 0.419,-0.299Z" style="fill:rgb(224,223,213);fill-rule:nonzero;"/>
            </g>
        </g>
    </g>
</svg>
