<?xml version="1.0" encoding="UTF-8" standalone="no"?>
<!DOCTYPE svg PUBLIC "-//W3C//DTD SVG 1.1//EN" "http://www.w3.org/Graphics/SVG/1.1/DTD/svg11.dtd">
<svg width="100%" height="100%" viewBox="0 0 90 103" version="1.1" xmlns="http://www.w3.org/2000/svg" xmlns:xlink="http://www.w3.org/1999/xlink" xml:space="preserve" xmlns:serif="http://www.serif.com/" style="fill-rule:evenodd;clip-rule:evenodd;stroke-linecap:round;stroke-linejoin:round;stroke-miterlimit:1.5;">
    <g transform="matrix(0.0677825,0,0,0.0774232,3.87536,-4.07769)">
        <g id="Artboard1">
            <rect x="-57.173" y="52.668" width="1327.68" height="1327.68" style="fill:none;"/>
            <g id="Ghost-Logo-Setup-2" serif:id="Ghost Logo Setup 2" transform="matrix(1.49808,0,0,1.31154,-262.04,-201.837)">
                <g transform="matrix(1,0,0,1,-905.671,273.017)">
                    <g transform="matrix(284.195,0,0,284.195,1140.11,252.453)">
                        <path d="M0.453,0.249C0.46,0.222 0.476,0.185 0.5,0.138C0.519,0.099 0.533,0.069 0.541,0.047C0.544,0.042 0.546,0.037 0.549,0.034C0.551,0.031 0.555,0.026 0.562,0.021C0.569,0.014 0.574,0.005 0.579,-0.006C0.583,-0.016 0.587,-0.028 0.591,-0.042C0.592,-0.047 0.593,-0.05 0.594,-0.051C0.597,-0.06 0.6,-0.069 0.601,-0.076C0.602,-0.083 0.602,-0.093 0.602,-0.106C0.601,-0.115 0.6,-0.122 0.599,-0.127C0.596,-0.147 0.595,-0.162 0.595,-0.172C0.595,-0.18 0.594,-0.186 0.591,-0.189C0.588,-0.192 0.583,-0.196 0.575,-0.201C0.57,-0.204 0.567,-0.206 0.564,-0.208C0.547,-0.221 0.529,-0.228 0.508,-0.228C0.485,-0.228 0.456,-0.22 0.423,-0.203C0.407,-0.195 0.388,-0.186 0.365,-0.174C0.342,-0.164 0.318,-0.152 0.293,-0.14C0.267,-0.127 0.246,-0.117 0.231,-0.111C0.216,-0.103 0.206,-0.099 0.202,-0.098C0.194,-0.094 0.185,-0.091 0.174,-0.09C0.164,-0.088 0.154,-0.087 0.144,-0.087C0.13,-0.087 0.121,-0.088 0.116,-0.09C0.113,-0.093 0.112,-0.097 0.112,-0.104C0.112,-0.107 0.112,-0.114 0.113,-0.123L0.114,-0.13C0.115,-0.133 0.115,-0.135 0.115,-0.136C0.116,-0.148 0.118,-0.157 0.119,-0.164C0.121,-0.171 0.124,-0.178 0.128,-0.186C0.132,-0.194 0.139,-0.204 0.148,-0.218C0.157,-0.231 0.168,-0.247 0.183,-0.267C0.188,-0.273 0.196,-0.282 0.206,-0.294C0.244,-0.338 0.276,-0.373 0.302,-0.399C0.327,-0.425 0.357,-0.449 0.39,-0.47C0.393,-0.472 0.398,-0.477 0.405,-0.485C0.411,-0.492 0.419,-0.502 0.428,-0.514C0.438,-0.527 0.444,-0.535 0.446,-0.537C0.459,-0.548 0.474,-0.561 0.489,-0.574C0.502,-0.585 0.511,-0.592 0.516,-0.595C0.52,-0.598 0.525,-0.601 0.532,-0.602C0.538,-0.603 0.558,-0.615 0.592,-0.638C0.621,-0.656 0.645,-0.671 0.664,-0.684C0.675,-0.691 0.685,-0.695 0.694,-0.695L0.7,-0.695C0.703,-0.694 0.705,-0.694 0.707,-0.694C0.721,-0.693 0.728,-0.686 0.728,-0.673C0.728,-0.663 0.722,-0.652 0.709,-0.639C0.704,-0.634 0.694,-0.627 0.68,-0.617C0.665,-0.607 0.654,-0.6 0.647,-0.596C0.64,-0.593 0.634,-0.589 0.63,-0.585C0.626,-0.58 0.619,-0.571 0.609,-0.558C0.601,-0.547 0.594,-0.537 0.588,-0.529C0.602,-0.514 0.612,-0.507 0.619,-0.507C0.625,-0.507 0.633,-0.51 0.644,-0.516C0.649,-0.519 0.659,-0.527 0.674,-0.538C0.687,-0.549 0.698,-0.557 0.707,-0.563C0.717,-0.57 0.724,-0.575 0.727,-0.578C0.749,-0.594 0.768,-0.609 0.784,-0.622C0.799,-0.634 0.815,-0.65 0.83,-0.669C0.833,-0.672 0.836,-0.678 0.841,-0.687C0.846,-0.695 0.851,-0.704 0.856,-0.714C0.861,-0.724 0.865,-0.734 0.869,-0.743C0.872,-0.751 0.874,-0.758 0.874,-0.763C0.874,-0.77 0.87,-0.778 0.862,-0.787C0.853,-0.795 0.842,-0.799 0.829,-0.8C0.828,-0.8 0.823,-0.8 0.815,-0.801L0.801,-0.801C0.785,-0.801 0.776,-0.799 0.773,-0.795C0.77,-0.792 0.765,-0.791 0.757,-0.791L0.747,-0.791C0.742,-0.792 0.739,-0.792 0.737,-0.792C0.732,-0.792 0.728,-0.791 0.725,-0.79C0.698,-0.775 0.672,-0.76 0.649,-0.748C0.626,-0.735 0.606,-0.723 0.589,-0.714C0.572,-0.704 0.557,-0.695 0.543,-0.686C0.529,-0.677 0.52,-0.671 0.515,-0.668C0.504,-0.661 0.49,-0.65 0.472,-0.636C0.455,-0.622 0.439,-0.609 0.425,-0.598C0.411,-0.586 0.396,-0.573 0.38,-0.559C0.363,-0.545 0.353,-0.536 0.348,-0.532C0.343,-0.527 0.337,-0.52 0.33,-0.513C0.323,-0.506 0.314,-0.497 0.304,-0.486C0.295,-0.476 0.29,-0.47 0.287,-0.467L0.138,-0.311C0.099,-0.269 0.069,-0.225 0.046,-0.179C0.023,-0.132 0.011,-0.093 0.011,-0.06C0.011,-0.04 0.011,-0.027 0.012,-0.022C0.012,-0.017 0.012,-0.013 0.013,-0.012C0.016,-0.006 0.021,0 0.027,0.007C0.033,0.014 0.038,0.018 0.041,0.018C0.043,0.018 0.045,0.017 0.048,0.015C0.053,0.012 0.057,0.011 0.061,0.011C0.066,0.011 0.073,0.013 0.081,0.016L0.083,0.017C0.09,0.018 0.096,0.019 0.1,0.019C0.105,0.019 0.11,0.018 0.115,0.015C0.116,0.014 0.118,0.012 0.12,0.01C0.123,0.006 0.126,0.003 0.129,0.002C0.152,-0.005 0.174,-0.014 0.196,-0.023C0.217,-0.032 0.241,-0.045 0.27,-0.06C0.274,-0.061 0.28,-0.063 0.287,-0.065C0.297,-0.068 0.307,-0.071 0.316,-0.075C0.325,-0.079 0.336,-0.086 0.35,-0.096C0.356,-0.1 0.367,-0.104 0.382,-0.108C0.402,-0.114 0.417,-0.12 0.427,-0.126C0.435,-0.131 0.444,-0.134 0.453,-0.134C0.463,-0.134 0.47,-0.131 0.474,-0.125L0.48,-0.111L0.48,-0.1C0.481,-0.097 0.481,-0.093 0.481,-0.09C0.481,-0.046 0.473,-0.003 0.458,0.038C0.443,0.08 0.419,0.132 0.387,0.195C0.38,0.209 0.374,0.221 0.369,0.231C0.368,0.234 0.367,0.238 0.367,0.242C0.367,0.246 0.368,0.252 0.369,0.261C0.372,0.275 0.373,0.287 0.373,0.296C0.373,0.298 0.373,0.3 0.372,0.302L0.372,0.31C0.376,0.319 0.38,0.323 0.383,0.324C0.388,0.325 0.392,0.326 0.396,0.328C0.401,0.331 0.407,0.332 0.413,0.332C0.42,0.332 0.426,0.331 0.431,0.329C0.435,0.328 0.439,0.325 0.444,0.32C0.448,0.317 0.451,0.313 0.453,0.307C0.454,0.301 0.455,0.294 0.455,0.285C0.455,0.279 0.455,0.271 0.454,0.262C0.453,0.256 0.453,0.252 0.453,0.249Z" style="fill:rgb(224,223,213);fill-rule:nonzero;"/>
                    </g>
                    <g transform="matrix(284.195,0,0,284.195,1327.68,252.453)">
                        <path d="M0.473,-0.833C0.477,-0.843 0.484,-0.858 0.494,-0.877C0.504,-0.897 0.516,-0.92 0.529,-0.946C0.546,-0.981 0.559,-1.006 0.567,-1.021C0.575,-1.036 0.58,-1.048 0.583,-1.056C0.589,-1.046 0.594,-1.036 0.597,-1.026C0.6,-1.016 0.602,-1.006 0.603,-0.995C0.608,-1.009 0.611,-1.021 0.612,-1.032C0.613,-1.043 0.614,-1.063 0.614,-1.093C0.614,-1.109 0.606,-1.117 0.59,-1.117L0.583,-1.117C0.572,-1.117 0.564,-1.115 0.557,-1.111C0.55,-1.106 0.541,-1.095 0.532,-1.078L0.493,-0.999C0.482,-0.978 0.475,-0.963 0.47,-0.954C0.465,-0.945 0.462,-0.939 0.461,-0.936C0.46,-0.933 0.457,-0.928 0.454,-0.921C0.45,-0.914 0.442,-0.901 0.431,-0.881C0.413,-0.844 0.393,-0.806 0.37,-0.767C0.347,-0.727 0.317,-0.676 0.28,-0.613C0.241,-0.549 0.209,-0.495 0.184,-0.45C0.158,-0.405 0.133,-0.357 0.108,-0.308C0.083,-0.259 0.062,-0.209 0.043,-0.159C0.025,-0.108 0.012,-0.06 0.003,-0.013C0.003,-0.012 0.003,-0.011 0.002,-0.01L0.002,-0.008C0.002,-0.006 0.003,-0.003 0.004,-0C0.005,0.003 0.005,0.004 0.005,0.005C0.013,0 0.026,-0.004 0.045,-0.007C0.057,-0.01 0.065,-0.012 0.068,-0.014C0.088,-0.026 0.106,-0.039 0.122,-0.054C0.137,-0.068 0.155,-0.086 0.176,-0.108C0.21,-0.143 0.238,-0.169 0.26,-0.186C0.263,-0.188 0.272,-0.199 0.289,-0.22C0.313,-0.25 0.334,-0.275 0.352,-0.295C0.369,-0.315 0.385,-0.329 0.4,-0.338C0.388,-0.311 0.37,-0.279 0.346,-0.242C0.334,-0.222 0.327,-0.21 0.326,-0.205C0.324,-0.199 0.32,-0.19 0.314,-0.178C0.307,-0.163 0.301,-0.151 0.298,-0.14C0.287,-0.103 0.282,-0.075 0.282,-0.056C0.282,-0.043 0.285,-0.027 0.29,-0.01C0.295,0.003 0.305,0.012 0.318,0.017C0.331,0.022 0.345,0.025 0.36,0.025C0.372,0.025 0.382,0.024 0.391,0.021C0.399,0.019 0.407,0.015 0.415,0.01C0.423,0.005 0.429,-0.001 0.433,-0.01C0.45,-0.018 0.464,-0.028 0.477,-0.041C0.49,-0.053 0.496,-0.062 0.496,-0.068C0.496,-0.071 0.493,-0.072 0.488,-0.072C0.449,-0.059 0.42,-0.053 0.401,-0.053C0.388,-0.053 0.379,-0.056 0.376,-0.062C0.372,-0.068 0.37,-0.077 0.369,-0.09L0.368,-0.098C0.368,-0.108 0.369,-0.118 0.371,-0.128C0.373,-0.138 0.377,-0.151 0.383,-0.167C0.389,-0.182 0.398,-0.203 0.411,-0.228C0.424,-0.253 0.44,-0.283 0.46,-0.319C0.471,-0.339 0.481,-0.36 0.49,-0.383C0.499,-0.406 0.505,-0.426 0.51,-0.443C0.498,-0.434 0.486,-0.43 0.475,-0.43C0.47,-0.43 0.464,-0.431 0.457,-0.433C0.454,-0.433 0.451,-0.434 0.447,-0.435C0.444,-0.436 0.442,-0.436 0.441,-0.436C0.436,-0.436 0.43,-0.433 0.423,-0.426C0.415,-0.421 0.404,-0.412 0.39,-0.399C0.376,-0.386 0.362,-0.374 0.349,-0.361C0.336,-0.348 0.324,-0.337 0.314,-0.326C0.303,-0.315 0.297,-0.308 0.295,-0.305C0.282,-0.285 0.268,-0.267 0.253,-0.251C0.237,-0.235 0.213,-0.212 0.18,-0.183C0.142,-0.148 0.111,-0.119 0.086,-0.096C0.101,-0.143 0.122,-0.193 0.149,-0.245C0.175,-0.297 0.208,-0.355 0.246,-0.418L0.44,-0.755L0.473,-0.833Z" style="fill:rgb(224,223,213);fill-rule:nonzero;"/>
                    </g>
                    <g transform="matrix(284.195,0,0,284.195,1457.84,252.453)">
                        <path d="M0.296,-0.158C0.301,-0.163 0.309,-0.171 0.318,-0.181C0.327,-0.19 0.34,-0.204 0.357,-0.222C0.371,-0.237 0.379,-0.245 0.381,-0.247C0.394,-0.258 0.404,-0.271 0.412,-0.284C0.42,-0.297 0.431,-0.322 0.445,-0.358C0.453,-0.377 0.459,-0.394 0.464,-0.408C0.468,-0.424 0.47,-0.439 0.47,-0.455C0.47,-0.466 0.467,-0.474 0.461,-0.48C0.454,-0.486 0.446,-0.489 0.435,-0.489C0.429,-0.489 0.423,-0.488 0.417,-0.486C0.409,-0.483 0.395,-0.479 0.375,-0.473C0.35,-0.466 0.331,-0.46 0.32,-0.456C0.308,-0.451 0.299,-0.445 0.293,-0.438C0.284,-0.428 0.277,-0.42 0.272,-0.413C0.267,-0.407 0.262,-0.4 0.259,-0.393L0.259,-0.404C0.259,-0.419 0.258,-0.426 0.255,-0.426C0.254,-0.426 0.253,-0.425 0.25,-0.422C0.249,-0.421 0.244,-0.42 0.236,-0.419C0.225,-0.418 0.214,-0.415 0.204,-0.412C0.195,-0.409 0.185,-0.401 0.176,-0.39C0.169,-0.381 0.16,-0.372 0.148,-0.362C0.14,-0.355 0.134,-0.348 0.129,-0.343C0.124,-0.338 0.12,-0.33 0.117,-0.321C0.114,-0.313 0.111,-0.304 0.107,-0.295C0.102,-0.285 0.098,-0.276 0.093,-0.268C0.09,-0.264 0.087,-0.254 0.082,-0.237C0.08,-0.228 0.078,-0.221 0.076,-0.216C0.068,-0.191 0.056,-0.156 0.041,-0.112C0.029,-0.077 0.021,-0.054 0.018,-0.043C0.015,-0.032 0.013,-0.023 0.013,-0.017C0.013,-0.016 0.013,-0.014 0.014,-0.011C0.015,-0.009 0.015,-0.007 0.015,-0.006C0.015,-0.005 0.015,-0.003 0.016,-0.002C0.017,0.003 0.018,0.007 0.02,0.009C0.022,0.011 0.027,0.012 0.034,0.012C0.039,0.011 0.045,0.011 0.051,0.01C0.064,0.009 0.073,0.007 0.079,0.005C0.085,0.004 0.09,0.001 0.095,-0.004C0.099,-0.008 0.102,-0.011 0.106,-0.013C0.109,-0.015 0.113,-0.017 0.12,-0.019C0.126,-0.021 0.133,-0.025 0.141,-0.033C0.15,-0.04 0.158,-0.048 0.167,-0.058C0.174,-0.065 0.184,-0.069 0.198,-0.072C0.211,-0.075 0.22,-0.08 0.225,-0.085C0.236,-0.098 0.249,-0.111 0.262,-0.125C0.275,-0.139 0.287,-0.15 0.296,-0.158ZM0.205,-0.138C0.192,-0.126 0.181,-0.117 0.173,-0.111C0.165,-0.104 0.158,-0.099 0.152,-0.096C0.146,-0.092 0.14,-0.089 0.135,-0.086C0.129,-0.084 0.121,-0.081 0.11,-0.078C0.103,-0.077 0.099,-0.076 0.096,-0.076C0.091,-0.076 0.088,-0.077 0.088,-0.08C0.088,-0.082 0.089,-0.085 0.092,-0.09C0.094,-0.093 0.095,-0.096 0.096,-0.097C0.108,-0.12 0.117,-0.137 0.123,-0.149C0.129,-0.161 0.139,-0.181 0.153,-0.208C0.16,-0.223 0.166,-0.236 0.171,-0.245C0.188,-0.282 0.203,-0.309 0.218,-0.326C0.233,-0.343 0.251,-0.352 0.273,-0.353C0.281,-0.354 0.287,-0.356 0.29,-0.359C0.293,-0.362 0.296,-0.367 0.299,-0.374C0.3,-0.376 0.301,-0.378 0.302,-0.381C0.308,-0.392 0.315,-0.4 0.323,-0.403C0.33,-0.406 0.347,-0.407 0.372,-0.407C0.381,-0.407 0.388,-0.405 0.391,-0.402C0.394,-0.399 0.395,-0.392 0.395,-0.381C0.395,-0.374 0.394,-0.365 0.392,-0.356C0.39,-0.347 0.387,-0.339 0.383,-0.332C0.37,-0.307 0.358,-0.287 0.347,-0.271C0.336,-0.255 0.328,-0.246 0.321,-0.244C0.314,-0.242 0.29,-0.221 0.249,-0.181C0.236,-0.169 0.222,-0.155 0.205,-0.138Z" style="fill:rgb(224,223,213);fill-rule:nonzero;"/>
                    </g>
                    <g transform="matrix(284.195,0,0,284.195,1569.25,252.453)">
                        <path d="M0.266,-0.081C0.266,-0.086 0.265,-0.092 0.263,-0.101C0.262,-0.108 0.261,-0.113 0.261,-0.116C0.261,-0.125 0.26,-0.132 0.259,-0.138C0.257,-0.144 0.253,-0.151 0.248,-0.16C0.242,-0.169 0.238,-0.175 0.236,-0.179C0.234,-0.183 0.233,-0.186 0.232,-0.189C0.231,-0.194 0.228,-0.199 0.224,-0.204C0.213,-0.219 0.207,-0.231 0.204,-0.239C0.201,-0.248 0.2,-0.259 0.2,-0.272C0.201,-0.289 0.202,-0.301 0.204,-0.308C0.206,-0.315 0.209,-0.321 0.213,-0.327C0.216,-0.332 0.219,-0.338 0.22,-0.343C0.223,-0.354 0.229,-0.364 0.238,-0.373C0.247,-0.381 0.26,-0.389 0.278,-0.398C0.283,-0.4 0.29,-0.403 0.297,-0.406C0.308,-0.411 0.316,-0.413 0.321,-0.414C0.33,-0.414 0.336,-0.411 0.341,-0.406C0.345,-0.402 0.347,-0.396 0.347,-0.389C0.347,-0.384 0.346,-0.38 0.344,-0.377C0.341,-0.369 0.335,-0.359 0.327,-0.347C0.318,-0.336 0.308,-0.323 0.297,-0.308C0.288,-0.297 0.283,-0.29 0.282,-0.288C0.285,-0.281 0.289,-0.278 0.292,-0.278C0.293,-0.278 0.296,-0.279 0.3,-0.281C0.303,-0.282 0.305,-0.283 0.306,-0.284C0.315,-0.292 0.325,-0.302 0.336,-0.315C0.347,-0.328 0.358,-0.341 0.369,-0.356C0.38,-0.371 0.39,-0.384 0.399,-0.396C0.407,-0.407 0.413,-0.416 0.416,-0.423C0.421,-0.432 0.423,-0.44 0.423,-0.447C0.423,-0.456 0.42,-0.462 0.414,-0.467C0.405,-0.473 0.393,-0.476 0.378,-0.476C0.354,-0.476 0.328,-0.469 0.299,-0.455C0.288,-0.45 0.276,-0.442 0.262,-0.433C0.248,-0.424 0.234,-0.413 0.221,-0.402C0.207,-0.391 0.195,-0.379 0.184,-0.366C0.172,-0.353 0.164,-0.341 0.159,-0.329C0.159,-0.328 0.157,-0.323 0.152,-0.314C0.145,-0.299 0.14,-0.285 0.137,-0.275C0.133,-0.264 0.131,-0.251 0.131,-0.237C0.131,-0.224 0.134,-0.209 0.139,-0.191C0.144,-0.172 0.153,-0.154 0.164,-0.137C0.171,-0.127 0.177,-0.119 0.18,-0.113C0.183,-0.106 0.185,-0.099 0.188,-0.09C0.189,-0.083 0.19,-0.079 0.191,-0.078C0.194,-0.073 0.195,-0.068 0.195,-0.065C0.195,-0.057 0.187,-0.053 0.17,-0.053C0.161,-0.053 0.151,-0.054 0.138,-0.057C0.125,-0.059 0.113,-0.061 0.102,-0.064C0.09,-0.067 0.078,-0.07 0.066,-0.074C0.054,-0.077 0.045,-0.08 0.039,-0.083C0.036,-0.094 0.032,-0.1 0.026,-0.1L0.023,-0.1C0.022,-0.099 0.021,-0.099 0.021,-0.099C0.011,-0.093 0.004,-0.088 0.001,-0.084C-0.003,-0.08 -0.006,-0.075 -0.009,-0.068C-0.023,-0.065 -0.034,-0.059 -0.041,-0.051C-0.049,-0.044 -0.053,-0.037 -0.053,-0.032C-0.053,-0.027 -0.05,-0.023 -0.045,-0.02C-0.04,-0.017 -0.035,-0.015 -0.03,-0.014C-0.015,-0.009 0.004,-0.003 0.027,0.002C0.05,0.007 0.069,0.01 0.086,0.011C0.101,0.011 0.119,0.009 0.138,0.006C0.157,0.003 0.174,-0.001 0.188,-0.005C0.197,-0.008 0.205,-0.013 0.215,-0.02C0.224,-0.027 0.232,-0.034 0.239,-0.043C0.247,-0.052 0.254,-0.059 0.259,-0.067C0.264,-0.074 0.266,-0.078 0.266,-0.081Z" style="fill:rgb(224,223,213);fill-rule:nonzero;"/>
                    </g>
                    <g transform="matrix(284.195,0,0,284.195,1660.19,252.453)">
                        <path d="M0.175,-0.36C0.14,-0.303 0.112,-0.259 0.093,-0.226C0.073,-0.193 0.059,-0.168 0.05,-0.151C0.041,-0.134 0.035,-0.121 0.033,-0.114C0.03,-0.106 0.028,-0.097 0.027,-0.088C0.026,-0.083 0.026,-0.079 0.025,-0.075C0.024,-0.066 0.023,-0.058 0.023,-0.051C0.023,-0.037 0.026,-0.024 0.033,-0.011C0.037,-0.003 0.042,0.001 0.048,0.001C0.055,0.001 0.065,-0.003 0.078,-0.011C0.09,-0.011 0.104,-0.017 0.119,-0.029C0.134,-0.042 0.142,-0.059 0.142,-0.081L0.142,-0.087C0.141,-0.09 0.141,-0.092 0.141,-0.093C0.136,-0.083 0.131,-0.078 0.124,-0.078C0.117,-0.078 0.114,-0.082 0.114,-0.089C0.12,-0.11 0.127,-0.131 0.135,-0.152C0.143,-0.172 0.153,-0.194 0.165,-0.217C0.176,-0.239 0.191,-0.263 0.207,-0.289C0.225,-0.315 0.245,-0.344 0.268,-0.375C0.355,-0.386 0.414,-0.393 0.448,-0.398C0.481,-0.403 0.5,-0.407 0.506,-0.41C0.512,-0.413 0.52,-0.415 0.53,-0.418C0.54,-0.421 0.548,-0.424 0.554,-0.428C0.559,-0.431 0.564,-0.438 0.569,-0.447C0.574,-0.451 0.578,-0.456 0.583,-0.463C0.588,-0.47 0.59,-0.475 0.59,-0.478C0.59,-0.48 0.589,-0.481 0.586,-0.481C0.583,-0.481 0.577,-0.479 0.568,-0.475C0.563,-0.473 0.558,-0.472 0.553,-0.471C0.547,-0.47 0.538,-0.47 0.525,-0.47C0.515,-0.47 0.494,-0.468 0.463,-0.465C0.413,-0.46 0.371,-0.457 0.338,-0.455C0.333,-0.455 0.327,-0.455 0.32,-0.454C0.317,-0.453 0.315,-0.453 0.314,-0.453C0.313,-0.453 0.313,-0.454 0.312,-0.455C0.312,-0.456 0.316,-0.462 0.324,-0.472C0.329,-0.478 0.333,-0.484 0.338,-0.49C0.36,-0.523 0.38,-0.553 0.397,-0.58C0.414,-0.606 0.435,-0.637 0.458,-0.674C0.488,-0.721 0.506,-0.749 0.513,-0.76C0.524,-0.778 0.529,-0.791 0.529,-0.8C0.529,-0.807 0.526,-0.811 0.519,-0.811C0.512,-0.811 0.506,-0.809 0.5,-0.804C0.491,-0.798 0.484,-0.794 0.479,-0.793C0.474,-0.791 0.468,-0.79 0.463,-0.789C0.458,-0.789 0.455,-0.788 0.453,-0.787C0.449,-0.784 0.441,-0.773 0.43,-0.753C0.419,-0.732 0.411,-0.717 0.404,-0.707C0.374,-0.652 0.348,-0.607 0.325,-0.57C0.302,-0.533 0.275,-0.492 0.242,-0.447C0.232,-0.447 0.217,-0.443 0.197,-0.434C0.183,-0.428 0.174,-0.425 0.169,-0.425L0.168,-0.425C0.159,-0.424 0.152,-0.422 0.146,-0.417C0.14,-0.411 0.132,-0.399 0.121,-0.378C0.117,-0.369 0.115,-0.36 0.115,-0.349C0.115,-0.342 0.116,-0.33 0.118,-0.313C0.127,-0.328 0.137,-0.341 0.15,-0.352C0.162,-0.362 0.171,-0.367 0.176,-0.367C0.177,-0.367 0.178,-0.366 0.178,-0.365C0.178,-0.364 0.177,-0.363 0.175,-0.36Z" style="fill:rgb(224,223,213);fill-rule:nonzero;"/>
                    </g>
                </g>
                <g transform="matrix(0.878963,0,0,0.878963,349.995,730.015)">
                    <circle cx="261.541" cy="161.382" r="309.821" style="fill:none;stroke:rgb(224,223,213);stroke-width:18.2px;"/>
                </g>
                <g transform="matrix(0.637724,0,0,0.637724,253.392,409.962)">
                    <path d="M616.343,554C615.474,554.026 614.1,554.121 613.528,554.421C613.082,554.655 612.635,555.382 612.915,555.801C613.221,556.261 614.497,556.833 615.369,557.182C616.264,557.54 617.292,557.784 618.283,557.949C619.357,558.128 620.891,558.102 621.811,558.256C622.497,558.37 623.345,558.588 623.805,558.869C624.181,559.098 624.143,559.849 624.572,559.943C625.621,560.173 628.867,560.071 630.095,560.25C630.752,560.346 631.475,560.684 631.935,561.017C632.35,561.316 632.445,561.939 632.856,562.244C633.546,562.755 635.078,563.356 636.077,564.084C637.304,564.979 638.991,566.59 640.218,567.612C641.28,568.497 642.533,569.178 643.44,570.22C645.996,573.16 652.336,580.446 655.558,585.252C658.448,589.565 660.773,594.839 662.767,599.058C664.54,602.809 666.002,606.701 667.522,610.562C669.133,614.653 671.229,620.507 672.431,623.6C673.153,625.459 674.016,627.282 674.732,629.122C675.441,630.946 676.095,632.792 676.726,634.645C677.953,638.249 680.703,645.265 682.094,650.751C683.833,657.602 686.603,667.268 687.156,675.754C688.077,689.866 687.821,725.248 687.616,735.423C687.602,736.149 686.284,736.169 685.929,736.803C685.571,737.443 685.503,738.426 685.469,739.258C685.367,741.738 685.374,747.541 685.316,751.682C685.239,757.102 685.034,766.434 685.009,771.777C684.99,775.765 685.539,779.771 685.162,783.741C684.728,788.317 682.938,795.527 682.401,799.234C682.078,801.466 682.041,803.73 681.941,805.983C681.762,810.022 681.685,819.124 681.327,823.47C681.089,826.369 680.202,829.375 679.793,832.06C679.413,834.555 679.276,837.084 678.873,839.576C678.464,842.107 677.864,844.692 677.339,847.245C676.777,849.981 675.652,853.228 675.498,855.989C675.353,858.61 676.512,861.188 676.419,863.812C676.317,866.701 675.396,870.638 674.885,873.322C674.463,875.539 673.837,877.975 673.351,879.918C672.927,881.615 672.519,883.319 671.97,884.98C671.025,887.843 668.383,892.871 667.675,897.098C666.678,903.054 666.627,916.553 665.988,920.72C665.859,921.561 664.024,921.269 663.841,922.101C662.997,925.935 661.565,938.718 660.926,943.729C660.568,946.535 660.568,949.455 660.006,952.165C659.451,954.841 658.733,957.524 657.552,959.988C651.876,971.825 628.254,1022.88 625.953,1023.19C623.652,1023.49 623.959,1031.55 623.192,1034.38C622.66,1036.35 622.195,1038.36 621.351,1040.21C619.92,1043.36 616.519,1049.24 614.602,1053.25C612.874,1056.87 611.853,1060.83 609.847,1064.3C607.29,1068.72 602.382,1075.95 599.263,1079.79C596.934,1082.65 593.542,1084.51 591.133,1087.3C587.477,1091.55 582.071,1099.38 577.328,1105.25C572.164,1111.64 565.235,1119.64 560.148,1125.65C555.718,1130.88 550.535,1137.03 546.803,1141.3C543.849,1144.68 541.134,1148.32 537.753,1151.27C533.125,1155.31 523.283,1162.36 519.039,1165.53C516.834,1167.18 514.693,1169.42 512.29,1170.29C509.887,1171.16 506.921,1169.85 504.62,1170.75C502.319,1171.64 499.891,1174.81 498.484,1175.66C497.825,1176.05 496.567,1175.35 496.184,1175.81C495.8,1176.27 496.876,1177.89 496.184,1178.42C494.905,1179.39 489.895,1180.69 488.514,1181.64C487.818,1182.12 488.335,1183.66 487.9,1184.09C487.466,1184.53 486.469,1183.91 485.906,1184.25C485.344,1184.58 485.152,1185.64 484.526,1186.09C483.657,1186.7 481.893,1187.6 480.691,1187.93C479.606,1188.23 478.195,1187.38 477.316,1188.08C474.734,1190.15 467.372,1197.49 465.198,1200.35C464.192,1201.68 465.198,1204.11 464.278,1205.26C463.358,1206.41 460.827,1206.41 459.676,1207.26C458.646,1208.01 458.631,1210.08 457.375,1210.32C454.18,1210.94 443.417,1210.09 440.502,1210.94C439.065,1211.35 440.119,1214.18 439.889,1215.39C439.709,1216.32 439.735,1217.53 439.122,1218.15C438.508,1218.76 436.985,1218.41 436.207,1219.07C435.21,1219.91 434.086,1222.21 433.14,1223.21C432.407,1223.98 431.549,1224.74 430.532,1225.05C428.538,1225.66 423.604,1226.79 421.175,1226.89C419.391,1226.96 417.57,1226.23 415.96,1225.66C414.405,1225.12 412.875,1224.44 411.511,1223.52C409.696,1222.29 406.782,1219.96 405.069,1218.3C403.607,1216.88 402.436,1215.18 401.234,1213.55C400.034,1211.91 398.921,1210.21 397.86,1208.48C396.76,1206.69 395.868,1204.6 394.638,1202.81C393.079,1200.53 390.19,1197.11 388.503,1194.83C387.125,1192.97 385.256,1190.82 384.514,1189.16C383.928,1187.84 384.668,1186.06 384.054,1184.86C383.441,1183.66 381.908,1182.92 380.833,1181.95C377.944,1179.34 370.581,1173.31 366.721,1169.21C363.317,1165.61 359.972,1160.42 357.671,1157.4C356.077,1155.31 353.913,1153.18 352.916,1151.11C352.011,1149.24 352.2,1146.18 351.689,1144.98C351.41,1144.33 350.269,1144.48 349.848,1143.9C348.774,1142.45 346.418,1138.98 345.246,1136.24C343.968,1133.24 343.457,1129.28 342.178,1125.96C340.9,1122.63 338.522,1118.6 337.577,1116.29C337.034,1114.98 336.547,1113.58 336.503,1112.15C336.273,1104.79 335.94,1079.15 336.196,1072.12C336.23,1071.17 337.759,1070.87 338.037,1069.97C338.446,1068.64 338.397,1066.08 338.65,1064.14C338.932,1061.99 338.999,1059.35 339.724,1057.09C340.542,1054.53 342.536,1050.59 343.559,1048.8C344.115,1047.83 345.366,1047.35 345.86,1046.35C346.55,1044.94 346.829,1042.26 347.7,1040.37C348.723,1038.14 350.445,1035.38 351.995,1033C353.759,1030.29 356.067,1026.98 358.284,1024.11C361.557,1019.86 366.958,1012.88 371.63,1007.54C376.308,1002.2 382.52,996.265 386.355,992.047C389.235,988.879 392.67,984.429 394.638,982.23C395.724,981.018 397.706,980.417 398.166,978.856C398.882,976.427 398.703,970.777 398.933,967.658C399.118,965.151 398.984,961.497 399.547,960.142C399.908,959.271 401.893,960.375 402.308,959.528C402.973,958.173 403.099,954.513 403.535,952.012C404.021,949.225 404.778,945.896 405.222,942.808C405.785,938.897 406.475,932.378 406.91,928.543C407.24,925.631 407.83,922.73 407.83,919.8C407.83,912.718 407.6,893.314 406.91,886.054C406.584,882.625 404.609,878.665 403.688,876.236C403.064,874.59 401.964,873.145 401.388,871.481C400.723,869.564 400.544,866.01 399.7,864.732C399.058,863.759 396.823,864.866 396.326,863.812C395.686,862.457 396.147,858.852 395.865,856.602C395.6,854.483 395.009,852.417 394.638,850.313C394.255,848.14 393.744,845.251 393.565,843.564C393.446,842.445 393.871,840.88 393.565,840.189C393.295,839.582 391.962,840.043 391.724,839.422C391.213,838.093 390.829,834.386 390.497,832.213C390.2,830.276 389.777,828.343 389.73,826.384C389.602,821.092 389.73,806.136 389.73,800.461C389.73,797.751 389.474,793.737 389.73,792.331C389.823,791.818 391.246,792.546 391.264,792.024C391.443,786.656 390.957,766.894 390.803,760.119C390.737,757.201 390.701,753.089 390.343,751.376C390.188,750.632 388.92,750.555 388.656,749.842C388.221,748.666 388.169,746.135 387.736,744.32C387.199,742.07 386.048,737.724 385.435,736.343C385.243,735.912 384.19,736.488 384.054,736.036C383.645,734.682 383.441,729.671 382.981,728.214C382.788,727.603 381.412,727.923 381.293,727.293C381.038,725.938 381.677,721.413 381.447,720.084C381.349,719.52 380.226,719.795 379.913,719.317C378.89,717.757 376.128,713.871 375.311,710.727C374.314,706.892 374.672,700.066 373.93,696.308C373.37,693.466 371.681,690.811 370.863,688.178C370.083,685.668 369.124,683.136 369.022,680.509C368.69,671.944 368.664,644.794 368.868,636.792C368.907,635.289 369.964,633.974 370.249,632.497C370.658,630.375 370.888,626.668 371.323,624.061C371.727,621.637 372.166,618.334 372.857,616.851C373.294,615.913 375.16,616.153 375.464,615.164C375.873,613.834 374.838,610.918 375.311,608.875C375.797,606.778 377.259,604.632 378.379,602.586C380.296,599.083 383.747,592.181 386.815,587.86C389.709,583.785 393.258,579.935 396.786,576.663C400.212,573.484 405.989,570.143 407.983,568.226C408.743,567.495 408.118,566.001 408.75,565.158C409.824,563.726 412.58,561.523 414.426,559.636C416.727,557.284 419.846,553.347 422.556,551.046C425.01,548.962 428.308,547.237 430.685,545.831C432.674,544.655 434.75,543.53 436.821,542.61C438.861,541.703 441.269,540.846 443.11,540.309C444.66,539.857 446.408,539.874 447.865,539.388C449.275,538.918 450.45,537.885 451.853,537.394C454.487,536.474 460.162,534.966 463.665,533.866C466.75,532.898 471.053,531.463 472.868,530.798C473.47,530.578 474.311,530.47 474.555,529.878C474.913,529.009 474.837,526.708 475.016,525.583C475.148,524.75 475.132,523.81 475.629,523.129C476.319,522.183 478.445,521.332 479.157,519.908C479.95,518.323 480.129,514.973 480.384,513.619C480.5,513.007 480.331,512.285 480.691,511.778C481.126,511.164 482.232,510.56 482.992,509.937C484.27,508.889 486.724,506.869 488.361,505.489C489.857,504.226 491.283,502.88 492.809,501.654C494.368,500.401 496.516,498.995 497.718,497.973C498.571,497.246 499.696,496.592 500.018,495.518C500.479,493.984 500.163,491.002 500.479,488.769C500.836,486.238 501.706,482.608 502.166,480.333C502.518,478.593 503.16,476.89 503.24,475.117C503.419,471.155 503.01,460.954 503.24,456.557C503.378,453.912 504.348,451.368 504.62,448.734C505.029,444.771 505.464,437.051 505.694,432.781C505.867,429.563 505.902,426.339 506.001,423.117C506.18,417.289 506.64,405.298 506.768,397.808C506.879,391.264 506.844,384.718 506.768,378.174C506.691,371.629 506.231,362.886 506.307,358.54C506.346,356.371 507.017,354.256 507.228,352.097C507.843,345.808 509.259,328.782 510,320.805C510.514,315.279 511.466,309.785 511.676,304.239C512.083,293.501 512.722,265.354 512.443,256.381C512.376,254.228 510.407,251.907 510,250.398C509.733,249.411 510,248.353 510,247.331C510,245.336 509.695,240.581 510,238.434C510.206,236.986 511.067,235.694 511.83,234.446C512.595,233.193 513.951,232.145 514.591,230.918C515.204,229.74 514.974,227.978 515.664,227.083C516.355,226.188 517.866,226.295 518.732,225.549C519.653,224.756 519.93,222.822 521.186,222.328C522.746,221.714 525.785,221.961 528.089,221.868C530.62,221.765 533.867,221.663 536.372,221.714C538.627,221.76 541.741,221.816 543.121,222.174C543.857,222.365 544.307,223.186 544.655,223.862C545.09,224.705 545.473,226.265 545.729,227.236C545.941,228.041 546.08,228.865 546.189,229.691C546.368,231.045 546.754,233.464 546.803,235.366C546.88,238.357 546.88,245.055 546.649,247.637C546.547,248.782 545.497,249.712 545.422,250.859C545.218,254.003 545.627,263.36 545.422,266.505C545.348,267.651 544.262,268.579 544.195,269.726C543.991,273.254 544.349,282.048 544.195,287.673C544.051,292.946 543.582,299.484 543.275,303.472C543.066,306.191 542.407,308.875 542.354,311.602C542.278,315.615 542.84,323.387 542.815,327.554C542.796,330.578 542.248,333.581 542.201,336.605C542.099,343.251 542.176,360.176 542.201,367.436C542.216,371.68 542.124,376.154 542.354,380.168C542.572,383.967 543.224,387.914 543.582,391.519C543.921,394.941 544.23,398.367 544.502,401.796C544.834,405.989 545.218,413.377 545.576,416.675C545.756,418.34 546.515,419.914 546.649,421.584C546.982,425.7 546.982,436.693 547.57,441.371C547.931,444.243 549.558,446.827 550.177,449.654C550.944,453.157 551.532,458.398 552.172,462.386C552.77,466.121 553.169,470.055 554.012,473.583C554.825,476.98 556.467,480.972 557.233,483.554C557.774,485.373 558.205,487.644 558.614,489.076C558.912,490.118 559.406,491.098 559.688,492.144C560.046,493.473 560.455,495.672 560.761,497.052C561.012,498.178 561.145,499.558 561.528,500.427C561.851,501.158 562.594,501.621 563.062,502.268C563.599,503.009 564.034,504.287 564.75,504.875C565.462,505.46 566.49,505.484 567.357,505.796C568.354,506.153 569.601,506.632 570.732,507.023C572.138,507.508 574.413,508.045 575.794,508.71C576.983,509.282 577.967,510.423 579.015,511.011C579.976,511.55 581.221,511.553 582.083,512.238C583.08,513.031 583.991,514.62 584.997,515.766C586.097,517.019 587.631,518.783 588.679,519.754C589.459,520.477 590.782,520.658 591.286,521.595C591.823,522.592 591.878,524.341 591.9,525.736C591.926,527.373 591.568,529.725 591.44,531.412C591.328,532.894 590.571,535.017 591.133,535.86C591.695,536.704 593.665,535.997 594.814,536.474C596.169,537.036 597.726,538.408 599.263,539.235C600.925,540.13 602.931,541.002 604.785,541.843C606.702,542.712 609.003,543.786 610.767,544.45C612.266,545.015 614.04,545.473 615.369,545.831C616.483,546.131 617.849,546.138 618.744,546.598C619.579,547.028 620.337,547.741 620.738,548.592C621.147,549.461 621.121,550.867 621.198,551.813C621.264,552.628 621.607,553.858 621.198,554.267C620.789,554.676 619.553,554.312 618.744,554.267C617.94,554.223 617.148,553.976 616.343,554Z" style="fill:rgb(232,233,235);stroke:rgb(224,223,213);stroke-width:25.09px;"/>
                </g>
            </g>
        </g>
    </g>
</svg>
