<?xml version="1.0" encoding="UTF-8" standalone="no"?>
<!DOCTYPE svg PUBLIC "-//W3C//DTD SVG 1.1//EN" "http://www.w3.org/Graphics/SVG/1.1/DTD/svg11.dtd">
<svg width="100%" height="100%" viewBox="0 0 1455 916" version="1.1" xmlns="http://www.w3.org/2000/svg" xmlns:xlink="http://www.w3.org/1999/xlink" xml:space="preserve" xmlns:serif="http://www.serif.com/" style="fill-rule:evenodd;clip-rule:evenodd;stroke-linejoin:round;stroke-miterlimit:2;">
    <g transform="matrix(2.08333,0,0,2.08333,0,0)">
        <g id="Artboard1" transform="matrix(1.04292,0,0,0.801942,-206.171,-121.168)">
            <rect x="197.687" y="151.094" width="669.435" height="547.98" style="fill:none;"/>
            <g transform="matrix(0.958851,0,0,1.24697,-892.017,249.377)">
                <g transform="matrix(284.195,0,0,284.195,1140.11,252.453)">
                    <path d="M0.453,0.249C0.46,0.222 0.476,0.185 0.5,0.138C0.519,0.099 0.533,0.069 0.541,0.047C0.544,0.042 0.546,0.037 0.549,0.034C0.551,0.031 0.555,0.026 0.562,0.021C0.569,0.014 0.574,0.005 0.579,-0.006C0.583,-0.016 0.587,-0.028 0.591,-0.042C0.592,-0.047 0.593,-0.05 0.594,-0.051C0.597,-0.06 0.6,-0.069 0.601,-0.076C0.602,-0.083 0.602,-0.093 0.602,-0.106C0.601,-0.115 0.6,-0.122 0.599,-0.127C0.596,-0.147 0.595,-0.162 0.595,-0.172C0.595,-0.18 0.594,-0.186 0.591,-0.189C0.588,-0.192 0.583,-0.196 0.575,-0.201C0.57,-0.204 0.567,-0.206 0.564,-0.208C0.547,-0.221 0.529,-0.228 0.508,-0.228C0.485,-0.228 0.456,-0.22 0.423,-0.203C0.407,-0.195 0.388,-0.186 0.365,-0.174C0.342,-0.164 0.318,-0.152 0.293,-0.14C0.267,-0.127 0.246,-0.117 0.231,-0.111C0.216,-0.103 0.206,-0.099 0.202,-0.098C0.194,-0.094 0.185,-0.091 0.174,-0.09C0.164,-0.088 0.154,-0.087 0.144,-0.087C0.13,-0.087 0.121,-0.088 0.116,-0.09C0.113,-0.093 0.112,-0.097 0.112,-0.104C0.112,-0.107 0.112,-0.114 0.113,-0.123L0.114,-0.13C0.115,-0.133 0.115,-0.135 0.115,-0.136C0.116,-0.148 0.118,-0.157 0.119,-0.164C0.121,-0.171 0.124,-0.178 0.128,-0.186C0.132,-0.194 0.139,-0.204 0.148,-0.218C0.157,-0.231 0.168,-0.247 0.183,-0.267C0.188,-0.273 0.196,-0.282 0.206,-0.294C0.244,-0.338 0.276,-0.373 0.302,-0.399C0.327,-0.425 0.357,-0.449 0.39,-0.47C0.393,-0.472 0.398,-0.477 0.405,-0.485C0.411,-0.492 0.419,-0.502 0.428,-0.514C0.438,-0.527 0.444,-0.535 0.446,-0.537C0.459,-0.548 0.474,-0.561 0.489,-0.574C0.502,-0.585 0.511,-0.592 0.516,-0.595C0.52,-0.598 0.525,-0.601 0.532,-0.602C0.538,-0.603 0.558,-0.615 0.592,-0.638C0.621,-0.656 0.645,-0.671 0.664,-0.684C0.675,-0.691 0.685,-0.695 0.694,-0.695L0.7,-0.695C0.703,-0.694 0.705,-0.694 0.707,-0.694C0.721,-0.693 0.728,-0.686 0.728,-0.673C0.728,-0.663 0.722,-0.652 0.709,-0.639C0.704,-0.634 0.694,-0.627 0.68,-0.617C0.665,-0.607 0.654,-0.6 0.647,-0.596C0.64,-0.593 0.634,-0.589 0.63,-0.585C0.626,-0.58 0.619,-0.571 0.609,-0.558C0.601,-0.547 0.594,-0.537 0.588,-0.529C0.602,-0.514 0.612,-0.507 0.619,-0.507C0.625,-0.507 0.633,-0.51 0.644,-0.516C0.649,-0.519 0.659,-0.527 0.674,-0.538C0.687,-0.549 0.698,-0.557 0.707,-0.563C0.717,-0.57 0.724,-0.575 0.727,-0.578C0.749,-0.594 0.768,-0.609 0.784,-0.622C0.799,-0.634 0.815,-0.65 0.83,-0.669C0.833,-0.672 0.836,-0.678 0.841,-0.687C0.846,-0.695 0.851,-0.704 0.856,-0.714C0.861,-0.724 0.865,-0.734 0.869,-0.743C0.872,-0.751 0.874,-0.758 0.874,-0.763C0.874,-0.77 0.87,-0.778 0.862,-0.787C0.853,-0.795 0.842,-0.799 0.829,-0.8C0.828,-0.8 0.823,-0.8 0.815,-0.801L0.801,-0.801C0.785,-0.801 0.776,-0.799 0.773,-0.795C0.77,-0.792 0.765,-0.791 0.757,-0.791L0.747,-0.791C0.742,-0.792 0.739,-0.792 0.737,-0.792C0.732,-0.792 0.728,-0.791 0.725,-0.79C0.698,-0.775 0.672,-0.76 0.649,-0.748C0.626,-0.735 0.606,-0.723 0.589,-0.714C0.572,-0.704 0.557,-0.695 0.543,-0.686C0.529,-0.677 0.52,-0.671 0.515,-0.668C0.504,-0.661 0.49,-0.65 0.472,-0.636C0.455,-0.622 0.439,-0.609 0.425,-0.598C0.411,-0.586 0.396,-0.573 0.38,-0.559C0.363,-0.545 0.353,-0.536 0.348,-0.532C0.343,-0.527 0.337,-0.52 0.33,-0.513C0.323,-0.506 0.314,-0.497 0.304,-0.486C0.295,-0.476 0.29,-0.47 0.287,-0.467L0.138,-0.311C0.099,-0.269 0.069,-0.225 0.046,-0.179C0.023,-0.132 0.011,-0.093 0.011,-0.06C0.011,-0.04 0.011,-0.027 0.012,-0.022C0.012,-0.017 0.012,-0.013 0.013,-0.012C0.016,-0.006 0.021,0 0.027,0.007C0.033,0.014 0.038,0.018 0.041,0.018C0.043,0.018 0.045,0.017 0.048,0.015C0.053,0.012 0.057,0.011 0.061,0.011C0.066,0.011 0.073,0.013 0.081,0.016L0.083,0.017C0.09,0.018 0.096,0.019 0.1,0.019C0.105,0.019 0.11,0.018 0.115,0.015C0.116,0.014 0.118,0.012 0.12,0.01C0.123,0.006 0.126,0.003 0.129,0.002C0.152,-0.005 0.174,-0.014 0.196,-0.023C0.217,-0.032 0.241,-0.045 0.27,-0.06C0.274,-0.061 0.28,-0.063 0.287,-0.065C0.297,-0.068 0.307,-0.071 0.316,-0.075C0.325,-0.079 0.336,-0.086 0.35,-0.096C0.356,-0.1 0.367,-0.104 0.382,-0.108C0.402,-0.114 0.417,-0.12 0.427,-0.126C0.435,-0.131 0.444,-0.134 0.453,-0.134C0.463,-0.134 0.47,-0.131 0.474,-0.125L0.48,-0.111L0.48,-0.1C0.481,-0.097 0.481,-0.093 0.481,-0.09C0.481,-0.046 0.473,-0.003 0.458,0.038C0.443,0.08 0.419,0.132 0.387,0.195C0.38,0.209 0.374,0.221 0.369,0.231C0.368,0.234 0.367,0.238 0.367,0.242C0.367,0.246 0.368,0.252 0.369,0.261C0.372,0.275 0.373,0.287 0.373,0.296C0.373,0.298 0.373,0.3 0.372,0.302L0.372,0.31C0.376,0.319 0.38,0.323 0.383,0.324C0.388,0.325 0.392,0.326 0.396,0.328C0.401,0.331 0.407,0.332 0.413,0.332C0.42,0.332 0.426,0.331 0.431,0.329C0.435,0.328 0.439,0.325 0.444,0.32C0.448,0.317 0.451,0.313 0.453,0.307C0.454,0.301 0.455,0.294 0.455,0.285C0.455,0.279 0.455,0.271 0.454,0.262C0.453,0.256 0.453,0.252 0.453,0.249Z" style="fill:rgb(224,223,213);fill-rule:nonzero;"/>
                </g>
                <g transform="matrix(284.195,0,0,284.195,1327.68,252.453)">
                    <path d="M0.473,-0.833C0.477,-0.843 0.484,-0.858 0.494,-0.877C0.504,-0.897 0.516,-0.92 0.529,-0.946C0.546,-0.981 0.559,-1.006 0.567,-1.021C0.575,-1.036 0.58,-1.048 0.583,-1.056C0.589,-1.046 0.594,-1.036 0.597,-1.026C0.6,-1.016 0.602,-1.006 0.603,-0.995C0.608,-1.009 0.611,-1.021 0.612,-1.032C0.613,-1.043 0.614,-1.063 0.614,-1.093C0.614,-1.109 0.606,-1.117 0.59,-1.117L0.583,-1.117C0.572,-1.117 0.564,-1.115 0.557,-1.111C0.55,-1.106 0.541,-1.095 0.532,-1.078L0.493,-0.999C0.482,-0.978 0.475,-0.963 0.47,-0.954C0.465,-0.945 0.462,-0.939 0.461,-0.936C0.46,-0.933 0.457,-0.928 0.454,-0.921C0.45,-0.914 0.442,-0.901 0.431,-0.881C0.413,-0.844 0.393,-0.806 0.37,-0.767C0.347,-0.727 0.317,-0.676 0.28,-0.613C0.241,-0.549 0.209,-0.495 0.184,-0.45C0.158,-0.405 0.133,-0.357 0.108,-0.308C0.083,-0.259 0.062,-0.209 0.043,-0.159C0.025,-0.108 0.012,-0.06 0.003,-0.013C0.003,-0.012 0.003,-0.011 0.002,-0.01L0.002,-0.008C0.002,-0.006 0.003,-0.003 0.004,-0C0.005,0.003 0.005,0.004 0.005,0.005C0.013,0 0.026,-0.004 0.045,-0.007C0.057,-0.01 0.065,-0.012 0.068,-0.014C0.088,-0.026 0.106,-0.039 0.122,-0.054C0.137,-0.068 0.155,-0.086 0.176,-0.108C0.21,-0.143 0.238,-0.169 0.26,-0.186C0.263,-0.188 0.272,-0.199 0.289,-0.22C0.313,-0.25 0.334,-0.275 0.352,-0.295C0.369,-0.315 0.385,-0.329 0.4,-0.338C0.388,-0.311 0.37,-0.279 0.346,-0.242C0.334,-0.222 0.327,-0.21 0.326,-0.205C0.324,-0.199 0.32,-0.19 0.314,-0.178C0.307,-0.163 0.301,-0.151 0.298,-0.14C0.287,-0.103 0.282,-0.075 0.282,-0.056C0.282,-0.043 0.285,-0.027 0.29,-0.01C0.295,0.003 0.305,0.012 0.318,0.017C0.331,0.022 0.345,0.025 0.36,0.025C0.372,0.025 0.382,0.024 0.391,0.021C0.399,0.019 0.407,0.015 0.415,0.01C0.423,0.005 0.429,-0.001 0.433,-0.01C0.45,-0.018 0.464,-0.028 0.477,-0.041C0.49,-0.053 0.496,-0.062 0.496,-0.068C0.496,-0.071 0.493,-0.072 0.488,-0.072C0.449,-0.059 0.42,-0.053 0.401,-0.053C0.388,-0.053 0.379,-0.056 0.376,-0.062C0.372,-0.068 0.37,-0.077 0.369,-0.09L0.368,-0.098C0.368,-0.108 0.369,-0.118 0.371,-0.128C0.373,-0.138 0.377,-0.151 0.383,-0.167C0.389,-0.182 0.398,-0.203 0.411,-0.228C0.424,-0.253 0.44,-0.283 0.46,-0.319C0.471,-0.339 0.481,-0.36 0.49,-0.383C0.499,-0.406 0.505,-0.426 0.51,-0.443C0.498,-0.434 0.486,-0.43 0.475,-0.43C0.47,-0.43 0.464,-0.431 0.457,-0.433C0.454,-0.433 0.451,-0.434 0.447,-0.435C0.444,-0.436 0.442,-0.436 0.441,-0.436C0.436,-0.436 0.43,-0.433 0.423,-0.426C0.415,-0.421 0.404,-0.412 0.39,-0.399C0.376,-0.386 0.362,-0.374 0.349,-0.361C0.336,-0.348 0.324,-0.337 0.314,-0.326C0.303,-0.315 0.297,-0.308 0.295,-0.305C0.282,-0.285 0.268,-0.267 0.253,-0.251C0.237,-0.235 0.213,-0.212 0.18,-0.183C0.142,-0.148 0.111,-0.119 0.086,-0.096C0.101,-0.143 0.122,-0.193 0.149,-0.245C0.175,-0.297 0.208,-0.355 0.246,-0.418L0.44,-0.755L0.473,-0.833Z" style="fill:rgb(224,223,213);fill-rule:nonzero;"/>
                </g>
                <g transform="matrix(284.195,0,0,284.195,1457.84,252.453)">
                    <path d="M0.296,-0.158C0.301,-0.163 0.309,-0.171 0.318,-0.181C0.327,-0.19 0.34,-0.204 0.357,-0.222C0.371,-0.237 0.379,-0.245 0.381,-0.247C0.394,-0.258 0.404,-0.271 0.412,-0.284C0.42,-0.297 0.431,-0.322 0.445,-0.358C0.453,-0.377 0.459,-0.394 0.464,-0.408C0.468,-0.424 0.47,-0.439 0.47,-0.455C0.47,-0.466 0.467,-0.474 0.461,-0.48C0.454,-0.486 0.446,-0.489 0.435,-0.489C0.429,-0.489 0.423,-0.488 0.417,-0.486C0.409,-0.483 0.395,-0.479 0.375,-0.473C0.35,-0.466 0.331,-0.46 0.32,-0.456C0.308,-0.451 0.299,-0.445 0.293,-0.438C0.284,-0.428 0.277,-0.42 0.272,-0.413C0.267,-0.407 0.262,-0.4 0.259,-0.393L0.259,-0.404C0.259,-0.419 0.258,-0.426 0.255,-0.426C0.254,-0.426 0.253,-0.425 0.25,-0.422C0.249,-0.421 0.244,-0.42 0.236,-0.419C0.225,-0.418 0.214,-0.415 0.204,-0.412C0.195,-0.409 0.185,-0.401 0.176,-0.39C0.169,-0.381 0.16,-0.372 0.148,-0.362C0.14,-0.355 0.134,-0.348 0.129,-0.343C0.124,-0.338 0.12,-0.33 0.117,-0.321C0.114,-0.313 0.111,-0.304 0.107,-0.295C0.102,-0.285 0.098,-0.276 0.093,-0.268C0.09,-0.264 0.087,-0.254 0.082,-0.237C0.08,-0.228 0.078,-0.221 0.076,-0.216C0.068,-0.191 0.056,-0.156 0.041,-0.112C0.029,-0.077 0.021,-0.054 0.018,-0.043C0.015,-0.032 0.013,-0.023 0.013,-0.017C0.013,-0.016 0.013,-0.014 0.014,-0.011C0.015,-0.009 0.015,-0.007 0.015,-0.006C0.015,-0.005 0.015,-0.003 0.016,-0.002C0.017,0.003 0.018,0.007 0.02,0.009C0.022,0.011 0.027,0.012 0.034,0.012C0.039,0.011 0.045,0.011 0.051,0.01C0.064,0.009 0.073,0.007 0.079,0.005C0.085,0.004 0.09,0.001 0.095,-0.004C0.099,-0.008 0.102,-0.011 0.106,-0.013C0.109,-0.015 0.113,-0.017 0.12,-0.019C0.126,-0.021 0.133,-0.025 0.141,-0.033C0.15,-0.04 0.158,-0.048 0.167,-0.058C0.174,-0.065 0.184,-0.069 0.198,-0.072C0.211,-0.075 0.22,-0.08 0.225,-0.085C0.236,-0.098 0.249,-0.111 0.262,-0.125C0.275,-0.139 0.287,-0.15 0.296,-0.158ZM0.205,-0.138C0.192,-0.126 0.181,-0.117 0.173,-0.111C0.165,-0.104 0.158,-0.099 0.152,-0.096C0.146,-0.092 0.14,-0.089 0.135,-0.086C0.129,-0.084 0.121,-0.081 0.11,-0.078C0.103,-0.077 0.099,-0.076 0.096,-0.076C0.091,-0.076 0.088,-0.077 0.088,-0.08C0.088,-0.082 0.089,-0.085 0.092,-0.09C0.094,-0.093 0.095,-0.096 0.096,-0.097C0.108,-0.12 0.117,-0.137 0.123,-0.149C0.129,-0.161 0.139,-0.181 0.153,-0.208C0.16,-0.223 0.166,-0.236 0.171,-0.245C0.188,-0.282 0.203,-0.309 0.218,-0.326C0.233,-0.343 0.251,-0.352 0.273,-0.353C0.281,-0.354 0.287,-0.356 0.29,-0.359C0.293,-0.362 0.296,-0.367 0.299,-0.374C0.3,-0.376 0.301,-0.378 0.302,-0.381C0.308,-0.392 0.315,-0.4 0.323,-0.403C0.33,-0.406 0.347,-0.407 0.372,-0.407C0.381,-0.407 0.388,-0.405 0.391,-0.402C0.394,-0.399 0.395,-0.392 0.395,-0.381C0.395,-0.374 0.394,-0.365 0.392,-0.356C0.39,-0.347 0.387,-0.339 0.383,-0.332C0.37,-0.307 0.358,-0.287 0.347,-0.271C0.336,-0.255 0.328,-0.246 0.321,-0.244C0.314,-0.242 0.29,-0.221 0.249,-0.181C0.236,-0.169 0.222,-0.155 0.205,-0.138Z" style="fill:rgb(224,223,213);fill-rule:nonzero;"/>
                </g>
                <g transform="matrix(284.195,0,0,284.195,1569.25,252.453)">
                    <path d="M0.266,-0.081C0.266,-0.086 0.265,-0.092 0.263,-0.101C0.262,-0.108 0.261,-0.113 0.261,-0.116C0.261,-0.125 0.26,-0.132 0.259,-0.138C0.257,-0.144 0.253,-0.151 0.248,-0.16C0.242,-0.169 0.238,-0.175 0.236,-0.179C0.234,-0.183 0.233,-0.186 0.232,-0.189C0.231,-0.194 0.228,-0.199 0.224,-0.204C0.213,-0.219 0.207,-0.231 0.204,-0.239C0.201,-0.248 0.2,-0.259 0.2,-0.272C0.201,-0.289 0.202,-0.301 0.204,-0.308C0.206,-0.315 0.209,-0.321 0.213,-0.327C0.216,-0.332 0.219,-0.338 0.22,-0.343C0.223,-0.354 0.229,-0.364 0.238,-0.373C0.247,-0.381 0.26,-0.389 0.278,-0.398C0.283,-0.4 0.29,-0.403 0.297,-0.406C0.308,-0.411 0.316,-0.413 0.321,-0.414C0.33,-0.414 0.336,-0.411 0.341,-0.406C0.345,-0.402 0.347,-0.396 0.347,-0.389C0.347,-0.384 0.346,-0.38 0.344,-0.377C0.341,-0.369 0.335,-0.359 0.327,-0.347C0.318,-0.336 0.308,-0.323 0.297,-0.308C0.288,-0.297 0.283,-0.29 0.282,-0.288C0.285,-0.281 0.289,-0.278 0.292,-0.278C0.293,-0.278 0.296,-0.279 0.3,-0.281C0.303,-0.282 0.305,-0.283 0.306,-0.284C0.315,-0.292 0.325,-0.302 0.336,-0.315C0.347,-0.328 0.358,-0.341 0.369,-0.356C0.38,-0.371 0.39,-0.384 0.399,-0.396C0.407,-0.407 0.413,-0.416 0.416,-0.423C0.421,-0.432 0.423,-0.44 0.423,-0.447C0.423,-0.456 0.42,-0.462 0.414,-0.467C0.405,-0.473 0.393,-0.476 0.378,-0.476C0.354,-0.476 0.328,-0.469 0.299,-0.455C0.288,-0.45 0.276,-0.442 0.262,-0.433C0.248,-0.424 0.234,-0.413 0.221,-0.402C0.207,-0.391 0.195,-0.379 0.184,-0.366C0.172,-0.353 0.164,-0.341 0.159,-0.329C0.159,-0.328 0.157,-0.323 0.152,-0.314C0.145,-0.299 0.14,-0.285 0.137,-0.275C0.133,-0.264 0.131,-0.251 0.131,-0.237C0.131,-0.224 0.134,-0.209 0.139,-0.191C0.144,-0.172 0.153,-0.154 0.164,-0.137C0.171,-0.127 0.177,-0.119 0.18,-0.113C0.183,-0.106 0.185,-0.099 0.188,-0.09C0.189,-0.083 0.19,-0.079 0.191,-0.078C0.194,-0.073 0.195,-0.068 0.195,-0.065C0.195,-0.057 0.187,-0.053 0.17,-0.053C0.161,-0.053 0.151,-0.054 0.138,-0.057C0.125,-0.059 0.113,-0.061 0.102,-0.064C0.09,-0.067 0.078,-0.07 0.066,-0.074C0.054,-0.077 0.045,-0.08 0.039,-0.083C0.036,-0.094 0.032,-0.1 0.026,-0.1L0.023,-0.1C0.022,-0.099 0.021,-0.099 0.021,-0.099C0.011,-0.093 0.004,-0.088 0.001,-0.084C-0.003,-0.08 -0.006,-0.075 -0.009,-0.068C-0.023,-0.065 -0.034,-0.059 -0.041,-0.051C-0.049,-0.044 -0.053,-0.037 -0.053,-0.032C-0.053,-0.027 -0.05,-0.023 -0.045,-0.02C-0.04,-0.017 -0.035,-0.015 -0.03,-0.014C-0.015,-0.009 0.004,-0.003 0.027,0.002C0.05,0.007 0.069,0.01 0.086,0.011C0.101,0.011 0.119,0.009 0.138,0.006C0.157,0.003 0.174,-0.001 0.188,-0.005C0.197,-0.008 0.205,-0.013 0.215,-0.02C0.224,-0.027 0.232,-0.034 0.239,-0.043C0.247,-0.052 0.254,-0.059 0.259,-0.067C0.264,-0.074 0.266,-0.078 0.266,-0.081Z" style="fill:rgb(224,223,213);fill-rule:nonzero;"/>
                </g>
                <g transform="matrix(284.195,0,0,284.195,1660.19,252.453)">
                    <path d="M0.175,-0.36C0.14,-0.303 0.112,-0.259 0.093,-0.226C0.073,-0.193 0.059,-0.168 0.05,-0.151C0.041,-0.134 0.035,-0.121 0.033,-0.114C0.03,-0.106 0.028,-0.097 0.027,-0.088C0.026,-0.083 0.026,-0.079 0.025,-0.075C0.024,-0.066 0.023,-0.058 0.023,-0.051C0.023,-0.037 0.026,-0.024 0.033,-0.011C0.037,-0.003 0.042,0.001 0.048,0.001C0.055,0.001 0.065,-0.003 0.078,-0.011C0.09,-0.011 0.104,-0.017 0.119,-0.029C0.134,-0.042 0.142,-0.059 0.142,-0.081L0.142,-0.087C0.141,-0.09 0.141,-0.092 0.141,-0.093C0.136,-0.083 0.131,-0.078 0.124,-0.078C0.117,-0.078 0.114,-0.082 0.114,-0.089C0.12,-0.11 0.127,-0.131 0.135,-0.152C0.143,-0.172 0.153,-0.194 0.165,-0.217C0.176,-0.239 0.191,-0.263 0.207,-0.289C0.225,-0.315 0.245,-0.344 0.268,-0.375C0.355,-0.386 0.414,-0.393 0.448,-0.398C0.481,-0.403 0.5,-0.407 0.506,-0.41C0.512,-0.413 0.52,-0.415 0.53,-0.418C0.54,-0.421 0.548,-0.424 0.554,-0.428C0.559,-0.431 0.564,-0.438 0.569,-0.447C0.574,-0.451 0.578,-0.456 0.583,-0.463C0.588,-0.47 0.59,-0.475 0.59,-0.478C0.59,-0.48 0.589,-0.481 0.586,-0.481C0.583,-0.481 0.577,-0.479 0.568,-0.475C0.563,-0.473 0.558,-0.472 0.553,-0.471C0.547,-0.47 0.538,-0.47 0.525,-0.47C0.515,-0.47 0.494,-0.468 0.463,-0.465C0.413,-0.46 0.371,-0.457 0.338,-0.455C0.333,-0.455 0.327,-0.455 0.32,-0.454C0.317,-0.453 0.315,-0.453 0.314,-0.453C0.313,-0.453 0.313,-0.454 0.312,-0.455C0.312,-0.456 0.316,-0.462 0.324,-0.472C0.329,-0.478 0.333,-0.484 0.338,-0.49C0.36,-0.523 0.38,-0.553 0.397,-0.58C0.414,-0.606 0.435,-0.637 0.458,-0.674C0.488,-0.721 0.506,-0.749 0.513,-0.76C0.524,-0.778 0.529,-0.791 0.529,-0.8C0.529,-0.807 0.526,-0.811 0.519,-0.811C0.512,-0.811 0.506,-0.809 0.5,-0.804C0.491,-0.798 0.484,-0.794 0.479,-0.793C0.474,-0.791 0.468,-0.79 0.463,-0.789C0.458,-0.789 0.455,-0.788 0.453,-0.787C0.449,-0.784 0.441,-0.773 0.43,-0.753C0.419,-0.732 0.411,-0.717 0.404,-0.707C0.374,-0.652 0.348,-0.607 0.325,-0.57C0.302,-0.533 0.275,-0.492 0.242,-0.447C0.232,-0.447 0.217,-0.443 0.197,-0.434C0.183,-0.428 0.174,-0.425 0.169,-0.425L0.168,-0.425C0.159,-0.424 0.152,-0.422 0.146,-0.417C0.14,-0.411 0.132,-0.399 0.121,-0.378C0.117,-0.369 0.115,-0.36 0.115,-0.349C0.115,-0.342 0.116,-0.33 0.118,-0.313C0.127,-0.328 0.137,-0.341 0.15,-0.352C0.162,-0.362 0.171,-0.367 0.176,-0.367C0.177,-0.367 0.178,-0.366 0.178,-0.365C0.178,-0.364 0.177,-0.363 0.175,-0.36Z" style="fill:rgb(224,223,213);fill-rule:nonzero;"/>
                </g>
            </g>
        </g>
    </g>
</svg>
